<?xml version="1.0" encoding="utf-8"?>
<!-- Generator: Adobe Illustrator 21.1.0, SVG Export Plug-In . SVG Version: 6.00 Build 0)  -->
<svg version="1.1" id="Layer_1" xmlns="http://www.w3.org/2000/svg" xmlns:xlink="http://www.w3.org/1999/xlink" x="0px" y="0px"
	 viewBox="0 0 38 38" style="enable-background:new 0 0 38 38;" xml:space="preserve">
<style type="text/css">
	.st0{fill:#231F20;}
</style>
<g>
	<path class="st0" d="M24.1,31.7c-0.6,0.7-1.4,1.4-2.2,1.9h12v-2h-9.8C24.2,31.6,24.2,31.7,24.1,31.7z"/>
	<path class="st0" d="M28.3,25.5c-0.3-3.1-3-6.4-6.9-6.4c-0.6,0-1.3,0.1-1.9,0.3c0,0-0.1,0-0.1,0c-1.9-1.4-4.6-1.4-6.6,0.1
		c0,0-0.1,0-0.1,0c-1.6-0.2-3.4,0.3-4.7,1.4c0,0-0.1,0.1-0.1,0.1l-0.1,0l0,0c-3,0.2-5.5,2.5-5.8,5.4c-0.2,1.9,0.3,3.5,1.5,4.8
		c1.7,1.9,4.4,2.6,6.1,2.6l10.3,0v-2H9.6c-1.4,0-3.4-0.6-4.6-1.9c-0.8-0.9-1.1-2-1-3.3c0.1-1.4,1.2-2.8,2.7-3.4
		c-0.2,0.5-0.3,1.1-0.2,1.7c0.1,1.2,1.9,1.2,1.8,0c0-0.9,0.3-1.9,1-2.4c0,0,0,0,0,0c0.1-0.1,0.2-0.1,0.3-0.2c0,0,0.1-0.1,0.1-0.1
		c0.6-0.4,1.4-0.6,2.1-0.7c-0.6,1.2-0.9,2.6-0.7,3.9c0.1,1.1,2,1.1,1.8,0c-0.2-1.7,0.3-3.2,1.5-4.4c0.1-0.1,0.1-0.1,0.1-0.2
		c1-0.5,2.2-0.6,3.2-0.1c-1.2,1.2-1.7,2.9-1.4,4.9c0.2,1.1,1.9,0.7,1.7-0.5c-0.2-1.6,0.2-3,1.7-3.8c0.1,0,0.3,0,0.4-0.1
		c0.4-0.1,0.8-0.2,1.3-0.2c2.6,0,4.6,2.4,4.9,4.7c0.2,1.5-0.2,3-1.2,4.1c-0.6,0.7-1.6,1.5-3.3,1.8v2c1.9-0.2,3.6-1.1,4.8-2.5
		C28,29.6,28.6,27.5,28.3,25.5z"/>
	<path class="st0" d="M34,14.3h4l-17-10l-17,10h4v4.1c0.6-0.4,1.3-0.6,2-0.8v-4.5l11-6.5l11,6.5v16.5h2V14.3z"/>
</g>
</svg>
