<?xml version="1.0" encoding="utf-8"?>
<!-- Generator: Adobe Illustrator 21.1.0, SVG Export Plug-In . SVG Version: 6.00 Build 0)  -->
<svg version="1.1" id="Layer_1" xmlns="http://www.w3.org/2000/svg" xmlns:xlink="http://www.w3.org/1999/xlink" x="0px" y="0px"
	 viewBox="0 0 38 38" style="enable-background:new 0 0 38 38;" xml:space="preserve">
<style type="text/css">
	.st0{fill:#231F20;}
</style>
<path class="st0" d="M25.8,5.8c-3.5,0-5.7,1.9-7.1,3.3L18,9.8c0.2,0.2,0.5,0.4,0.7,0.7l0.7,0.7l0.7-0.7c1.9-1.9,3.6-2.7,5.7-2.7
	c3.9,0,6.6,2.9,6.6,7.1c0,6-4.8,10.1-12,16.3l-1,0.8l-1-0.8c-7.2-6.2-12-10.3-12-16.3c0-4.2,2.7-7.1,6.6-7.1c1.2,0,2.3,0.3,3.3,0.8
	l1-1c0.2-0.2,0.3-0.3,0.5-0.5c-1.5-0.9-3-1.4-4.8-1.4c-5,0-8.6,3.8-8.6,9.1c0,6.9,5.3,11.5,12.7,17.9l2.3,1.9l2.3-2
	c7.4-6.3,12.7-10.9,12.7-17.9C34.4,9.6,30.8,5.8,25.8,5.8z"/>
</svg>
