<?xml version="1.0" encoding="utf-8"?>
<!-- Generator: Adobe Illustrator 21.1.0, SVG Export Plug-In . SVG Version: 6.00 Build 0)  -->
<svg version="1.1" id="圖層_1" xmlns="http://www.w3.org/2000/svg" xmlns:xlink="http://www.w3.org/1999/xlink" x="0px" y="0px"
	 viewBox="0 0 50 50" style="enable-background:new 0 0 50 50;" xml:space="preserve">
<path d="M36,26.5c-0.7-0.7-3.1-3-5.7-5.4L30.2,21c-2.9-2.7-6.1-5.7-7.2-6.9c-1.2-1.2-2.7-1.8-4.3-1.8c-1.6,0-3.2,0.6-4.3,1.8
	c-1.2,1.1-1.8,2.7-1.8,4.3s0.6,3.2,1.8,4.3c2.1,2.1,11.4,10.8,11.5,10.9l0.1,0.1l1-1.1l-0.2-0.2c-2.2-2.1-9.6-8.9-11.4-10.7
	c-0.9-0.9-1.3-2-1.3-3.3s0.5-2.4,1.3-3.3c0.9-0.9,2-1.3,3.3-1.3c1.2,0,2.4,0.5,3.3,1.3c1.1,1.1,4.2,4.1,7.2,6.9
	c2.3,2.2,5,4.7,5.7,5.4c0.6,0.6,1,1.4,1,2.3c0,0.9-0.3,1.7-1,2.3c-1.3,1.3-3.3,1.3-4.6,0c-0.9-0.9-4.1-3.9-7-6.6l0,0
	c-2.3-2.2-4.5-4.2-5-4.7c-0.4-0.4-0.6-0.8-0.6-1.4s0.2-1,0.6-1.4c0.8-0.8,2-0.8,2.7,0c1,1,9.6,9,10.6,9.9l0.1,0.1l1-1.1l-0.1-0.1
	c-0.1-0.1-9.5-8.8-10.5-9.9c-1.3-1.3-3.5-1.3-4.8,0c-1.3,1.3-1.3,3.5,0,4.8c0.5,0.5,2.7,2.6,5,4.7l0,0c2.9,2.7,6.1,5.7,7,6.6
	c0.9,0.9,2.1,1.4,3.4,1.4c1.3,0,2.5-0.5,3.4-1.4c0.9-0.9,1.4-2.1,1.4-3.4C37.4,28.6,36.9,27.4,36,26.5z"/>
</svg>
