<svg xmlns="http://www.w3.org/2000/svg" viewBox="0 0 331.16 104.99"><defs><style>.cls-1{font-size:36px;font-family:NotoSansCJKtc-Regular-B5pc-H, Noto Sans CJK TC;}.cls-1,.cls-6{fill:#4289ff;}.cls-2{opacity:0.7;}.cls-3,.cls-4,.cls-5{fill:none;stroke:#4289ff;stroke-miterlimit:10;}.cls-3{stroke-width:3px;}.cls-4{stroke-width:2px;}</style></defs><title>bossActivity</title><g id="圖層_2" data-name="圖層 2"><g id="設計"><text class="cls-1" transform="translate(83.5 67.26)">活動管理</text><g class="cls-2"><line class="cls-3" x1="20" y1="53.89" y2="53.89"/><line class="cls-4" x1="22.67" y1="45.26" x2="6.67" y2="39.26"/><line class="cls-5" x1="29.33" y1="37.57" x2="20" y2="30.57"/><line class="cls-4" x1="21.36" y1="64.57" x2="5.36" y2="70.57"/><line class="cls-5" x1="28.03" y1="72.26" x2="18.7" y2="79.26"/><line class="cls-3" x1="311.16" y1="53.89" x2="331.16" y2="53.89"/><line class="cls-4" x1="308.5" y1="45.26" x2="324.5" y2="39.26"/><line class="cls-5" x1="301.83" y1="37.57" x2="311.16" y2="30.57"/><line class="cls-4" x1="309.8" y1="64.57" x2="325.8" y2="70.57"/><line class="cls-5" x1="303.13" y1="72.26" x2="312.46" y2="79.26"/></g><path class="cls-6" d="M118.7,80.15c-25,19.48-63.26,12.55-79.2-12.94A32.7,32.7,0,0,1,42,69.59C53.17,82.7,67.28,89.65,84.58,89.53c11.22-.08,21.16-4.33,30.5-10.23C117.11,78,117.14,78.07,118.7,80.15Z"/><path class="cls-6" d="M246.69,19.93c-19.71-3.59-40.43-.81-45.44,6,.19.06.41.22.56.17a22.62,22.62,0,0,0,2.56-1c9.61-4.93,19.94-6.14,30.51-5.52a22.28,22.28,0,0,1,8.73,2.4C246.37,23.35,246.22,21.82,246.69,19.93Z"/><path class="cls-6" d="M271.3,30.23c-.94.26-2.3,1.22-2.35,1.94a4.08,4.08,0,0,0,1.53,3,6.46,6.46,0,0,0,3.44.95c2.56.13,5.12,0,8,0C280,31.85,275.16,29.18,271.3,30.23Z"/><path class="cls-6" d="M274.81,38.73c-.76,1.71,1.29,4.19,4.34,5,2.44.62,4.94,1,7.53,1.5-.89-3-2.22-5.81-5.37-7.24C278.94,36.86,275.44,37.32,274.81,38.73Z"/><path class="cls-6" d="M261.46,27.36c4.44,5.11,9.37.49,14.48,1.53C271,23.58,264.37,23,261.46,27.36Z"/><path class="cls-6" d="M267.35,34.63c-.67-.22-2.12.69-2.65,1.48-1.84,2.75-.21,8.15,2.75,9.87.47-1.22,1-2.43,1.4-3.69.49-1.7,1.19-3.48,1.07-5.17C269.86,36.18,268.42,35,267.35,34.63Z"/><path class="cls-6" d="M285.06,46.5c-1.65-1.23-3.74-2.05-5.19-.09s.19,3.5,1.64,4.69a12.07,12.07,0,0,0,3,1.55c1.31.55,2.66,1,4.09,1.53A8.17,8.17,0,0,0,285.06,46.5Z"/><path class="cls-6" d="M272.79,40.6c-1.08,1-2.69,1.78-3.13,3-1.12,3.06-.4,6,2.3,8.86,1.24-2.82,2.74-5.21,3.25-7.81C275.43,43.51,273.66,42,272.79,40.6Z"/><path class="cls-6" d="M257.33,20.73c-1,.37-1.69,1.71-2.51,2.6,1.06.59,2.2,1.78,3.17,1.66,3.29-.41,6.52-1.28,10.31-2.09C264.55,20.43,261.09,19.38,257.33,20.73Z"/><path class="cls-6" d="M261.81,29.72a2.53,2.53,0,0,0-2.35.68c-1.52,2.59-1.11,8.7,3.25,10.06.33-3,.79-5.81.88-8.68C263.61,31.08,262.58,30,261.81,29.72Z"/><path class="cls-6" d="M254,25.39c-.59,1-1.54,1.95-1.7,3-.51,3.33,1.17,5.64,5,7.93,0-3.34.32-5.91-.15-8.33C257,27,255.14,26.25,254,25.39Z"/><path class="cls-6" d="M279.26,52c-.18-1.4-1.24-2.68-1.92-4-1.14.94-2.9,1.67-3.3,2.86a6.67,6.67,0,0,0,1.79,7.36c.75-1.09,1.46-2,2-2.93S279.4,53,279.26,52Z"/><path class="cls-6" d="M247.58,22.74a3.84,3.84,0,0,0-1.75,3.2,7.32,7.32,0,0,0,5.08,6.27c0-2.42.16-4.66-.05-6.86C250.69,23.54,249.45,22.09,247.58,22.74Z"/><path class="cls-6" d="M259.38,17.72a57.75,57.75,0,0,0-8.42.07c-1.12.16-2,1.8-3,2.77,1.41.46,3,1.55,4.19,1.24,2.52-.64,4.86-2,7.28-3.1Q259.38,18.21,259.38,17.72Z"/><path class="cls-6" d="M282.79,55.09a10.39,10.39,0,0,0,1.71,4.32c1.15,1.32,2.91,2.11,5.25,3.71-.63-2.72-.71-4.73-1.58-6.3C287.46,55.54,282.72,54.82,282.79,55.09Z"/><path class="cls-6" d="M280.24,55.37c-.94,1-2.51,1.9-2.66,3C277.34,60.14,279,64,279.41,64c.9-1.55,2.29-3,2.55-4.68C282.16,58.13,280.87,56.7,280.24,55.37Z"/><path class="cls-6" d="M283.42,60.88c-.54.85-1.64,1.81-1.5,2.54.34,1.9,2.81,5.52,3.27,5.5a32.22,32.22,0,0,0,.75-6C285.91,62.18,284.3,61.55,283.42,60.88Z"/><path class="cls-6" d="M214.65,7.49c-10.91,6.16-19.76,15.8-19.45,21.08.12,0,.29-.06.33-.14a14.15,14.15,0,0,0,.81-1.53C199,20.68,203.49,16,208.81,12A13.94,13.94,0,0,1,214,9.68C215.87,9.27,215.19,8.59,214.65,7.49Z"/><path class="cls-6" d="M230.62,2.6c-.35.5-.62,1.51-.35,1.87a2.56,2.56,0,0,0,1.93.83,4,4,0,0,0,2-.92c1.28-1,2.48-2,3.85-3.17C235.44-.11,232.05.54,230.62,2.6Z"/><path class="cls-6" d="M235.71,5.27c.32,1.13,2.3,1.5,4.07.65,1.42-.68,2.77-1.5,4.22-2.3-1.65-1.11-3.39-1.9-5.48-1.34C236.94,2.72,235.44,4.35,235.71,5.27Z"/><path class="cls-6" d="M224.73,5.15c4.18.68,4.7-3.52,7.58-5.06C227.82-.49,224.37,1.87,224.73,5.15Z"/><path class="cls-6" d="M230.48,6.29c-.41.16-.75,1.18-.68,1.77.22,2.06,3.16,4,5.28,3.65-.26-.78-.48-1.58-.81-2.34a9.87,9.87,0,0,0-1.56-2.91A2.52,2.52,0,0,0,230.48,6.29Z"/><path class="cls-6" d="M243.75,4.91c-1.29.07-2.62.51-2.53,2s1.49,1.61,2.67,1.6a7.55,7.55,0,0,0,2.05-.45c.85-.26,1.68-.58,2.58-.9A5.11,5.11,0,0,0,243.75,4.91Z"/><path class="cls-6" d="M235.49,7c-.12.91-.58,1.93-.31,2.7.69,1.92,2.21,3,4.65,3.34A25.13,25.13,0,0,0,238.27,8C237.92,7.32,236.45,7.29,235.49,7Z"/><path class="cls-6" d="M220.1,3.62c-.34.58-.13,1.49-.17,2.26.75-.14,1.77,0,2.19-.47,1.42-1.51,2.62-3.23,4.12-5.13C223.45.58,221.36,1.47,220.1,3.62Z"/><path class="cls-6" d="M225.85,6.15A1.58,1.58,0,0,0,225,7.42c.31,1.86,3,4.63,5.59,3.54-1-1.55-1.95-3.11-3-4.52A1.89,1.89,0,0,0,225.85,6.15Z"/><path class="cls-6" d="M220.38,7.18a6.24,6.24,0,0,0,.39,2.13c1.09,1.8,2.82,2.25,5.57,1.82a29.79,29.79,0,0,0-3.41-3.95C222.43,6.76,221.25,7.15,220.38,7.18Z"/><path class="cls-6" d="M243.16,9.87a8.65,8.65,0,0,0-2.53-1.16c-.17.91-.73,2-.44,2.69A4.17,4.17,0,0,0,244,14.23c-.07-.82-.09-1.53-.21-2.21S243.63,10.31,243.16,9.87Z"/><path class="cls-6" d="M216.21,8.49a2.4,2.4,0,0,0,.44,2.24,4.58,4.58,0,0,0,5,1c-1-1.16-1.79-2.3-2.77-3.28C218,7.63,216.85,7.43,216.21,8.49Z"/><path class="cls-6" d="M219.87,1.35a36.13,36.13,0,0,0-4,3.4c-.48.52-.25,1.68-.35,2.55.86-.34,2-.45,2.51-1.08a29.41,29.41,0,0,0,2.26-4.4Z"/><path class="cls-6" d="M246.1,9.95a6.5,6.5,0,0,0,2.55,1.39,18.4,18.4,0,0,0,4-.32,17.1,17.1,0,0,0-3.29-2.4C248.52,8.29,246,9.84,246.1,9.95Z"/><path class="cls-6" d="M245,11.1c-.05.85-.44,1.92-.08,2.51a6.53,6.53,0,0,0,3.13,2c-.19-1.11-.11-2.37-.65-3.27C247,11.66,245.81,11.49,245,11.1Z"/><path class="cls-6" d="M248.72,12.48c.08.63-.06,1.52.29,1.82a7.82,7.82,0,0,0,3.78,1.34,20.16,20.16,0,0,0-2.06-3.21C250.43,12.11,249.41,12.44,248.72,12.48Z"/></g></g></svg>