<?xml version="1.0" encoding="utf-8"?>
<!-- Generator: Adobe Illustrator 21.1.0, SVG Export Plug-In . SVG Version: 6.00 Build 0)  -->
<svg version="1.1" id="Layer_1" xmlns="http://www.w3.org/2000/svg" xmlns:xlink="http://www.w3.org/1999/xlink" x="0px" y="0px"
	 viewBox="0 0 38 38" style="enable-background:new 0 0 38 38;" xml:space="preserve">
<style type="text/css">
	.st0{fill:#231F20;}
</style>
<path class="st0" d="M38.4,16.7c0,8.3-8.5,15-19,15c-0.6,0-1.3,0-1.9-0.1l-6.1,6.1v-9.6c0.6,0.3,1.3,0.5,2,0.7v4l3.3-3.3
	c0.9,0.1,1.7,0.2,2.7,0.2c9.4,0,17-5.8,17-13s-7.6-13-17-13s-17,5.8-17,13c0,4.3,2.8,8.1,7,10.5v2.2c-5.4-2.6-9-7.4-9-12.7
	c0-8.3,8.5-15,19-15S38.4,8.5,38.4,16.7z"/>
</svg>
