<?xml version="1.0" encoding="utf-8"?>
<!-- Generator: Adobe Illustrator 21.1.0, SVG Export Plug-In . SVG Version: 6.00 Build 0)  -->
<svg version="1.1" id="Layer_1" xmlns="http://www.w3.org/2000/svg" xmlns:xlink="http://www.w3.org/1999/xlink" x="0px" y="0px"
	 viewBox="0 0 38 38" style="enable-background:new 0 0 38 38;" xml:space="preserve">
<style type="text/css">
	.st0{fill:#231F20;}
</style>
<path class="st0" d="M31.4,7.6h-5v-1c0-1.7-1.4-3-3-3h-8c-1.6,0-3,1.3-3,3v1h-5c-1.7,0-3,1.3-3,3v3h25.9l-1.8,22H10.3l-1.7-20h-2
	l1.8,22h21.8l2-24h2.1v-3C34.4,9,33.1,7.6,31.4,7.6z M14.4,6.6c0-0.6,0.4-1,1-1h8c0.5,0,1,0.4,1,1v1h-10V6.6z M32.4,11.6h-26v-1
	c0-0.6,0.4-1,1-1h24c0.5,0,1,0.4,1,1V11.6z"/>
</svg>
