<?xml version="1.0" encoding="utf-8"?>
<!-- Generator: Adobe Illustrator 21.1.0, SVG Export Plug-In . SVG Version: 6.00 Build 0)  -->
<svg version="1.1" id="圖層_1" xmlns="http://www.w3.org/2000/svg" xmlns:xlink="http://www.w3.org/1999/xlink" x="0px" y="0px"
	 viewBox="0 0 50 50" style="enable-background:new 0 0 50 50;" xml:space="preserve">
<path d="M31.4,20.9h-2.5v-0.4c0-0.9-0.8-1.7-1.7-1.7h-4.2c-0.9,0-1.7,0.8-1.7,1.7v0.4h-2.5c-0.9,0-1.7,0.8-1.7,1.7v1.7h13.7
	l-0.9,11.4h-9.4l-0.9-10.5l0-0.1h-1.3l1,11.8l0,0.1h11.8L32,24.3h1.1v-1.7C33.1,21.6,32.3,20.9,31.4,20.9z M22.5,20.9v-0.4
	c0-0.2,0.2-0.4,0.4-0.4h4.2c0.2,0,0.4,0.2,0.4,0.4v0.4H22.5z M31.8,22.6V23H18.2v-0.4c0-0.2,0.2-0.4,0.4-0.4h12.7
	C31.6,22.2,31.8,22.4,31.8,22.6z"/>
</svg>
