<?xml version="1.0" encoding="utf-8"?>
<!-- Generator: Adobe Illustrator 21.1.0, SVG Export Plug-In . SVG Version: 6.00 Build 0)  -->
<svg version="1.1" id="Layer_1" xmlns="http://www.w3.org/2000/svg" xmlns:xlink="http://www.w3.org/1999/xlink" x="0px" y="0px"
	 viewBox="0 0 38 38" style="enable-background:new 0 0 38 38;" xml:space="preserve">
<style type="text/css">
	.st0{fill:#231F20;}
</style>
<path class="st0" d="M35.4,19.2c0-0.8-0.3-1.6-0.9-2.1c-1.1-1.1-3.1-1.1-4.2,0L15.6,31.7c-0.7,0.7-1.3,1.4-1.7,2.5H5.4v-30h15
	c0.5,0,1,0.3,1,1v5h-12v2h20c0,0-6.1-8.2-6.6-8.9c-0.5-0.7-1.4-1.1-2.4-1.1h-17v34h10c0,0.3,0,0.6,0,1v1h1c2.7,0,4.1-0.9,5.2-2h9.8
	v-9.8l5.1-5.1C35.1,20.8,35.4,20,35.4,19.2z M23.4,7.5l2,2.7h-2V7.5z M27.4,34.2h-5.8l5.8-5.8V34.2z M33.1,19.9L18.5,34.5
	c-0.8,0.8-1.7,1.4-3,1.6c0.2-1.3,0.8-2.2,1.6-3l14.6-14.6c0.4-0.4,1-0.4,1.4,0c0.2,0.2,0.3,0.4,0.3,0.7
	C33.4,19.5,33.3,19.7,33.1,19.9z M20.3,24.2H9.4v-2h12.9L20.3,24.2z M23.4,18.2h-14v-2h14V18.2z"/>
</svg>
