<?xml version="1.0" encoding="utf-8"?>
<!-- Generator: Adobe Illustrator 21.1.0, SVG Export Plug-In . SVG Version: 6.00 Build 0)  -->
<svg version="1.1" id="Layer_1" xmlns="http://www.w3.org/2000/svg" xmlns:xlink="http://www.w3.org/1999/xlink" x="0px" y="0px"
	 viewBox="0 0 38 38" style="enable-background:new 0 0 38 38;" xml:space="preserve">
<g>
	<circle cx="19.4" cy="9.2" r="1.7"/>
	<circle cx="25.3" cy="6.4" r="1.7"/>
	<circle cx="30.9" cy="12.2" r="1.7"/>
	<path d="M23.7,2.5c-7,0-13,5.3-13.9,12.3l0,0.1l0.1,0c0.4,0.3,0.7,0.5,1,0.7c0.1,0.1,0.4,0.3,0.6,0.6l0.2,0.2l0-0.3
		c0.2-6.5,5.5-11.6,12-11.6c6.6,0,12,5.4,12,12c0,0.5,0,0.9-0.1,1.5c-2.3,1.3-4.4,1-6.4-0.7c0-0.3,0.1-0.6,0.1-0.8
		c0-3.1-2.5-5.6-5.6-5.6c-1.3,0-2.6,0.5-3.6,1.3c-1.7,0.3-3.3,1.2-4.6,2.7c-0.9,1.1-2,1.7-3.2,1.8l-0.2,0l0.1,0.2
		c0.1,0.1,0.1,0.2,0.2,0.3c0.3,0.3,0.6,0.7,0.9,1.2l0.1,0.1l0.1,0c1.3-0.4,2.5-1.1,3.5-2.3c0.4-0.4,0.8-0.8,1.3-1.1
		c-0.1,0.5-0.2,0.9-0.2,1.4c0,3.1,2.5,5.6,5.6,5.6c2,0,3.8-1.1,4.8-2.8c1.4,1,2.8,1.5,4.3,1.5c0.7,0,1.5-0.1,2.2-0.4
		c-1.3,3.7-4.2,6.5-8,7.6l-0.3,0.1l2.1,1.3l0.1,0l0.1,0c5.3-2.2,8.7-7.3,8.7-12.9C37.8,8.8,31.5,2.5,23.7,2.5z M23.7,20.1
		c-2,0-3.6-1.6-3.6-3.6c0-2,1.6-3.6,3.6-3.6c2,0,3.6,1.6,3.6,3.6C27.4,18.5,25.7,20.1,23.7,20.1z"/>
	<path d="M28.4,30.8l-0.6-0.4l-1.1,1.7l0.6,0.4c0.9,0.6,1.1,1.7,0.6,2.6c-0.6,0.9-1.7,1.1-2.6,0.6l-7.1-4.4l2-3.2l5.1,3.2l1.1-1.7
		l-6.8-4.3l-1.5,2.4L15.4,26c-1.2-2.9-3-5.9-4.3-7.5c-0.1-0.2-0.3-0.4-0.3-0.4c-0.1-0.2-0.7-0.7-1-1c-0.9-0.7-2.1-1.4-3.2-1.7
		c-0.6-0.2-1-0.2-1.5-0.2c0,0,0,0,0,0c-1.2,0-2.1,0.4-3.1,1.1c-0.9,0.8-1.8,2.2-2.2,3.4c-0.3,0.9-0.3,1.9,0,2.7
		c0.3,1.1,1.1,2.1,2.2,3c1.3,1,2.6,1.5,4.6,1.9c1.9,0.4,5,0.5,7.9,0.4l2.7,1.7l-1.6,2.5l8.7,5.5c0.6,0.4,1.3,0.6,2,0.6
		c1.3,0,2.5-0.6,3.3-1.8c0.5-0.9,0.7-1.9,0.5-2.9S29.3,31.4,28.4,30.8z M3.8,17.1c0.4-0.2,0.6-0.2,1-0.3c0.4,0,0.8,0,1.3,0.2
		c0.8,0.2,1.7,0.7,2.4,1.2c1,0.8,2.2,2.4,3.3,4.2c-1.1-1-2.2-2-3.2-2.7c-1.2-0.9-2.8-1.8-4-2.3C4.3,17.3,4.1,17.3,3.8,17.1L3.8,17.1
		z M9.3,26c-2-0.2-3.4-0.4-4.5-0.9c-0.9-0.3-1.9-1-2.5-1.7c-0.4-0.4-0.6-0.7-0.8-1.1c-0.2-0.4-0.2-0.7-0.2-1.1l0,0l0,0
		c0.6,0.7,1.6,1.5,2.8,2.3C5.5,24.3,7,25,9.3,26l0.2,0C9.5,26,9.4,26,9.3,26z M9.3,24.1c-2.4-1-4-1.8-5.5-3
		c-1.4-1.1-1.9-1.8-1.8-2.2c0-0.1,0.1-0.2,0.2-0.3c0.1,0,0.1,0,0.2,0c0,0,0.1,0,0.2,0c0.2,0,0.4,0,0.6,0.1c1.3,0.3,3.3,1.5,5,2.8
		c0.8,0.6,1.8,1.5,2.7,2.4c0.3,0.3,0.9,0.9,1.2,1.2C11.4,24.9,10.1,24.4,9.3,24.1z"/>
</g>
</svg>
