<?xml version="1.0" encoding="utf-8"?>
<!-- Generator: Adobe Illustrator 21.1.0, SVG Export Plug-In . SVG Version: 6.00 Build 0)  -->
<svg version="1.1" id="Layer_1" xmlns="http://www.w3.org/2000/svg" xmlns:xlink="http://www.w3.org/1999/xlink" x="0px" y="0px"
	 viewBox="0 0 44 44" style="enable-background:new 0 0 44 44;" xml:space="preserve">
<g>
	<path d="M22,2c11,0,20,9,20,20s-9,20-20,20S2,33,2,22S11,2,22,2 M22,0C9.8,0,0,9.8,0,22s9.8,22,22,22s22-9.8,22-22S34.2,0,22,0
		L22,0z"/>
	<path d="M23.3,17.5c0-0.8,0.3-1.5,1.5-1.5h1.5v-3h-2.5c-3,0-4,1-4,4v2h-2v3h2v9h3.5v-9h2.5l0.5-3h-3V17.5z"/>
</g>
</svg>
