<?xml version="1.0" encoding="utf-8"?>
<!-- Generator: Adobe Illustrator 21.1.0, SVG Export Plug-In . SVG Version: 6.00 Build 0)  -->
<svg version="1.1" id="Capa_1" xmlns="http://www.w3.org/2000/svg" xmlns:xlink="http://www.w3.org/1999/xlink" x="0px" y="0px"
	 viewBox="0 0 38 38" style="enable-background:new 0 0 38 38;" xml:space="preserve">
<path d="M13.4,35.1l-1.8-0.8l1.8-4.4l1.8,0.8L13.4,35.1z M24.6,35.1l-1.8-4.4l1.8-0.8l1.8,4.4L24.6,35.1z M3.7,26.4l-0.8-1.8
	l4.4-1.8l0.8,1.8L3.7,26.4z M34.3,26.4l-4.4-1.8l0.8-1.8l4.4,1.8L34.3,26.4z M30.7,15.3l-0.8-1.8l4.4-1.8l0.8,1.8L30.7,15.3z
	 M7.3,15.3l-4.4-1.8l0.8-1.8l4.4,1.8L7.3,15.3z M13.4,8.1l-1.8-4.4l1.8-0.8l1.8,4.4L13.4,8.1z M24.6,8.1l-1.8-0.8l1.8-4.4l1.8,0.8
	L24.6,8.1z M29.6,18.5C28.1,16.1,24.8,12,19,12c-6.4,0-9.8,5-10.7,6.5L8,19l0.3,0.5c0.2,0.3,0.5,0.8,0.9,1.4l0.8-1.4
	c0.1-0.1,0.2-0.3,0.3-0.5c0.7-1,1.9-2.7,4-3.8C14.1,15.8,14,16.4,14,17c0,2.8,2.2,5,5,5s5-2.2,5-5c0-0.6-0.1-1.2-0.3-1.7
	c1.8,1,3.1,2.5,3.9,3.7c-1.4,2.1-4.2,5-8.6,5c-3.4,0-5.8-1.7-7.3-3.3l-1,1.8c1.8,1.8,4.5,3.5,8.3,3.5c5.8,0,9.1-4.1,10.6-6.5L30,19
	L29.6,18.5z M19,20c-1.7,0-3-1.3-3-3s1.3-3,3-3s3,1.3,3,3S20.7,20,19,20z"/>
</svg>
