<?xml version="1.0" encoding="utf-8"?>
<!-- Generator: Adobe Illustrator 21.1.0, SVG Export Plug-In . SVG Version: 6.00 Build 0)  -->
<svg version="1.1" id="Layer_1" xmlns="http://www.w3.org/2000/svg" xmlns:xlink="http://www.w3.org/1999/xlink" x="0px" y="0px"
	 viewBox="0 0 38 38" style="enable-background:new 0 0 38 38;" xml:space="preserve">
<style type="text/css">
	.st0{fill:#231F20;}
</style>
<path class="st0" d="M24.4,21.1h-4v4h-2v-4h-4v-2h4v-4h2v4h4V21.1z M36.4,19.1h-2.1c-0.5-7.5-6.5-13.5-13.9-13.9V3.1h-2v2.1
	C10.9,5.6,5,11.6,4.5,19.1H2.4v2h2.1C5,28.6,10.9,34.5,18.4,35v2.1h2v-6h-2V33C12,32.5,6.9,27.5,6.5,21.1h1.9v-2H6.5
	C6.9,12.7,12,7.6,18.4,7.1v1.9h2V7.1c6.4,0.5,11.5,5.6,11.9,11.9h-1.9v2h2c-0.4,5.7-4.5,10.4-10,11.6v2.1c6.5-1.3,11.5-6.9,12-13.7
	h2V19.1z"/>
</svg>
