<?xml version="1.0" encoding="utf-8"?>
<!-- Generator: Adobe Illustrator 21.1.0, SVG Export Plug-In . SVG Version: 6.00 Build 0)  -->
<svg version="1.1" id="Layer_1" xmlns="http://www.w3.org/2000/svg" xmlns:xlink="http://www.w3.org/1999/xlink" x="0px" y="0px"
	 viewBox="0 0 38 38" style="enable-background:new 0 0 38 38;" xml:space="preserve">
<style type="text/css">
	.st0{fill:#231F20;}
</style>
<path class="st0" d="M30.4,12.5c0,5.7-9.7,23.7-10.1,24.5l-0.9,1.6L18.5,37c-0.4-0.7-9.1-16.9-10-23.5h2c0.8,4.7,6,15.3,8.9,20.9
	c3.1-6,9-18,9-21.9c0-5-4-9-9-9c-4.6,0-8.4,3.5-8.9,8h-2c0.5-5.6,5.2-10,10.9-10C25.5,1.5,30.4,6.5,30.4,12.5z M24.4,12.5
	c0,2.8-2.2,5-5,5s-5-2.2-5-5s2.2-5,5-5S24.4,9.8,24.4,12.5z M22.4,12.5c0-1.6-1.4-3-3-3s-3,1.4-3,3s1.4,3,3,3S22.4,14.2,22.4,12.5z"
	/>
</svg>
