<?xml version="1.0" encoding="utf-8"?>
<!-- Generator: Adobe Illustrator 21.1.0, SVG Export Plug-In . SVG Version: 6.00 Build 0)  -->
<svg version="1.1" id="圖層_1" xmlns="http://www.w3.org/2000/svg" xmlns:xlink="http://www.w3.org/1999/xlink" x="0px" y="0px"
	 viewBox="0 0 1440 900" style="enable-background:new 0 0 1440 900;" xml:space="preserve">
<style type="text/css">
	.st0{fill:#00C853;}
	.st1{fill:#BBBBBB;}
	.st2{fill:#999999;}
</style>
<rect x="783" y="562" class="st0" width="180" height="60"/>
<line class="st0" x1="754" y1="598" x2="757" y2="600"/>
<g>
	<path class="st0" d="M783,621.5c-16.3,0-29.5-13.2-29.5-29.5s13.2-29.5,29.5-29.5s29.5,13.2,29.5,29.5S799.3,621.5,783,621.5z"/>
	<path class="st1" d="M783,563c16,0,29,13,29,29s-13,29-29,29s-29-13-29-29S767,563,783,563 M783,562c-16.6,0-30,13.4-30,30
		s13.4,30,30,30s30-13.4,30-30S799.6,562,783,562L783,562z"/>
</g>
<g>
	<g>
		<path class="st2" d="M781.1,606c-6.7-0.5-12.2-5.5-13.5-11.9h-2c1.3,7.5,7.6,13.3,15.2,13.9C780.8,607.2,781,606.5,781.1,606z"/>
		<path class="st2" d="M767.3,591.1c0-8.3,6.7-15,15-15c7.4,0,13.6,5.4,14.8,12.5l1.2-1.2c0.2-0.2,0.3-0.3,0.5-0.4
			c-1.8-7.4-8.5-12.9-16.5-12.9c-9.4,0-17,7.6-17,17v1h2.1C767.3,591.7,767.3,591.4,767.3,591.1z"/>
	</g>
	<path class="st2" d="M785.8,599.8h-11.7c0.4-2.4,1.3-2.7,2.9-3.4c0.3-0.1,0.7-0.3,1.1-0.5c0.3-0.1,0.5-0.2,0.8-0.4
		c0.8-0.4,1.4-0.9,1.6-1.6c0.5,0.2,1.1,0.3,1.8,0.3c0.6,0,1.2-0.1,1.8-0.3c0.2,0.7,0.8,1.2,1.6,1.6c0.2,0.1,0.5,0.2,0.8,0.4
		c0.4,0.2,0.8,0.3,1.1,0.5c0.4,0.2,0.8,0.3,1.1,0.5l0.8-0.8c-0.4-0.3-0.9-0.5-1.5-0.7c-0.3-0.1-0.7-0.3-1.1-0.5
		c-0.2-0.1-0.3-0.2-0.5-0.2c-1.1-0.5-1.4-0.8-1.4-1.3c1.4-1,2.2-2.6,2.2-4.1V583l-0.7,0.1c-0.4,0.1-0.7,0.1-1,0.1
		c-0.8,0-1.3-0.1-1.9-0.3c-0.5-0.1-1.1-0.3-1.9-0.3c-0.9,0-1.6,0.4-2.1,1l0.9,0.7c0.3-0.4,0.7-0.6,1.2-0.6c0.7,0,1.1,0.1,1.7,0.2
		c0.6,0.1,1.2,0.3,2.1,0.3c0.2,0,0.3,0,0.5,0v5.1c0,1.9-1.4,3.9-3.9,3.9s-3.9-2-3.9-3.9v-5.9c0.1-0.4,0.9-2.4,3.4-2.4
		c0.9,0,1.5,0.2,2.1,0.3c0.5,0.1,1,0.2,1.6,0.2c0.6,0,1.2-0.1,1.6-0.3v-1.2c-0.4,0.1-1,0.4-1.6,0.4c-0.5,0-0.9-0.1-1.4-0.2
		c-0.7-0.2-1.4-0.3-2.4-0.3c-2.9,0-4.2,2.1-4.5,3.3l0,6.1c0,1.5,0.8,3.2,2.2,4.1c-0.1,0.5-0.3,0.8-1.4,1.3c-0.1,0.1-0.3,0.1-0.5,0.2
		c-0.4,0.2-0.7,0.3-1.1,0.5c-1.8,0.8-3.2,1.3-3.7,4.9l-0.1,0.6h11.9L785.8,599.8z"/>
	<path class="st2" d="M803.9,588.8c-1.1-1.1-3.1-1.1-4.2,0L785,603.4c-0.7,0.7-1.3,1.4-1.7,2.5c0,0-0.5,0.9-0.5,3v1h1
		c2.7,0,4.1-0.9,5.2-2l2-2l12.9-12.9c0.6-0.6,0.9-1.3,0.9-2.1C804.7,590.1,804.4,589.4,803.9,588.8z M802.4,591.6l-14.6,14.6
		c-0.8,0.8-1.7,1.4-3,1.6c0.2-1.3,0.8-2.2,1.6-3l14.6-14.6c0.4-0.4,1-0.4,1.4,0c0.2,0.2,0.3,0.4,0.3,0.7
		C802.7,591.2,802.6,591.4,802.4,591.6z"/>
</g>
</svg>
