<?xml version="1.0" encoding="utf-8"?>
<!-- Generator: Adobe Illustrator 21.1.0, SVG Export Plug-In . SVG Version: 6.00 Build 0)  -->
<svg version="1.1" id="圖層_1" xmlns="http://www.w3.org/2000/svg" xmlns:xlink="http://www.w3.org/1999/xlink" x="0px" y="0px"
	 viewBox="0 0 1440 900" style="enable-background:new 0 0 1440 900;" xml:space="preserve">
<style type="text/css">
	.st0{fill:#BBBBBB;}
	.st1{fill:#999999;}
</style>
<g>
	<g>
		<path class="st0" d="M720.5,422c16,0,29,13,29,29s-13,29-29,29s-29-13-29-29S704.5,422,720.5,422 M720.5,421
			c-16.6,0-30,13.4-30,30s13.4,30,30,30s30-13.4,30-30S737.1,421,720.5,421L720.5,421z"/>
	</g>
	<path class="st1" d="M737.9,449.3c0,7.6-7.8,13.8-17.4,13.8c-0.6,0-1.2,0-1.8-0.1l-5.6,5.6v-8.8c0.6,0.2,1.2,0.5,1.8,0.6v3.7
		l3.1-3.1c0.8,0.1,1.6,0.2,2.4,0.2c8.6,0,15.6-5.3,15.6-11.9c0-6.6-7-11.9-15.6-11.9s-15.6,5.3-15.6,11.9c0,3.9,2.5,7.4,6.4,9.6v2.1
		c-4.9-2.4-8.3-6.7-8.3-11.7c0-7.6,7.8-13.8,17.4-13.8C730.1,435.5,737.9,441.7,737.9,449.3z"/>
</g>
</svg>
