<?xml version="1.0" encoding="utf-8"?>
<!-- Generator: Adobe Illustrator 21.1.0, SVG Export Plug-In . SVG Version: 6.00 Build 0)  -->
<svg version="1.1" id="圖層_1" xmlns="http://www.w3.org/2000/svg" xmlns:xlink="http://www.w3.org/1999/xlink" x="0px" y="0px"
	 viewBox="0 0 1440 900" style="enable-background:new 0 0 1440 900;" xml:space="preserve">
<style type="text/css">
	.st0{fill:none;}
	.st1{fill:#BBBBBB;}
	.st2{fill:#999999;}
</style>
<circle class="st0" cx="799.2" cy="448" r="30"/>
<g>
	<g>
		<path class="st1" d="M799.2,419c16,0,29,13,29,29s-13,29-29,29s-29-13-29-29S783.2,419,799.2,419 M799.2,418
			c-16.6,0-30,13.4-30,30s13.4,30,30,30s30-13.4,30-30S815.7,418,799.2,418L799.2,418z"/>
	</g>
	<path class="st2" d="M805.6,435.6c-3.5,0-5.7,1.9-7.1,3.3l-0.7,0.7c0.2,0.2,0.5,0.4,0.7,0.7l0.7,0.7l0.7-0.7
		c1.9-1.9,3.6-2.7,5.7-2.7c3.9,0,6.6,2.9,6.6,7.1c0,6-4.8,10.1-12,16.3l-1,0.8l-1-0.8c-7.2-6.2-12-10.3-12-16.3
		c0-4.2,2.7-7.1,6.6-7.1c1.2,0,2.3,0.3,3.3,0.8l1-1c0.2-0.2,0.3-0.3,0.5-0.5c-1.5-0.9-3-1.4-4.8-1.4c-5,0-8.6,3.8-8.6,9.1
		c0,6.9,5.3,11.5,12.7,17.9l2.3,1.9l2.3-2c7.4-6.3,12.7-10.9,12.7-17.9C814.2,439.4,810.5,435.6,805.6,435.6z"/>
</g>
</svg>
