<?xml version="1.0" encoding="utf-8"?>
<!-- Generator: Adobe Illustrator 21.1.0, SVG Export Plug-In . SVG Version: 6.00 Build 0)  -->
<svg version="1.1" id="圖層_1" xmlns="http://www.w3.org/2000/svg" xmlns:xlink="http://www.w3.org/1999/xlink" x="0px" y="0px"
	 viewBox="0 0 1440 900" style="enable-background:new 0 0 1440 900;" xml:space="preserve">
<style type="text/css">
	.st0{fill:#999999;}
	.st1{fill:#BBBBBB;}
</style>
<g>
	<g>
		<circle class="st0" cx="723.4" cy="438.3" r="1.8"/>
		<circle class="st0" cx="730.2" cy="435.1" r="1.8"/>
		<circle class="st0" cx="736.6" cy="441.8" r="1.8"/>
	</g>
	<path class="st0" d="M728.4,430.7c-8.1,0-14.9,6.1-15.9,14c0.4,0.3,0.8,0.6,1.2,0.9c0.1,0.1,0.4,0.4,0.7,0.6
		c0.3-7.5,6.4-13.5,14-13.5c7.7,0,14,6.3,14,14c0,0.6-0.1,1.2-0.1,1.8c-2.7,1.5-5.2,1.3-7.7-0.8c0.1-0.3,0.1-0.7,0.1-1
		c0-3.5-2.8-6.3-6.3-6.3c-1.5,0-2.9,0.6-4,1.5c-2,0.3-3.8,1.4-5.3,3.1c-1.1,1.2-2.4,2-3.8,2.2c0.1,0.1,0.2,0.2,0.3,0.3
		c0.4,0.4,0.7,0.9,1.1,1.4c1.4-0.4,2.8-1.3,3.9-2.6c0.6-0.6,1.2-1.2,1.8-1.6c-0.2,0.6-0.3,1.3-0.3,2c0,3.5,2.8,6.3,6.3,6.3
		c2.4,0,4.5-1.3,5.5-3.3c1.6,1.2,3.3,1.8,5,1.8c0.9,0,1.9-0.2,2.8-0.5c-1.4,4.4-4.9,7.8-9.4,9.2l2.2,1.4c5.8-2.4,9.9-8.1,9.9-14.8
		C744.4,437.9,737.2,430.7,728.4,430.7z M728.4,451c-2.4,0-4.3-1.9-4.3-4.3s1.9-4.3,4.3-4.3s4.3,1.9,4.3,4.3S730.8,451,728.4,451z"
		/>
	<path class="st0" d="M733.7,463.3l-0.6-0.4l-1.1,1.7l0.6,0.4c1.1,0.7,1.4,2.1,0.7,3.2c-0.7,1.1-2.1,1.4-3.2,0.7l-8.2-5.2l2.5-3.9
		l5.9,3.7l1.1-1.7l-7.6-4.8l-1.7,2.7l-3.3-2.1c-1.4-3.3-3.4-6.8-5-8.7c-0.2-0.2-0.3-0.4-0.4-0.5c-0.1-0.2-0.8-0.8-1.2-1.1
		c-1-0.8-2.4-1.6-3.6-1.9c-0.7-0.2-1.1-0.2-1.7-0.2c-1.3,0-2.4,0.4-3.4,1.3c-1.1,0.9-2.1,2.5-2.5,3.8c-0.3,1-0.3,2.1,0,3.1
		c0.4,1.2,1.2,2.4,2.5,3.4c1.5,1.1,3,1.8,5.2,2.2c2.3,0.4,5.9,0.6,9.1,0.4c0,0,1.9,1.2,3.3,2.1l-1.8,2.9l9.9,6.2
		c2,1.3,4.7,0.7,5.9-1.4C736.3,467.3,735.7,464.6,733.7,463.3z M705.3,447.3c0.5-0.2,0.7-0.3,1.2-0.3c0.4,0,1,0,1.6,0.2
		c0.9,0.3,2,0.8,2.8,1.5c1.3,1,2.9,3.1,4.1,5.4c0.1,0.1,0.1,0.2,0.1,0.2c0,0-0.2-0.2-0.4-0.4c-1.3-1.3-2.7-2.5-3.9-3.3
		c-1.4-1-3.1-2.1-4.5-2.6c-0.4-0.2-0.6-0.2-1.2-0.4l-0.1,0L705.3,447.3z M712.4,457.8c-0.3,0-0.6,0-0.7,0c-2.4-0.2-3.9-0.5-5.3-1
		c-1.1-0.4-2.2-1.1-3-2c-0.4-0.5-0.7-0.8-0.9-1.3c-0.2-0.5-0.3-0.8-0.3-1.3l0-0.4l0.3,0.3c0.7,0.7,1.8,1.7,3.3,2.6
		c1.6,1,3.4,1.9,6.1,2.9l1,0.4L712.4,457.8z M715.3,456.9c-0.1,0-2.5-0.8-3.6-1.3c-2.8-1.1-4.7-2.1-6.4-3.4
		c-1.9-1.5-2.7-2.7-1.9-3.1c0.1-0.1,0.2-0.1,0.5-0.1c0.3,0,0.5,0,0.7,0.1c1.5,0.4,3.9,1.7,5.8,3.2c0.9,0.7,2.1,1.8,3.1,2.7
		c0.5,0.5,1.5,1.5,1.7,1.7C715.3,456.8,715.3,456.9,715.3,456.9z"/>
</g>
<g>
	<path class="st1" d="M722.5,422c16,0,29,13,29,29s-13,29-29,29s-29-13-29-29S706.5,422,722.5,422 M722.5,421c-16.6,0-30,13.4-30,30
		s13.4,30,30,30s30-13.4,30-30S739.1,421,722.5,421L722.5,421z"/>
</g>
</svg>
