<?xml version="1.0" encoding="utf-8"?>
<!-- Generator: Adobe Illustrator 21.1.0, SVG Export Plug-In . SVG Version: 6.00 Build 0)  -->
<svg version="1.1" id="圖層_1" xmlns="http://www.w3.org/2000/svg" xmlns:xlink="http://www.w3.org/1999/xlink" x="0px" y="0px"
	 viewBox="0 0 1440 900" style="enable-background:new 0 0 1440 900;" xml:space="preserve">
<style type="text/css">
	.st0{fill:#BBBBBB;}
	.st1{fill:#999999;}
	.st2{fill:#999999;stroke:#999999;stroke-width:0.5;stroke-miterlimit:10;}
</style>
<path class="st0" d="M862.5,566c16,0,29,13,29,29s-13,29-29,29s-29-13-29-29S846.5,566,862.5,566 M862.5,565c-16.6,0-30,13.4-30,30
	s13.4,30,30,30s30-13.4,30-30S879.1,565,862.5,565L862.5,565z"/>
<g>
	<g>
		<path class="st1" d="M860.6,609c-6.7-0.5-12.2-5.5-13.5-11.9h-2c1.3,7.5,7.6,13.3,15.2,13.9C860.3,610.2,860.5,609.5,860.6,609z"
			/>
		<path class="st1" d="M846.8,594.1c0-8.3,6.7-15,15-15c7.4,0,13.6,5.4,14.8,12.5l1.2-1.2c0.2-0.2,0.3-0.3,0.5-0.4
			c-1.8-7.4-8.5-12.9-16.5-12.9c-9.4,0-17,7.6-17,17v1h2.1C846.8,594.7,846.8,594.4,846.8,594.1z"/>
	</g>
	<path class="st2" d="M865.3,602.8h-11.7c0.4-2.4,1.3-2.7,2.9-3.4c0.3-0.1,0.7-0.3,1.1-0.5c0.3-0.1,0.5-0.2,0.8-0.4
		c0.8-0.4,1.4-0.9,1.6-1.6c0.5,0.2,1.1,0.3,1.8,0.3c0.6,0,1.2-0.1,1.8-0.3c0.2,0.7,0.8,1.2,1.6,1.6c0.2,0.1,0.5,0.2,0.8,0.4
		c0.4,0.2,0.8,0.3,1.1,0.5c0.4,0.2,0.8,0.3,1.1,0.5l0.8-0.8c-0.4-0.3-0.9-0.5-1.5-0.7c-0.3-0.1-0.7-0.3-1.1-0.5
		c-0.2-0.1-0.3-0.2-0.5-0.2c-1.1-0.5-1.4-0.8-1.4-1.3c1.4-1,2.2-2.6,2.2-4.1V586l-0.7,0.1c-0.4,0.1-0.7,0.1-1,0.1
		c-0.8,0-1.3-0.1-1.9-0.3c-0.5-0.1-1.1-0.3-1.9-0.3c-0.9,0-1.6,0.4-2.1,1l0.9,0.7c0.3-0.4,0.7-0.6,1.2-0.6c0.7,0,1.1,0.1,1.7,0.2
		c0.6,0.1,1.2,0.3,2.1,0.3c0.2,0,0.3,0,0.5,0v5.1c0,1.9-1.4,3.9-3.9,3.9s-3.9-2-3.9-3.9v-5.9c0.1-0.4,0.9-2.4,3.4-2.4
		c0.9,0,1.5,0.2,2.1,0.3c0.5,0.1,1,0.2,1.6,0.2c0.6,0,1.2-0.1,1.6-0.3v-1.2c-0.4,0.1-1,0.4-1.6,0.4c-0.5,0-0.9-0.1-1.4-0.2
		c-0.7-0.2-1.4-0.3-2.4-0.3c-2.9,0-4.2,2.1-4.5,3.3l0,6.1c0,1.5,0.8,3.2,2.2,4.1c-0.1,0.5-0.3,0.8-1.4,1.3c-0.1,0.1-0.3,0.1-0.5,0.2
		c-0.4,0.2-0.7,0.3-1.1,0.5c-1.8,0.8-3.2,1.3-3.7,4.9l-0.1,0.6h11.9L865.3,602.8z"/>
	<path class="st1" d="M883.4,591.8c-1.1-1.1-3.1-1.1-4.2,0l-14.6,14.6c-0.7,0.7-1.3,1.4-1.7,2.5c0,0-0.5,0.9-0.5,3v1h1
		c2.7,0,4.1-0.9,5.2-2l2-2l12.9-12.9c0.6-0.6,0.9-1.3,0.9-2.1C884.2,593.1,883.9,592.4,883.4,591.8z M882,594.6l-14.6,14.6
		c-0.8,0.8-1.7,1.4-3,1.6c0.2-1.3,0.8-2.2,1.6-3l14.6-14.6c0.4-0.4,1-0.4,1.4,0c0.2,0.2,0.3,0.4,0.3,0.7
		C882.2,594.2,882.1,594.4,882,594.6z"/>
</g>
</svg>
