<svg id="圖層_1" data-name="圖層 1" xmlns="http://www.w3.org/2000/svg" viewBox="0 0 210 60"><defs><style>.cls-1{fill:#00c853;}.cls-2{fill:#bbb;}.cls-3{fill:#999;}</style></defs><title>memedit3_3</title><rect class="cls-1" width="180" height="60"/><circle class="cls-1" cx="180" cy="30" r="30"/><path class="cls-2" d="M799.2,419a29,29,0,1,1-29,29,29,29,0,0,1,29-29m0-1a30,30,0,1,0,30,30,30,30,0,0,0-30-30Z" transform="translate(-619.2 -418)"/><path class="cls-3" d="M805.6,435.6a9.75,9.75,0,0,0-7.1,3.3l-.7.7a4.62,4.62,0,0,1,.7.7l.7.7.7-.7c1.9-1.9,3.6-2.7,5.7-2.7,3.9,0,6.6,2.9,6.6,7.1,0,6-4.8,10.1-12,16.3l-1,.8-1-.8c-7.2-6.2-12-10.3-12-16.3,0-4.2,2.7-7.1,6.6-7.1a7.31,7.31,0,0,1,3.3.8l1-1,.5-.5a9,9,0,0,0-4.8-1.4c-5,0-8.6,3.8-8.6,9.1,0,6.9,5.3,11.5,12.7,17.9l2.3,1.9,2.3-2c7.4-6.3,12.7-10.9,12.7-17.9A8.55,8.55,0,0,0,805.6,435.6Z" transform="translate(-619.2 -418)"/></svg>