<?xml version="1.0" encoding="utf-8"?>
<!-- Generator: Adobe Illustrator 21.1.0, SVG Export Plug-In . SVG Version: 6.00 Build 0)  -->
<svg version="1.1" id="圖層_1" xmlns="http://www.w3.org/2000/svg" xmlns:xlink="http://www.w3.org/1999/xlink" x="0px" y="0px"
	 viewBox="0 0 1440 900" style="enable-background:new 0 0 1440 900;" xml:space="preserve">
<style type="text/css">
	.st0{fill:#BBBBBB;}
	.st1{fill:#999999;}
</style>
<g>
	<path class="st0" d="M600,422c16,0,29,13,29,29s-13,29-29,29s-29-13-29-29S584,422,600,422 M600,421c-16.6,0-30,13.4-30,30
		s13.4,30,30,30s30-13.4,30-30S616.6,421,600,421L600,421z"/>
</g>
<path class="st1" d="M606.4,438.6c-3.5,0-5.7,1.9-7.1,3.3l-0.7,0.7c0.2,0.2,0.5,0.4,0.7,0.7l0.7,0.7l0.7-0.7
	c1.9-1.9,3.6-2.7,5.7-2.7c3.9,0,6.6,2.9,6.6,7.1c0,6-4.8,10.1-12,16.3l-1,0.8l-1-0.8c-7.2-6.2-12-10.3-12-16.3
	c0-4.2,2.7-7.1,6.6-7.1c1.2,0,2.3,0.3,3.3,0.8l1-1c0.2-0.2,0.3-0.3,0.5-0.5c-1.5-0.9-3-1.4-4.8-1.4c-5,0-8.6,3.8-8.6,9.1
	c0,6.9,5.3,11.5,12.7,17.9l2.3,1.9l2.3-1.9c7.4-6.3,12.7-10.9,12.7-17.9C615,442.4,611.4,438.6,606.4,438.6z"/>
</svg>
