<?xml version="1.0" encoding="utf-8"?>
<!-- Generator: Adobe Illustrator 21.1.0, SVG Export Plug-In . SVG Version: 6.00 Build 0)  -->
<svg version="1.1" id="圖層_1" xmlns="http://www.w3.org/2000/svg" xmlns:xlink="http://www.w3.org/1999/xlink" x="0px" y="0px"
	 viewBox="0 0 1440 900" style="enable-background:new 0 0 1440 900;" xml:space="preserve">
<style type="text/css">
	.st0{fill:#4289FF;}
	.st1{font-family:'NotoSansCJKtc-Regular-B5pc-H';}
	.st2{font-size:36px;}
	.st3{opacity:0.7;}
	.st4{fill:none;stroke:#4289FF;stroke-width:3;stroke-miterlimit:10;}
	.st5{fill:none;stroke:#4289FF;stroke-width:2;stroke-miterlimit:10;}
	.st6{fill:none;stroke:#4289FF;stroke-miterlimit:10;}
</style>
<g>
	<text transform="matrix(1 0 0 1 620.9993 464.6347)" class="st0 st1 st2">編輯麵包店</text>
	<g class="st3">
		<g>
			<line class="st4" x1="575.5" y1="451.3" x2="555.5" y2="451.3"/>
			<line class="st5" x1="578.2" y1="442.6" x2="562.2" y2="436.6"/>
			<line class="st6" x1="584.8" y1="434.9" x2="575.5" y2="427.9"/>
			<line class="st5" x1="576.9" y1="461.9" x2="560.9" y2="467.9"/>
			<line class="st6" x1="583.5" y1="469.6" x2="574.2" y2="476.6"/>
		</g>
		<g>
			<line class="st4" x1="866.7" y1="451.3" x2="886.7" y2="451.3"/>
			<line class="st5" x1="864" y1="442.6" x2="880" y2="436.6"/>
			<line class="st6" x1="857.3" y1="434.9" x2="866.7" y2="427.9"/>
			<line class="st5" x1="865.3" y1="461.9" x2="881.3" y2="467.9"/>
			<line class="st6" x1="858.6" y1="469.6" x2="868" y2="476.6"/>
		</g>
	</g>
	<path class="st0" d="M674.2,477.5c-25,19.5-63.3,12.5-79.2-12.9c0.8,0.8,1.8,1.5,2.5,2.4c11.2,13.1,25.3,20.1,42.6,19.9
		c11.2-0.1,21.2-4.3,30.5-10.2C672.6,475.4,672.6,475.4,674.2,477.5z"/>
	<g>
		<path class="st0" d="M802.2,417.3c-19.7-3.6-40.4-0.8-45.4,6c0.2,0.1,0.4,0.2,0.6,0.2c0.9-0.3,1.7-0.6,2.6-1
			c9.6-4.9,19.9-6.1,30.5-5.5c3,0.2,6.1,1,8.7,2.4C801.9,420.7,801.7,419.2,802.2,417.3z"/>
		<path class="st0" d="M826.8,427.6c-0.9,0.3-2.3,1.2-2.3,1.9c-0.1,1,0.7,2.4,1.5,3c0.9,0.7,2.3,0.9,3.4,0.9c2.6,0.1,5.1,0,8,0
			C835.5,429.2,830.7,426.6,826.8,427.6z"/>
		<path class="st0" d="M830.3,436.1c-0.8,1.7,1.3,4.2,4.3,5c2.4,0.6,4.9,1,7.5,1.5c-0.9-3-2.2-5.8-5.4-7.2
			C834.4,434.2,830.9,434.7,830.3,436.1z"/>
		<path class="st0" d="M817,424.7c4.4,5.1,9.4,0.5,14.5,1.5C826.5,421,819.9,420.3,817,424.7z"/>
		<path class="st0" d="M822.9,432c-0.7-0.2-2.1,0.7-2.6,1.5c-1.8,2.7-0.2,8.2,2.8,9.9c0.5-1.2,1-2.4,1.4-3.7
			c0.5-1.7,1.2-3.5,1.1-5.2C825.4,433.6,823.9,432.3,822.9,432z"/>
		<path class="st0" d="M840.6,443.9c-1.7-1.2-3.7-2.1-5.2-0.1c-1.4,1.9,0.2,3.5,1.6,4.7c0.8,0.7,2,1.1,3,1.6c1.3,0.6,2.7,1,4.1,1.5
			C844.4,448.3,843.1,445.8,840.6,443.9z"/>
		<path class="st0" d="M828.3,438c-1.1,1-2.7,1.8-3.1,3c-1.1,3.1-0.4,6,2.3,8.9c1.2-2.8,2.7-5.2,3.2-7.8
			C830.9,440.9,829.2,439.3,828.3,438z"/>
		<path class="st0" d="M812.8,418.1c-1,0.4-1.7,1.7-2.5,2.6c1.1,0.6,2.2,1.8,3.2,1.7c3.3-0.4,6.5-1.3,10.3-2.1
			C820.1,417.8,816.6,416.8,812.8,418.1z"/>
		<path class="st0" d="M817.3,427.1c-0.6-0.2-2,0.1-2.4,0.7c-1.5,2.6-1.1,8.7,3.2,10.1c0.3-3,0.8-5.8,0.9-8.7
			C819.1,428.5,818.1,427.4,817.3,427.1z"/>
		<path class="st0" d="M809.5,422.8c-0.6,1-1.5,1.9-1.7,3c-0.5,3.3,1.2,5.6,5,7.9c0-3.3,0.3-5.9-0.1-8.3
			C812.5,424.3,810.6,423.6,809.5,422.8z"/>
		<path class="st0" d="M834.8,449.4c-0.2-1.4-1.2-2.7-1.9-4c-1.1,0.9-2.9,1.7-3.3,2.9c-0.9,2.6-0.5,5.3,1.8,7.4c0.8-1.1,1.5-2,2-2.9
			C833.9,451.6,834.9,450.4,834.8,449.4z"/>
		<path class="st0" d="M803.1,420.1c-0.9,0.3-1.9,2.2-1.7,3.2c0.3,3,2.1,5.1,5.1,6.3c0-2.4,0.2-4.7-0.1-6.9
			C806.2,420.9,805,419.5,803.1,420.1z"/>
		<path class="st0" d="M814.9,415.1c-2.8,0-5.7-0.3-8.4,0.1c-1.1,0.2-2,1.8-3,2.8c1.4,0.5,3,1.5,4.2,1.2c2.5-0.6,4.9-2,7.3-3.1
			C814.9,415.7,814.9,415.4,814.9,415.1z"/>
		<path class="st0" d="M838.3,452.5c0.4,1.5,0.7,3.2,1.7,4.3c1.1,1.3,2.9,2.1,5.2,3.7c-0.6-2.7-0.7-4.7-1.6-6.3
			C843,452.9,838.2,452.2,838.3,452.5z"/>
		<path class="st0" d="M835.7,452.7c-0.9,1-2.5,1.9-2.7,3c-0.2,1.8,1.5,5.6,1.8,5.6c0.9-1.6,2.3-3,2.6-4.7
			C837.7,455.5,836.4,454.1,835.7,452.7z"/>
		<path class="st0" d="M838.9,458.3c-0.5,0.9-1.6,1.8-1.5,2.5c0.3,1.9,2.8,5.5,3.3,5.5c0.3-2,0.8-4,0.8-6
			C841.4,459.6,839.8,458.9,838.9,458.3z"/>
	</g>
	<g>
		<path class="st0" d="M770.2,404.9c-10.9,6.2-19.8,15.8-19.4,21.1c0.1,0,0.3-0.1,0.3-0.1c0.3-0.5,0.6-1,0.8-1.5
			c2.6-6.2,7.1-10.9,12.5-14.9c1.5-1.1,3.3-1.9,5.2-2.3C771.4,406.6,770.7,406,770.2,404.9z"/>
		<path class="st0" d="M786.1,400c-0.3,0.5-0.6,1.5-0.4,1.9c0.4,0.5,1.3,0.9,1.9,0.8c0.7,0,1.4-0.5,2-0.9c1.3-1,2.5-2,3.8-3.2
			C790.9,397.3,787.6,397.9,786.1,400z"/>
		<path class="st0" d="M791.2,402.6c0.3,1.1,2.3,1.5,4.1,0.7c1.4-0.7,2.8-1.5,4.2-2.3c-1.6-1.1-3.4-1.9-5.5-1.3
			C792.4,400.1,790.9,401.7,791.2,402.6z"/>
		<path class="st0" d="M780.2,402.5c4.2,0.7,4.7-3.5,7.6-5.1C783.3,396.9,779.9,399.2,780.2,402.5z"/>
		<path class="st0" d="M786,403.7c-0.4,0.2-0.7,1.2-0.7,1.8c0.2,2.1,3.2,4,5.3,3.6c-0.3-0.8-0.5-1.6-0.8-2.3c-0.4-1-0.8-2.1-1.6-2.9
			C787.8,403.4,786.6,403.4,786,403.7z"/>
		<path class="st0" d="M799.3,402.3c-1.3,0.1-2.6,0.5-2.5,2c0.1,1.5,1.5,1.6,2.7,1.6c0.7,0,1.4-0.2,2.1-0.4c0.9-0.3,1.7-0.6,2.6-0.9
			C802.9,402.9,801.2,402.2,799.3,402.3z"/>
		<path class="st0" d="M791,404.4c-0.1,0.9-0.6,1.9-0.3,2.7c0.7,1.9,2.2,3,4.7,3.3c-0.5-1.9-0.8-3.6-1.6-5.1
			C793.4,404.7,792,404.7,791,404.4z"/>
		<path class="st0" d="M775.6,401c-0.3,0.6-0.1,1.5-0.2,2.3c0.7-0.1,1.8,0,2.2-0.5c1.4-1.5,2.6-3.2,4.1-5.1
			C778.9,398,776.9,398.8,775.6,401z"/>
		<path class="st0" d="M781.3,403.5c-0.4,0.1-0.9,0.9-0.9,1.3c0.3,1.9,3,4.6,5.6,3.5c-1-1.6-1.9-3.1-3-4.5
			C782.8,403.5,781.8,403.4,781.3,403.5z"/>
		<path class="st0" d="M775.9,404.5c0.1,0.7,0,1.6,0.4,2.1c1.1,1.8,2.8,2.2,5.6,1.8c-1.3-1.6-2.2-3-3.4-3.9
			C777.9,404.1,776.8,404.5,775.9,404.5z"/>
		<path class="st0" d="M798.7,407.2c-0.6-0.6-1.7-0.8-2.5-1.2c-0.2,0.9-0.7,2-0.4,2.7c0.6,1.6,1.9,2.7,3.8,2.8
			c-0.1-0.8-0.1-1.5-0.2-2.2C799.2,408.6,799.1,407.7,798.7,407.2z"/>
		<path class="st0" d="M771.7,405.9c-0.3,0.5,0,1.8,0.4,2.2c1.3,1.3,3,1.6,5,1c-1-1.2-1.8-2.3-2.8-3.3
			C773.5,405,772.4,404.8,771.7,405.9z"/>
		<path class="st0" d="M775.4,398.7c-1.4,1.1-2.9,2.1-4,3.4c-0.5,0.5-0.3,1.7-0.4,2.5c0.9-0.3,2-0.4,2.5-1.1c1-1.3,1.5-2.9,2.3-4.4
			C775.6,399,775.5,398.9,775.4,398.7z"/>
		<path class="st0" d="M801.6,407.3c0.8,0.6,1.6,1.2,2.6,1.4c1.1,0.2,2.2-0.2,4-0.3c-1.4-1.1-2.2-2-3.3-2.4
			C804,405.7,801.5,407.2,801.6,407.3z"/>
		<path class="st0" d="M800.5,408.5c-0.1,0.9-0.4,1.9-0.1,2.5c0.6,0.9,2.9,2.1,3.1,2c-0.2-1.1-0.1-2.4-0.6-3.3
			C802.5,409,801.3,408.9,800.5,408.5z"/>
		<path class="st0" d="M804.2,409.9c0.1,0.6-0.1,1.5,0.3,1.8c0.9,0.8,3.6,1.5,3.8,1.3c-0.7-1.1-1.2-2.3-2.1-3.2
			C805.9,409.5,804.9,409.8,804.2,409.9z"/>
	</g>
</g>
</svg>
