<?xml version="1.0" encoding="utf-8"?>
<!-- Generator: Adobe Illustrator 21.1.0, SVG Export Plug-In . SVG Version: 6.00 Build 0)  -->
<svg version="1.1" id="Layer_1" xmlns="http://www.w3.org/2000/svg" xmlns:xlink="http://www.w3.org/1999/xlink" x="0px" y="0px"
	 viewBox="0 0 38 38" style="enable-background:new 0 0 38 38;" xml:space="preserve">
<style type="text/css">
	.st0{fill:#231F20;}
</style>
<path class="st0" d="M33.4,33.2c-0.6-0.4-1.1-3.7-1.4-5.8c-0.9-5.9-2.2-15.3-9.1-17.6c0.9-0.9,1.5-2.2,1.5-3.5c0-2.8-2.2-5-5-5
	s-5,2.2-5,5c0,1.4,0.6,2.6,1.5,3.5C9,12.1,7.6,21.5,6.8,27.4c-0.2,1.2-0.4,2.7-0.6,3.8h2c0.2-1,0.4-2.1,0.6-3.6
	c1-6.9,2.4-16.4,10.6-16.4S29,20.7,30,27.6c0.4,2.6,0.7,4.4,1.1,5.6H2.4v2h12.1c0.5,2.3,2.5,4,4.9,4c2.4,0,4.4-1.7,4.9-4h12.1v-2
	H33.4z M19.4,9.2c-1.7,0-3-1.3-3-3s1.3-3,3-3s3,1.3,3,3S21.1,9.2,19.4,9.2z M19.4,37.2c-1.3,0-2.4-0.8-2.8-2h5.7
	C21.8,36.4,20.7,37.2,19.4,37.2z"/>
</svg>
