<?xml version="1.0" encoding="utf-8"?>
<!-- Generator: Adobe Illustrator 21.1.0, SVG Export Plug-In . SVG Version: 6.00 Build 0)  -->
<svg version="1.1" id="Layer_1" xmlns="http://www.w3.org/2000/svg" xmlns:xlink="http://www.w3.org/1999/xlink" x="0px" y="0px"
	 viewBox="0 0 38 38" style="enable-background:new 0 0 38 38;" xml:space="preserve">
<style type="text/css">
	.st0{fill:#231F20;}
</style>
<g>
	<g>
		<path class="st0" d="M32.8,14.3c0.8,1.8,1.2,3.8,1.2,5.9c0,8.3-6.7,15-15,15c-3.1,0-5.9-0.9-8.3-2.5l-1.4,1.4
			c2.8,1.9,6.1,3.1,9.7,3.1c9.4,0,17-7.6,17-17c0-2.7-0.7-5.3-1.8-7.6L32.8,14.3z"/>
		<path class="st0" d="M4,20.2c0-8.3,6.7-15,15-15c2.5,0,4.9,0.6,6.9,1.7l1.3-1.6C24.8,4,22,3.2,19,3.2c-9.4,0-17,7.6-17,17
			c0,5.1,2.2,9.6,5.7,12.7l1.4-1.4C6,28.7,4,24.7,4,20.2z"/>
	</g>
	<polygon class="st0" points="35.3,4.8 33.7,3.6 18.4,22.7 13.2,17.5 11.8,18.9 18.6,25.7 	"/>
</g>
</svg>
