<?xml version="1.0" encoding="utf-8"?>
<!-- Generator: Adobe Illustrator 21.1.0, SVG Export Plug-In . SVG Version: 6.00 Build 0)  -->
<svg version="1.1" id="圖層_1" xmlns="http://www.w3.org/2000/svg" xmlns:xlink="http://www.w3.org/1999/xlink" x="0px" y="0px"
	 viewBox="0 0 50 50" style="enable-background:new 0 0 50 50;" xml:space="preserve">
<path d="M32.2,24L32.2,24c-2.4-2.1-5.7-3.3-9.1-3.1v-3.3c0-0.3-0.2-0.5-0.4-0.6c-0.3-0.1-0.6-0.1-0.8,0.1l-7.5,7.2
	c-0.1,0.1-0.2,0.3-0.2,0.5s0.1,0.4,0.2,0.5l7.5,7.2c0.2,0.2,0.5,0.2,0.8,0.1c0.3-0.1,0.4-0.4,0.4-0.6v-3.5c2.8-0.2,5.3,0.1,7.2,0.8
	l0.1,0v-1.5l-0.1,0c-2.2-0.8-4.9-1-8.1-0.7c-0.4,0-0.6,0.3-0.6,0.7v2.5l-5.8-5.5l5.8-5.5v2.4c0,0.2,0.1,0.4,0.2,0.5
	c0.1,0.1,0.3,0.2,0.5,0.2c3.3-0.3,6.5,0.6,8.8,2.7c1.5,1.3,2.4,3,2.9,4.9c-0.6-0.5-1.3-1-2.1-1.4l-0.1-0.1v1.6l0,0
	c1.9,1.2,2.5,2.5,2.5,2.6c0.1,0.3,0.4,0.4,0.7,0.4c0,0,0.1,0,0.1,0c0.3-0.1,0.6-0.4,0.6-0.7C35.8,29.1,34.5,26.1,32.2,24z"/>
</svg>
