<?xml version="1.0" encoding="utf-8"?>
<!-- Generator: Adobe Illustrator 21.1.0, SVG Export Plug-In . SVG Version: 6.00 Build 0)  -->
<svg version="1.1" id="Layer_1" xmlns="http://www.w3.org/2000/svg" xmlns:xlink="http://www.w3.org/1999/xlink" x="0px" y="0px"
	 viewBox="0 0 38 38" style="enable-background:new 0 0 38 38;" xml:space="preserve">
<path d="M31,19.3c-3.9-3.5-9.3-5.3-14.8-5V8.7c0-0.4-0.2-0.8-0.6-0.9c-0.4-0.2-0.8-0.1-1.1,0.2L2.2,19.7c-0.2,0.2-0.3,0.5-0.3,0.7
	s0.1,0.5,0.3,0.7l12.3,11.7c0.3,0.3,0.7,0.4,1.1,0.2c0.4-0.2,0.6-0.5,0.6-0.9v-5.9c5.3-0.4,9.2,0.3,12,1.4v-2.1
	c-3.2-1.1-7.4-1.7-13.1-1.2c-0.5,0-0.9,0.5-0.9,1v4.5l-9.8-9.4l9.8-9.4v4.3c0,0.3,0.1,0.6,0.3,0.7c0.2,0.2,0.5,0.3,0.8,0.3
	c5.4-0.6,10.7,1,14.4,4.4c2.5,2.3,4.2,5.2,4.9,8.5c-0.9-0.9-2.1-1.8-3.7-2.6v2.3c3.1,1.9,4.1,4.1,4.1,4.3c0.2,0.4,0.5,0.6,0.9,0.6
	c0.1,0,0.1,0,0.2,0c0.5-0.1,0.8-0.5,0.8-1C36.9,27.5,34.8,22.7,31,19.3z"/>
</svg>
