<?xml version="1.0" encoding="utf-8"?>
<!-- Generator: Adobe Illustrator 21.1.0, SVG Export Plug-In . SVG Version: 6.00 Build 0)  -->
<svg version="1.1" id="Layer_1" xmlns="http://www.w3.org/2000/svg" xmlns:xlink="http://www.w3.org/1999/xlink" x="0px" y="0px"
	 viewBox="0 0 38 38" style="enable-background:new 0 0 38 38;" xml:space="preserve">
<g>
	<g>
		<rect x="6" y="3.8" width="2" height="31.9"/>
	</g>
	<path d="M26.4,11.9l6.1-6.2c0.3-0.3,0.4-0.7,0.2-1.1S32.2,4,31.8,4H14.1v2h15.3l-5.1,5.2c-0.4,0.4-0.4,1,0,1.4l5.1,5.2H8V6h3.4V4H7
		C6.5,4,6,4.5,6,5v13.8c0,0.6,0.4,1,1,1h24.8c0.4,0,0.8-0.2,0.9-0.6s0.1-0.8-0.2-1.1L26.4,11.9z"/>
</g>
</svg>
