<?xml version="1.0" encoding="utf-8"?>
<!-- Generator: Adobe Illustrator 21.1.0, SVG Export Plug-In . SVG Version: 6.00 Build 0)  -->
<svg version="1.1" id="Layer_1" xmlns="http://www.w3.org/2000/svg" xmlns:xlink="http://www.w3.org/1999/xlink" x="0px" y="0px"
	 viewBox="0 0 38 38" style="enable-background:new 0 0 38 38;" xml:space="preserve">
<style type="text/css">
	.st0{fill:#231F20;}
</style>
<path class="st0" d="M37.4,36.7L36,38.1L24.9,26.9c2.8-2.4,4.6-5.9,4.6-9.9c0-7.2-5.8-13-13-13s-13,5.8-13,13s5.8,13,13,13
	c2.5,0,4.8-0.7,6.8-1.9l1.4,1.4c-2.4,1.6-5.2,2.5-8.2,2.5c-8.3,0-15-6.7-15-15s6.7-15,15-15s15,6.7,15,15c0,3.8-1.4,7.2-3.7,9.9
	L37.4,36.7z"/>
</svg>
