<?xml version="1.0" encoding="utf-8"?>
<!-- Generator: Adobe Illustrator 21.1.0, SVG Export Plug-In . SVG Version: 6.00 Build 0)  -->
<svg version="1.1" id="Layer_1" xmlns="http://www.w3.org/2000/svg" xmlns:xlink="http://www.w3.org/1999/xlink" x="0px" y="0px"
	 viewBox="0 0 44 44" style="enable-background:new 0 0 44 44;" xml:space="preserve">
<g>
	<path d="M22,2c11,0,20,9,20,20s-9,20-20,20S2,33,2,22S11,2,22,2 M22,0C9.8,0,0,9.8,0,22s9.8,22,22,22s22-9.8,22-22S34.2,0,22,0
		L22,0z"/>
	<path d="M22,8.4c-6.5,0-10.7,4.5-10.7,11.5v4.9c0,1.9,0.5,3.3,1.4,4.1c0.3,4.6,4.3,6.7,7.9,6.7H23l0-1.9h-2.3c-2.3,0-5.1-1-5.8-3.8
		c0.6,0.1,1.2,0.1,1.6,0.1h1v-8.9h-3.3v1.9h1.4V28c-1.5-0.1-2.3-0.8-2.3-3.2v-4.9c0-5.9,3.4-9.6,8.8-9.6s8.9,3.7,8.9,9.6v1.1h-4.2
		v8.9h1c3.3,0,5.1-1.8,5.1-5.2v-4.9C32.7,12.9,28.5,8.4,22,8.4z M28.6,28v-5h2.3v1.8C30.9,26.7,30.1,27.7,28.6,28z"/>
</g>
</svg>
