<?xml version="1.0" encoding="utf-8"?>
<!-- Generator: Adobe Illustrator 21.1.0, SVG Export Plug-In . SVG Version: 6.00 Build 0)  -->
<svg version="1.1" id="Layer_1" xmlns="http://www.w3.org/2000/svg" xmlns:xlink="http://www.w3.org/1999/xlink" x="0px" y="0px"
	 viewBox="0 0 38 38" style="enable-background:new 0 0 38 38;" xml:space="preserve">
<style type="text/css">
	.st0{fill:#231F20;stroke:#000000;stroke-width:0.5;stroke-miterlimit:10;}
	.st1{fill:#231F20;}
</style>
<g>
	<path class="st0" d="M28.4,28.2c-0.5-3.6-1.8-4.1-3.7-4.9c-0.3-0.1-0.7-0.3-1.1-0.5c-0.2-0.1-0.3-0.2-0.5-0.2
		c-1.1-0.5-1.4-0.8-1.4-1.3c1.4-1,2.2-2.6,2.2-4.1v-6.4L23.3,11c-0.4,0.1-0.7,0.1-1,0.1c-0.8,0-1.3-0.1-1.9-0.3
		c-0.5-0.1-1.1-0.3-1.9-0.3c-0.9,0-1.6,0.4-2.1,1.1l0.9,0.7c0.3-0.4,0.7-0.6,1.2-0.6c0.7,0,1.1,0.1,1.7,0.2c0.6,0.1,1.2,0.3,2.1,0.3
		c0.2,0,0.3,0,0.5,0v5.1c0,1.9-1.4,3.9-3.9,3.9c-2.4,0-3.9-2-3.9-3.9v-5.9C15.3,11,16,9,18.6,9c0.9,0,1.5,0.2,2.1,0.3
		c0.5,0.1,1,0.2,1.6,0.2c0.6,0,1.2-0.1,1.6-0.3V8.1c-0.4,0.1-1,0.4-1.6,0.4c-0.5,0-0.9-0.1-1.4-0.2c-0.7-0.2-1.4-0.3-2.4-0.3
		c-2.9,0-4.2,2.1-4.5,3.3l0,6.1c0,1.5,0.8,3.2,2.2,4.1c-0.1,0.5-0.3,0.8-1.4,1.3c-0.1,0.1-0.3,0.1-0.5,0.2c-0.4,0.2-0.7,0.3-1.1,0.5
		c-1.8,0.8-3.2,1.3-3.7,4.9l-0.1,0.6h19L28.4,28.2z M10.8,27.8c0.4-2.4,1.3-2.7,2.9-3.4c0.3-0.1,0.7-0.3,1.1-0.5
		c0.3-0.1,0.5-0.2,0.8-0.4c0.8-0.4,1.4-0.9,1.6-1.6c0.5,0.2,1.1,0.3,1.8,0.3c0.6,0,1.2-0.1,1.8-0.3c0.2,0.7,0.8,1.2,1.6,1.6
		c0.2,0.1,0.5,0.2,0.8,0.4c0.4,0.2,0.8,0.3,1.1,0.5c1.6,0.7,2.4,1,2.9,3.4H10.8z"/>
	<path class="st1" d="M36,19c0,9.4-7.6,17-17,17c-8.3,0-15.3-6-16.7-14h2c1.4,6.8,7.4,12,14.7,12c8.3,0,15-6.7,15-15S27.3,4,19,4
		S4,10.7,4,19c0,0.3,0,0.7,0.1,1H2v-1C2,9.6,9.6,2,19,2S36,9.6,36,19z"/>
</g>
</svg>
