<?xml version="1.0" encoding="utf-8"?>
<!-- Generator: Adobe Illustrator 21.1.0, SVG Export Plug-In . SVG Version: 6.00 Build 0)  -->
<svg version="1.1" id="圖層_1" xmlns="http://www.w3.org/2000/svg" xmlns:xlink="http://www.w3.org/1999/xlink" x="0px" y="0px"
	 viewBox="0 0 18 18" style="enable-background:new 0 0 18 18;" xml:space="preserve">
<style type="text/css">
	.st0{fill:#F06428;}
</style>
<path class="st0" d="M17,7.2c-0.1-0.2-0.2-0.3-0.4-0.3h-5.4L9.4,1.7C9.4,1.5,9.2,1.4,9,1.4c-0.2,0-0.4,0.1-0.4,0.3L6.9,6.8H1.5
	C1.3,6.8,1.1,7,1,7.2C1,7.4,1,7.6,1.2,7.7l4.4,3.2L3.9,16c-0.1,0.2,0,0.4,0.2,0.5c0.1,0.1,0.2,0.1,0.3,0.1s0.2,0,0.3-0.1L9,13.4
	l4.4,3.2c0.2,0.1,0.4,0.1,0.6,0c0.2-0.1,0.2-0.3,0.2-0.5l-1.7-5.1l4.4-3.2C17,7.6,17,7.4,17,7.2z"/>
</svg>
