<?xml version="1.0" encoding="utf-8"?>
<!-- Generator: Adobe Illustrator 21.1.0, SVG Export Plug-In . SVG Version: 6.00 Build 0)  -->
<svg version="1.1" id="Layer_1" xmlns="http://www.w3.org/2000/svg" xmlns:xlink="http://www.w3.org/1999/xlink" x="0px" y="0px"
	 viewBox="0 0 38 38" style="enable-background:new 0 0 38 38;" xml:space="preserve">
<style type="text/css">
	.st0{fill:#231F20;}
</style>
<path class="st0" d="M36.4,19.9c0,9.4-7.6,17-17,17c-8.3,0-15.3-6-16.7-14h2c1.4,6.8,7.4,12,14.7,12c8.3,0,15-6.7,15-15
	s-6.7-15-15-15s-15,6.7-15,15c0,0.3,0,0.7,0.1,1H2.4v-1c0-9.4,7.6-17,17-17S36.4,10.5,36.4,19.9z M12.4,18.9v2h14v-2H12.4z"/>
</svg>
