<?xml version="1.0" encoding="utf-8"?>
<!-- Generator: Adobe Illustrator 21.1.0, SVG Export Plug-In . SVG Version: 6.00 Build 0)  -->
<svg version="1.1" id="Layer_1" xmlns="http://www.w3.org/2000/svg" xmlns:xlink="http://www.w3.org/1999/xlink" x="0px" y="0px"
	 viewBox="0 0 180 100" style="enable-background:new 0 0 180 100;" xml:space="preserve">
<style type="text/css">
	.st0{fill:#8C6239;}
</style>
<g>
	
		<image style="overflow:visible;opacity:0.15;" width="185" height="101" xlink:href="14A47854.png"  transform="matrix(1 0 0 1 -3 1)">
	</image>
	<g>
		<g>
			<path class="st0" d="M20,39.2c0.6,1.8,0.4,3.5-0.5,5.1c-0.9,1.7-2.2,2.9-4,3.4h-0.1v2.9c0,1.9-0.7,3.5-2,4.9c-1.3,1.3-3,2-4.9,2
				v-7.6L4,51.3c-0.6-1.8-0.4-3.5,0.5-5.2c0.9-1.7,2.2-2.8,4-3.3h0.1v-7H3.4c0-3.6,1.7-5.8,5.2-6.7v-0.6c0-1.8,0.7-3.5,2-4.9
				c1.3-1.3,3-2,4.9-2v7.2h5.1c0,3.6-1.7,5.8-5.1,6.7v5L20,39.2z M50.8,43.2c-0.1,4.4-0.7,7.7-1.6,9.9c-1.3,2.9-3.4,4.6-6.2,5.1
				c-2.2,0.4-4.3-0.1-6.1-1.3c-2.2-1.5-4-4-5.6-7.7l-2.4,1.3c-1.7,0.9-3.4,1-5.2,0.5c-1.8-0.6-3.2-1.7-4-3.3l9.2-5
				c-0.9-3.6-1.4-5.7-1.5-6.3l-6.6,1c-0.3-1.8,0.1-3.4,1.1-5c1.1-1.5,2.5-2.4,4.3-2.8l-0.4-3c-0.3-1.8,0.2-3.5,1.3-5
				s2.7-2.4,4.6-2.7l1.2,9.6l13.5-1.9c0.3,1.8-0.1,3.5-1.2,5c-1.1,1.6-2.6,2.5-4.5,2.8l-6.6,1c0-0.2,0.3,1.1,0.9,3.9l3.1-1.7
				c1.7-0.9,3.4-1,5.2-0.5c1.8,0.6,3.1,1.7,4,3.3L37.4,46c1.1,2.8,2.3,4.6,3.4,5.3c1,0.6,1.7,0.2,2.2-1.3
				C44.4,45.1,47,42.9,50.8,43.2z M45.7,25.1c-1.6,1-3.3,1.2-5.1,0.7c-1.8-0.4-3.2-1.5-4.2-3.1l-2-3.4c1.7-1,3.4-1.2,5.1-0.8
				c1.8,0.5,3.2,1.6,4.2,3.1L45.7,25.1z"/>
			<g>
				<path class="st0" d="M97.7,35.4l-0.6,2.4h11.7v9.8c0,1.9-0.7,3.5-2,4.9c-1.4,1.3-3,2-4.9,2h-7c0-1.9,0.7-3.5,2.1-4.9
					c1.3-1.3,3-2,4.9-2v-3h-6.7l-1.6,5.9c-0.4,1.8-1.5,3.2-3.1,4.2c-1.6,1-3.3,1.2-5.1,0.8l5.2-20.1h-5.8c0-1.9,0.7-3.5,2-4.9
					c1.4-1.3,3-2,4.9-2h3.5l-1.9-4.2c1.7-0.8,3.3-0.8,5-0.2c1.7,0.6,2.9,1.7,3.6,3.3l0.4,1h9c0,1.8-0.7,3.5-2,4.9
					c-1.3,1.3-3,2-4.9,2H97.7z"/>
				<path class="st0" d="M76.9,58.4c3-3.8,4.8-8.2,5.1-13.2h-13l1.4-2.5h7c1.9,0,3.5-0.7,4.8-2c1.3-1.3,1.9-3,1.9-4.9H72.7v-2.4h3
					c1.9,0,3.5-0.7,4.9-2c1.3-1.3,1.9-3,1.9-4.9h-9.8v-2.4h3.7c1.9,0,3.5-0.7,4.9-2c1.3-1.3,1.9-3,1.9-4.9H72.7v-5.9
					c-1.7,0-3.2,0.6-4.5,1.7c-1.3,1.1-2,2.5-2.3,4.2h-3.7c-1.9,0-3.5,0.7-4.9,2c-1.3,1.3-2,3-2,4.9h10.5v2.4h-3
					c-1.9,0-3.5,0.7-4.9,2c-1.3,1.3-2,3-2,4.9h9.8v2.4h-4.8c-1.9,0-3.5,0.7-4.9,2c-1.3,1.3-2,3-2,4.9h8.4l-8,13.7
					c1.6,1,3.3,1.2,5.1,0.7c1.8-0.4,3.2-1.5,4.2-3.1l1.1-2h8.5c-0.4,1-1.3,2.2-2.5,3.5l-0.6-0.3c-1.7-0.8-3.5-0.9-5.2-0.2
					c-1.8,0.6-3,1.8-3.8,3.5l3.3,1.6c-1.6,0.8-4.7,1.9-9.2,3.4c0.8,1.7,2,2.8,3.7,3.4c1.7,0.6,3.5,0.6,5.2,0c2.7-1,5-2.1,7-3.5
					l9.3,3.4c1.7,0.8,16.6,3.7,18.3,3.1c1.8-0.6,5.3-4.4,6.1-6.1L76.9,58.4z M76.7,19.5c1.4-0.6,2.6-0.9,2.8-0.7
					c0.1,0.2-0.9,1-2.4,1.6c-1.4,0.6-2.6,0.9-2.8,0.7C74.2,20.9,75.3,20.2,76.7,19.5z M62.7,20.4c-1.4,0.6-2.6,0.9-2.8,0.7
					c-0.1-0.2,0.9-1,2.4-1.6c1.4-0.6,2.6-0.9,2.8-0.7C65.2,19.1,64.1,19.8,62.7,20.4z M67.1,21.1c-0.1-0.2,0.9-1,2.4-1.6
					c1.4-0.6,2.6-0.9,2.8-0.7c0.1,0.2-0.9,1-2.4,1.6C68.5,21.1,67.2,21.4,67.1,21.1z"/>
			</g>
			<g>
				<path class="st0" d="M108.8,76.4c-0.2,0-0.4,0.1-0.6,0.2c-1.3,0.8-2.5,3.4-3.7,7.8c-0.7,2.7-1,4.9-1,6.7c0,0.9,0,1.5,0.1,2
					c0.1,0.5,0.3,0.7,0.8,0.7c2,0,3-0.6,3-1.7l0.3-5.2c0-0.3,0.2-1.4,0.5-3.1c0.4-1.8,0.6-3.2,0.7-4.3c0.1-0.6,0.1-1.2,0.1-1.9
					C109.1,76.8,109,76.4,108.8,76.4z"/>
				<path class="st0" d="M116.7,74.3c-1.5-1.3-3.5-2-6.1-2c-1.4,0-2.7,0.3-4,0.9c-1.3,0.6-2.2,1.2-2.7,1.9c-0.6,0.7-0.9,1.3-0.9,1.6
					c0,0.2,0.2,0.3,0.5,0.3c0.3,0,0.7-0.1,1-0.3c0.4-0.2,0.8-0.4,1.3-0.7c1.3-0.7,2.6-1,4.1-1c1.5,0,2.6,0.3,3.4,1
					c0.8,0.7,1.2,1.6,1.2,2.8c0,1.9-0.4,3.3-1.3,4.1c-0.4,0.4-0.8,0.6-1.3,0.7c-0.5,0.1-0.9,0.2-1.3,0.3c-0.4,0.1-0.7,0.1-1,0.2
					c-0.3,0.1-0.4,0.2-0.4,0.5c0,0.8,0.9,1.3,2.8,1.3c1.9,0,3.4-0.7,4.7-2.2c1.2-1.4,1.9-3.1,1.9-4.9
					C118.6,76.9,118,75.4,116.7,74.3z"/>
				<path class="st0" d="M146.3,86.7c-0.1,0-0.3,0.2-0.7,0.5c-0.3,0.4-0.7,0.7-1,1.1c-0.4,0.4-0.7,0.8-1.1,1.1
					c-0.4,0.4-0.7,0.5-0.9,0.5c-0.2,0-0.3-0.1-0.3-0.4c0-0.3,0-0.7,0.2-1.1c0.1-0.4,0.3-1.2,0.5-2.2c0.2-1,0.4-2.1,0.3-3.1
					c0-1-0.3-1.9-0.9-2.3c-0.7-0.5-1.4-0.8-2.7-0.8c-1.2,0-2.2,0.5-3,1.4c-0.6-1.3-1.1-1.9-1.8-1.9c-0.4,0-0.7,0.3-1,0.8
					c-0.9,1.5-1.5,3.1-1.7,4.8c-0.1,0.5-0.1,1.2-0.2,2c-0.1,0.1-0.1,0.1-0.2,0.2c-0.3,0.4-0.7,0.7-1,1.1c-0.4,0.4-0.7,0.8-1.1,1.1
					c-0.4,0.4-0.7,0.5-0.9,0.5c-0.2,0-0.3-0.2-0.3-0.5c0-0.7,0.1-1.9,0.5-3.8c0.4-1.9,0.5-3.3,0.5-4.2c0-0.6-0.1-1.1-0.2-1.4
					c-0.1-0.3-0.4-0.5-0.8-0.5c-1.8,0-2.7,0.6-2.7,1.9c0,0,0.1,1.6,0,3.2c-0.1,1.4-0.1,2.2-0.6,3.4c-0.6,1.6-1.6,2.2-2.4,2.2
					c-0.8,0-1.2-0.3-1.2-1c0-0.8,0.1-1.8,0.4-2.8c0.3-1.1,0.5-2,0.6-2.7c0.2-0.7,0.3-1.6,0.2-2.5c-0.1-1.1-0.7-1.6-1.5-1.6
					c-0.9,0-1.5,0.2-2,0.5c-0.2,0.1-0.3,0.3-0.3,0.5c-0.2,1.2-0.9,6-1.3,7.9c-0.1,0.4-0.2,0.8-0.2,1.3c0,1.1,0.4,1.9,1.1,2.4
					c0.7,0.5,1.8,0.8,3.1,0.8c0.8,0,1.5-0.3,2-0.7c0.2-0.2,0.4-0.4,0.6-0.6c0.3-0.4,0.9-0.2,1.1,0.2c0.1,0.1,0.1,0.2,0.2,0.4
					c0.7,1.6,3.6,1.3,5.3-1.2c0.3-0.5,0.6-0.9,0.9-1.3c0,0.2,0,0.4,0,0.6c0,1,0.1,1.7,0.3,2.2c0.2,0.5,0.5,0.7,0.9,0.7
					c0.2,0,0.4,0,0.6-0.1c1.4-0.6,2.2-1.2,2.2-1.9c0-0.3-0.1-0.7-0.3-1.4c-0.4-2.2,0-3.8,1-5.6c0.6-1.1,1.3-1.7,2-1.7
					c0.7,0,1.1,0.3,1.1,1c0,0.4,0,0.8-0.1,1.2c-0.1,0.4-0.2,1-0.4,1.8c-0.2,0.8-0.3,1.8-0.2,2.8c0,2.3,0.7,3.5,2.1,3.5
					c0,0,0.1,0,0.1,0c0.5,0,2-0.3,3.8-2c1.2-1.1,1.7-2.3,1.7-3.6C146.7,87.1,146.6,86.7,146.3,86.7z"/>
				<path class="st0" d="M83.6,74.7c0.1-0.3,0.2-0.6,0.4-0.9c0.1-0.3,0.2-0.5,0.2-0.6c0-0.4-0.2-0.6-0.7-0.6l-8.6-0.1
					c-2,0-3.8,0.6-5.5,1.8c-0.6,0.5-1.1,1-1.5,1.4c-0.4,0.5-0.5,0.8-0.5,1.1c0,0.2,0.1,0.3,0.4,0.3c0.3,0,0.7-0.1,1.1-0.2
					c0.5-0.1,1.2-0.4,2.3-0.7c1.1-0.3,2.2-0.6,3.3-0.6c-0.5,1.2-1.1,2.8-1.6,4.9c-0.6,2.1-1,4.1-1.3,5.9c-0.2,1-0.3,1.8-0.4,2.6
					c-0.1,0.8-0.1,1.6-0.1,2.3c0,0.7,0,1.3,0.1,1.8c0.1,0.5,0.3,0.7,0.8,0.7c2,0,3-0.6,3-1.7c0-2.3,0.3-5.4,0.9-9.3
					c0.2-1.5,0.5-2.9,0.7-4.2c0.2-1.3,0.3-2.3,0.4-3.2c2.7,0.1,4.5,0.2,5.2,0.2C82.9,75.7,83.3,75.3,83.6,74.7z"/>
				<path class="st0" d="M100.6,87.2c-0.2,0-0.4,0.2-0.7,0.5c-0.3,0.4-0.7,0.8-1.1,1.2c-1.2,1.1-2.5,1.7-3.9,1.7
					c-0.6,0-1.2-0.2-1.7-0.4c-0.5-0.3-0.8-0.7-0.8-1.4l0-0.7c0.7-0.3,1.4-0.6,2.1-0.9c0.7-0.3,1.4-0.6,1.9-0.9
					c0.6-0.3,1.1-0.8,1.4-1.3c0.4-0.5,0.5-1.2,0.5-1.9c0-0.8-0.3-1.4-0.8-1.9c-0.5-0.5-1.2-0.7-2.2-0.7c-0.9,0-1.8,0.2-2.6,0.7
					c-0.8,0.5-1.5,1.1-2.2,1.9c-0.6,0.8-1.1,1.8-1.5,2.9c-0.4,1.1-0.5,2.2-0.5,3.2c0,1,0.1,1.8,0.4,2.4c0.8,1.6,2.1,2.3,4.2,2.3
					c2.6,0,4.6-0.8,6-2.3c0.6-0.6,1-1.2,1.3-1.9c0.3-0.6,0.4-1.2,0.4-1.7C100.9,87.4,100.8,87.2,100.6,87.2z M94.4,82.9
					c0.5,0,0.8,0.2,0.8,0.7c0,0.5-0.3,1-0.8,1.4c-0.2,0.2-0.5,0.4-0.8,0.6c-0.3,0.2-0.7,0.4-1,0.7C92.9,84,93.5,82.9,94.4,82.9z"/>
				<path class="st0" d="M89.8,83.8c0.4-0.6-0.1-1.7-0.1-1.7c-0.6-1.5-1.7-2.2-3.5-2.1c-1.2,0.1-2.2,0.6-2.9,1.6
					c-0.1-0.2-0.2-0.4-0.3-0.6c-0.5-0.8-0.9-1.3-1.4-1.2c-0.5,0-0.8,0.3-0.9,0.7c-1.1,3.2-1.6,4.1-1.9,7c-0.2,1.7-0.3,2.5-0.2,4.1
					c0,0.4,0.2,0.8,0.3,1.1c0.1,0.3,0.3,0.6,0.9,1c0.8,0.6,1.7,0.1,1.8-1.6c0.1-1.7,0.1-5.3,1.9-8.1c0,0,0.1-0.1,0.1-0.1
					c0,0,0.1-0.1,0.1-0.1c1.2-1.4,1.9-0.5,3.2,0.7c0.2,0.2,0.3,0.3,0.5,0.5C88.5,85.7,89.1,84.8,89.8,83.8z"/>
			</g>
			<g>
				<path class="st0" d="M147.6,48.1L147.6,48.1c-1.8,0-3.5-0.3-5.1-0.7c-2.4-0.6-5-1.6-7.1-3.3c-5.2-3.7-8.5-9.5-9.1-15.7
					c-0.1-0.5-0.1-0.9-0.1-1.4c0-0.1,0-0.2,0-0.2c0-0.1,0-0.2,0-0.3l0,0c0.3-6.9,6.5-12.6,13.8-12.8c5.6-0.2,10.2,3,11.9,7.6
					c1.5-0.7,3-1,4.7-1c0.7,0,1.4,0.1,2,0.2c-2-8.4-9.9-14.6-19.8-14.6c-12.6,0-23.7,9.8-23.7,22c0,11.4,16.9,34.9,21.9,41.6
					c0.7,0.9,2.4,0.6,3.1-0.7c2.4-4.1,6.9-12.1,10.9-20.5C149.7,48.3,148.5,48.2,147.6,48.1z"/>
				<path class="st0" d="M165.5,24.1c-0.9,0-1.8,0.1-2.6,0.4c-0.1,0-0.2,0.1-0.3,0.1c-2.3,2-3.2,5.1-2.8,8c0.1,1-2.5,2-2.6,0.7
					c-0.5-3.5,1-7.1,3.5-9.4c-1.2-0.7-2.5-1.1-4-1.1c-1.1,0-2.2,0.2-3.1,0.7c-0.3,0.1-0.5,0.3-0.8,0.5c-2.5,1.9-3,5.2-2.4,8.2
					c0.2,1.1-1.9,1.7-2.1,0.5c-0.5-2.8,0-5.7,1.5-8.1c-0.1,0-0.2,0-0.3,0c-2.1,0-4,0.8-5.4,2c0,0-0.1,0.1-0.1,0.1
					c-0.5,0.6-0.8,1.3-1.1,2.1c-0.3,1.1-0.4,2.2-0.3,3.3c0.1,0.4-0.3,0.9-0.7,0.9c-0.4,0.1-0.9-0.3-0.9-0.7c0,0,0-0.1,0-0.1v0
					c0-1.3,0.2-2.6,0.8-3.8c0.2-0.4,0.4-0.8,0.7-1.2c-4.4,0.4-7.6,4-8,7.7c-0.8,7.6,6.7,10.6,11.2,10.6h19.3
					c7.3-0.2,11.4-6.2,10.6-12C174.9,28.7,170.7,24.1,165.5,24.1z"/>
			</g>
		</g>
	</g>
</g>
</svg>
