<?xml version="1.0" encoding="utf-8"?>
<!-- Generator: Adobe Illustrator 21.1.0, SVG Export Plug-In . SVG Version: 6.00 Build 0)  -->
<svg version="1.1" id="Layer_1" xmlns="http://www.w3.org/2000/svg" xmlns:xlink="http://www.w3.org/1999/xlink" x="0px" y="0px"
	 viewBox="0 0 16 16" style="enable-background:new 0 0 16 16;" xml:space="preserve">
<style type="text/css">
	.st0{fill:#8C6239;}
</style>
<g>
	<path class="st0" d="M8.5,10.5L8.5,10.5c-0.4,0-0.8-0.1-1.2-0.2c-0.6-0.1-1.2-0.4-1.7-0.8C4.3,8.6,3.5,7.2,3.4,5.7
		c0-0.1,0-0.2,0-0.3c0,0,0,0,0,0c0,0,0,0,0-0.1l0,0c0.1-1.7,1.6-3,3.3-3.1C8,2.1,9.2,2.9,9.6,4c0.4-0.2,0.7-0.2,1.1-0.2
		c0.2,0,0.3,0,0.5,0c-0.5-2-2.4-3.5-4.8-3.5c-3,0-5.7,2.4-5.7,5.3C0.7,8.3,4.8,14,6,15.6c0.2,0.2,0.6,0.1,0.7-0.2
		c0.6-1,1.7-2.9,2.6-5C9,10.5,8.7,10.5,8.5,10.5z"/>
	<path class="st0" d="M12.9,4.6c-0.2,0-0.4,0-0.6,0.1c0,0,0,0-0.1,0c-0.6,0.5-0.8,1.2-0.7,1.9c0,0.2-0.6,0.5-0.6,0.2
		c-0.1-0.8,0.2-1.7,0.8-2.3c-0.3-0.2-0.6-0.3-1-0.3c-0.3,0-0.5,0-0.7,0.2c-0.1,0-0.1,0.1-0.2,0.1c-0.6,0.5-0.7,1.3-0.6,2
		c0,0.3-0.5,0.4-0.5,0.1c-0.1-0.7,0-1.4,0.4-2c0,0,0,0-0.1,0C8.5,4.8,8,5,7.7,5.3l0,0C7.5,5.4,7.5,5.6,7.4,5.8
		C7.3,6.1,7.3,6.3,7.3,6.6c0,0.1-0.1,0.2-0.2,0.2c-0.1,0-0.2-0.1-0.2-0.2v0l0,0c0-0.3,0-0.6,0.2-0.9c0-0.1,0.1-0.2,0.2-0.3
		c-1.1,0.1-1.8,1-1.9,1.9C5.2,9.1,7,9.8,8.1,9.8h4.7c1.8,0,2.8-1.5,2.6-2.9C15.1,5.8,14.1,4.6,12.9,4.6z"/>
</g>
</svg>
