<?xml version="1.0" encoding="utf-8"?>
<!-- Generator: Adobe Illustrator 21.1.0, SVG Export Plug-In . SVG Version: 6.00 Build 0)  -->
<svg version="1.1" id="圖層_1" xmlns="http://www.w3.org/2000/svg" xmlns:xlink="http://www.w3.org/1999/xlink" x="0px" y="0px"
	 viewBox="0 0 50 30" style="enable-background:new 0 0 50 30;" xml:space="preserve">
<style type="text/css">
	.st0{fill:#F6921E;}
</style>
<path class="st0" d="M34.9,17.7c-0.7-0.7-2.8-2.7-5.1-4.9l-0.1-0.1c-2.6-2.4-5.5-5.2-6.5-6.2c-1-1-2.4-1.6-3.9-1.6
	c-1.5,0-2.8,0.6-3.9,1.6c-1,1-1.6,2.4-1.6,3.9s0.6,2.8,1.6,3.9c1.9,1.9,10.3,9.7,10.4,9.8l0.1,0.1l0.9-1l-0.2-0.1
	c-2-1.9-8.6-8-10.2-9.7c-0.8-0.8-1.2-1.8-1.2-2.9s0.4-2.1,1.2-2.9c0.8-0.8,1.8-1.2,2.9-1.2c1.1,0,2.1,0.4,2.9,1.2
	c1,1,3.8,3.7,6.5,6.2c2.1,2,4.5,4.2,5.1,4.9c0.6,0.6,0.9,1.3,0.9,2.1c0,0.8-0.3,1.5-0.9,2.1c-1.1,1.1-3,1.1-4.2,0
	c-0.8-0.8-3.7-3.5-6.3-6l0,0c-2.1-2-4.1-3.8-4.5-4.2c-0.3-0.3-0.5-0.8-0.5-1.2c0-0.5,0.2-0.9,0.5-1.2c0.7-0.7,1.8-0.7,2.5,0
	c0.9,0.9,8.6,8.1,9.5,8.9l0.1,0.1l0.9-1l-0.1-0.1c-0.1-0.1-8.5-8-9.5-8.9C21.2,8,19.2,8,18,9.2c-1.2,1.2-1.2,3.2,0,4.4
	c0.4,0.4,2.4,2.3,4.5,4.3l0,0c2.6,2.4,5.5,5.2,6.3,5.9c0.8,0.8,1.9,1.3,3,1.3c1.1,0,2.2-0.4,3-1.3c0.8-0.8,1.3-1.9,1.3-3
	C36.1,19.6,35.7,18.5,34.9,17.7z"/>
</svg>
