<?xml version="1.0" encoding="utf-8"?>
<!-- Generator: Adobe Illustrator 21.1.0, SVG Export Plug-In . SVG Version: 6.00 Build 0)  -->
<svg version="1.1" id="圖層_1" xmlns="http://www.w3.org/2000/svg" xmlns:xlink="http://www.w3.org/1999/xlink" x="0px" y="0px"
	 viewBox="0 0 50 30" style="enable-background:new 0 0 50 30;" xml:space="preserve">
<style type="text/css">
	.st0{fill:#BBBBBB;}
	.st1{fill:#FF00FF;}
</style>
<g>
	<rect x="20.8" y="1155.4" class="st0" width="8.3" height="1.3"/>
	<rect x="20.8" y="1162.4" class="st0" width="8.3" height="1.3"/>
	<path class="st0" d="M31.3,1165.9H18.6v-17.3h8.7c0.1,0,0.5,0,0.5,0.5v2.8h-7v1.3h11.9l-0.1-0.1c0,0-3.6-4.8-3.9-5.2
		c-0.3-0.4-0.9-0.7-1.4-0.7h-10v20h15.3v-13h-1.3V1165.9z M29.1,1150.7l0.9,1.2h-0.9V1150.7z"/>
	<rect x="20.8" y="1158.9" class="st0" width="8.3" height="1.3"/>
</g>
<g>
	<path class="st1" d="M50,1142.3h-3v0.3h3V1142.3L50,1142.3z M45,1142.3h-3v0.3h3V1142.3L45,1142.3z M40,1142.3h-3v0.3h3V1142.3
		L40,1142.3z M35,1142.3h-3v0.3h3V1142.3L35,1142.3z M30,1142.3h-3v0.3h3V1142.3L30,1142.3z M25,1142.3h-3v0.3h3V1142.3L25,1142.3z
		 M20,1142.3h-3v0.3h3V1142.3L20,1142.3z M15,1142.3h-3v0.3h3V1142.3L15,1142.3z M10,1142.3H7v0.3h3V1142.3L10,1142.3z M5,1142.3H2
		v0.3h3V1142.3L5,1142.3z M0.3,1142.3H0v3h0.3V1142.3L0.3,1142.3z M0.3,1147.3H0v3h0.3V1147.3L0.3,1147.3z M0.3,1152.3H0v3h0.3
		V1152.3L0.3,1152.3z M0.3,1157.3H0v3h0.3V1157.3L0.3,1157.3z M0.3,1162.3H0v3h0.3V1162.3L0.3,1162.3z M0.3,1167.3H0v3h0.3V1167.3
		L0.3,1167.3z M3,1172H0v0.3h3V1172L3,1172z M8,1172H5v0.3h3V1172L8,1172z M13,1172h-3v0.3h3V1172L13,1172z M18,1172h-3v0.3h3V1172
		L18,1172z M23,1172h-3v0.3h3V1172L23,1172z M28,1172h-3v0.3h3V1172L28,1172z M33,1172h-3v0.3h3V1172L33,1172z M38,1172h-3v0.3h3
		V1172L38,1172z M43,1172h-3v0.3h3V1172L43,1172z M48,1172h-3v0.3h3V1172L48,1172z M50,1169.3h-0.3v3H50V1169.3L50,1169.3z
		 M50,1164.3h-0.3v3H50V1164.3L50,1164.3z M50,1159.3h-0.3v3H50V1159.3L50,1159.3z M50,1154.3h-0.3v3H50V1154.3L50,1154.3z
		 M50,1149.3h-0.3v3H50V1149.3L50,1149.3z M50,1144.3h-0.3v3H50V1144.3L50,1144.3z"/>
</g>
<path class="st0" d="M34.9,17.7c-0.7-0.7-2.8-2.7-5.1-4.9l-0.1-0.1c-2.6-2.4-5.5-5.2-6.5-6.2c-1-1-2.4-1.6-3.9-1.6
	c-1.5,0-2.8,0.6-3.9,1.6c-1,1-1.6,2.4-1.6,3.9s0.6,2.8,1.6,3.9c1.9,1.9,10.3,9.7,10.4,9.8l0.1,0.1l0.9-1l-0.2-0.1
	c-2-1.9-8.6-8-10.2-9.7c-0.8-0.8-1.2-1.8-1.2-2.9s0.4-2.1,1.2-2.9c0.8-0.8,1.8-1.2,2.9-1.2c1.1,0,2.1,0.4,2.9,1.2
	c1,1,3.8,3.7,6.5,6.2c2.1,2,4.5,4.2,5.1,4.9c0.6,0.6,0.9,1.3,0.9,2.1c0,0.8-0.3,1.5-0.9,2.1c-1.1,1.1-3,1.1-4.2,0
	c-0.8-0.8-3.7-3.5-6.3-6l0,0c-2.1-2-4.1-3.8-4.5-4.2c-0.3-0.3-0.5-0.8-0.5-1.2c0-0.5,0.2-0.9,0.5-1.2c0.7-0.7,1.8-0.7,2.5,0
	c0.9,0.9,8.6,8.1,9.5,8.9l0.1,0.1l0.9-1l-0.1-0.1c-0.1-0.1-8.5-8-9.5-8.9C21.2,8,19.2,8,18,9.2c-1.2,1.2-1.2,3.2,0,4.4
	c0.4,0.4,2.4,2.3,4.5,4.3l0,0c2.6,2.4,5.5,5.2,6.3,5.9c0.8,0.8,1.9,1.3,3,1.3c1.1,0,2.2-0.4,3-1.3c0.8-0.8,1.3-1.9,1.3-3
	C36.1,19.6,35.7,18.5,34.9,17.7z"/>
</svg>
