<?xml version="1.0" encoding="utf-8"?>
<!-- Generator: Adobe Illustrator 21.1.0, SVG Export Plug-In . SVG Version: 6.00 Build 0)  -->
<svg version="1.1" id="圖層_1" xmlns="http://www.w3.org/2000/svg" xmlns:xlink="http://www.w3.org/1999/xlink" x="0px" y="0px"
	 viewBox="0 0 60 60" style="enable-background:new 0 0 60 60;" xml:space="preserve">
<style type="text/css">
	.st0{fill:#BBBBBB;}
	.st1{fill:#FF00FF;}
	.st2{fill:#999999;}
</style>
<g>
	<rect x="25.8" y="1170.4" class="st0" width="8.3" height="1.3"/>
	<rect x="25.8" y="1177.4" class="st0" width="8.3" height="1.3"/>
	<path class="st0" d="M36.3,1180.9H23.6v-17.3h8.7c0.1,0,0.5,0,0.5,0.5v2.8h-7v1.3h11.9l-0.1-0.1c0,0-3.6-4.8-3.9-5.2
		c-0.3-0.4-0.9-0.7-1.4-0.7h-10v20h15.3v-13h-1.3V1180.9z M34.1,1165.7l0.9,1.2h-0.9V1165.7z"/>
	<rect x="25.8" y="1173.9" class="st0" width="8.3" height="1.3"/>
</g>
<g>
	<path class="st1" d="M55,1157.3h-3v0.3h3V1157.3L55,1157.3z M50,1157.3h-3v0.3h3V1157.3L50,1157.3z M45,1157.3h-3v0.3h3V1157.3
		L45,1157.3z M40,1157.3h-3v0.3h3V1157.3L40,1157.3z M35,1157.3h-3v0.3h3V1157.3L35,1157.3z M30,1157.3h-3v0.3h3V1157.3L30,1157.3z
		 M25,1157.3h-3v0.3h3V1157.3L25,1157.3z M20,1157.3h-3v0.3h3V1157.3L20,1157.3z M15,1157.3h-3v0.3h3V1157.3L15,1157.3z M10,1157.3
		H7v0.3h3V1157.3L10,1157.3z M5.3,1157.3H5v3h0.3V1157.3L5.3,1157.3z M5.3,1162.3H5v3h0.3V1162.3L5.3,1162.3z M5.3,1167.3H5v3h0.3
		V1167.3L5.3,1167.3z M5.3,1172.3H5v3h0.3V1172.3L5.3,1172.3z M5.3,1177.3H5v3h0.3V1177.3L5.3,1177.3z M5.3,1182.3H5v3h0.3V1182.3
		L5.3,1182.3z M8,1187H5v0.3h3V1187L8,1187z M13,1187h-3v0.3h3V1187L13,1187z M18,1187h-3v0.3h3V1187L18,1187z M23,1187h-3v0.3h3
		V1187L23,1187z M28,1187h-3v0.3h3V1187L28,1187z M33,1187h-3v0.3h3V1187L33,1187z M38,1187h-3v0.3h3V1187L38,1187z M43,1187h-3v0.3
		h3V1187L43,1187z M48,1187h-3v0.3h3V1187L48,1187z M53,1187h-3v0.3h3V1187L53,1187z M55,1184.3h-0.3v3H55V1184.3L55,1184.3z
		 M55,1179.3h-0.3v3H55V1179.3L55,1179.3z M55,1174.3h-0.3v3H55V1174.3L55,1174.3z M55,1169.3h-0.3v3H55V1169.3L55,1169.3z
		 M55,1164.3h-0.3v3H55V1164.3L55,1164.3z M55,1159.3h-0.3v3H55V1159.3L55,1159.3z"/>
</g>
<g>
	<path class="st0" d="M30,1c16,0,29,13,29,29S46,59,30,59S1,46,1,30S14,1,30,1 M30,0C13.4,0,0,13.4,0,30s13.4,30,30,30
		s30-13.4,30-30S46.6,0,30,0L30,0z"/>
</g>
<path class="st2" d="M41.2,20.4c-0.6,0.5-1.3,0.4-2.3,0c0.1,0.5,0.1,0.8,0.1,1.1c0,0.1,0,0.5,0,1c1.2,0.3,2.4,0.3,3.4-0.6l4.6-3.6
	l0,9.8c-1.8,1.4-2.1,1.7-4.2,3.7l-1.5-1.2L39.7,32l2.6,2.1c0.4,0.3,0.6,0.6,0.6,1.5c0,0.3-0.1,0.7-0.5,1.1l-4.4-3.5l-1.6,1.3
	l4.4,3.5l-1.6,1.3l-4.4-3.5L33.3,37l4.4,3.5L36,41.8l-4.4-3.5L30,39.6l4.4,3.4c-1.5,0.9-2.1,0.8-3.1,0.1c-0.2-0.1-1.5-1.2-2.9-2.3
	l1.6-1.2l-1.6-1.3L24,41.8l-1.6-1.3l4.4-3.5l-1.6-1.3l-4.4,3.5L19.1,38l4.5-3.5l-1.6-1.3l-4.4,3.5c-0.4-0.5-0.5-0.8-0.5-1.1
	c0-1,0.3-1.2,0.6-1.5c0.8-0.6,10-8,11.8-9.4H31v2c0,1.7,1.3,3,3,3c1.5,0,2.6-1.2,2.7-1.3l0.3-0.3l0-0.4c0,0,0-5.5,0-6.1
	c0-0.8,0-2.1-1.2-3c-1.6-1.3-4.6-1.8-5.8-1.8c-2.4,0-4.6,1.3-6.5,2.4c-2.3,1.3-3.7,2.1-4.7,1.3L11,14.3l0,14.4l0,0.5l0.4,0.3
	c2,1.6,2.2,1.7,4.3,3.7c-0.5,0.6-0.7,1.4-0.7,2.4c0,1.2,0.6,2.3,1.8,3.2l8.9,6.9l1.6-1.3l-1.7-1.4l1.2-0.9c1.2,1,3.2,2.5,3.4,2.7
	c0.9,0.6,1.7,0.9,2.5,0.9c1.3,0,2.4-0.7,3.9-1.8l6.5-5.1c1.2-1,1.8-2,1.8-3.2c0-1-0.2-1.7-0.7-2.3c2.1-2,2.3-2.1,4.3-3.7l0.4-0.3
	l0-14.9L41.2,20.4z M13,28.2l0-9.8l4.6,3.6c2.1,1.7,4.6,0.2,7-1.1c1.8-1.1,3.6-2.1,5.5-2.1c1,0,3.4,0.5,4.5,1.4
	c0.4,0.3,0.5,0.7,0.5,1.5c0,0.5,0,4.4,0,5.7c-0.3,0.2-0.6,0.4-1,0.4c-0.6,0-1-0.4-1-1v-4h-4.3l-0.3,0.2c0,0-8.6,6.8-11.3,9
	C15.1,29.9,14.8,29.6,13,28.2z"/>
<g>
	<path class="st0" d="M210.4,332.9c16,0,29,13,29,29s-13,29-29,29s-29-13-29-29S194.5,332.9,210.4,332.9 M210.4,331.9
		c-16.6,0-30,13.4-30,30s13.4,30,30,30s30-13.4,30-30S227,331.9,210.4,331.9L210.4,331.9z"/>
</g>
<path class="st2" d="M221.7,352.3c-0.6,0.5-1.3,0.4-2.3,0c0.1,0.5,0.1,0.8,0.1,1.1c0,0.1,0,0.5,0,1c1.2,0.3,2.4,0.3,3.4-0.6l4.6-3.6
	l0,9.8c-1.8,1.4-2.1,1.7-4.2,3.7l-1.5-1.2l-1.6,1.3l2.6,2.1c0.4,0.3,0.6,0.6,0.6,1.5c0,0.3-0.1,0.7-0.5,1.1l-4.4-3.5l-1.6,1.3
	l4.4,3.5l-1.6,1.3l-4.4-3.5l-1.6,1.3l4.4,3.5l-1.6,1.3l-4.4-3.5l-1.6,1.3l4.4,3.4c-1.5,0.9-2.1,0.8-3.1,0.1
	c-0.2-0.1-1.5-1.2-2.9-2.3l1.6-1.2l-1.6-1.3l-4.4,3.5l-1.6-1.3l4.4-3.5l-1.6-1.3l-4.4,3.5l-1.6-1.3l4.5-3.5l-1.6-1.3l-4.4,3.5
	c-0.4-0.5-0.5-0.8-0.5-1.1c0-1,0.3-1.2,0.6-1.5c0.8-0.6,10-8,11.8-9.4h1.6v2c0,1.7,1.3,3,3,3c1.5,0,2.6-1.2,2.7-1.3l0.3-0.3l0-0.4
	c0,0,0-5.5,0-6.1c0-0.8,0-2.1-1.2-3c-1.6-1.3-4.6-1.8-5.8-1.8c-2.4,0-4.6,1.3-6.5,2.4c-2.3,1.3-3.7,2.1-4.7,1.3l-7.8-6.1l0,14.4
	l0,0.5l0.4,0.3c2,1.6,2.2,1.7,4.3,3.7c-0.5,0.6-0.7,1.4-0.7,2.4c0,1.2,0.6,2.3,1.8,3.2l8.9,6.9l1.6-1.3l-1.7-1.4l1.2-0.9
	c1.2,1,3.2,2.5,3.4,2.7c0.9,0.6,1.7,0.9,2.5,0.9c1.3,0,2.4-0.7,3.9-1.8l6.5-5.1c1.2-1,1.8-2,1.8-3.2c0-1-0.2-1.7-0.7-2.4
	c2.1-2,2.3-2.1,4.3-3.7l0.4-0.3l0-14.9L221.7,352.3z M193.4,360.1l0-9.8l4.6,3.6c2.1,1.7,4.6,0.2,7-1.1c1.8-1.1,3.6-2.1,5.5-2.1
	c1,0,3.4,0.5,4.5,1.4c0.4,0.3,0.5,0.7,0.5,1.5c0,0.5,0,4.4,0,5.7c-0.3,0.2-0.6,0.4-1,0.4c-0.6,0-1-0.4-1-1v-4h-4.3l-0.3,0.2
	c0,0-8.6,6.8-11.3,9C195.5,361.7,195.2,361.4,193.4,360.1z"/>
</svg>
