<?xml version="1.0" encoding="utf-8"?>
<!-- Generator: Adobe Illustrator 21.1.0, SVG Export Plug-In . SVG Version: 6.00 Build 0)  -->
<svg version="1.1" id="圖層_1" xmlns="http://www.w3.org/2000/svg" xmlns:xlink="http://www.w3.org/1999/xlink" x="0px" y="0px"
	 viewBox="0 0 420 130" style="enable-background:new 0 0 420 130;" xml:space="preserve">
<style type="text/css">
	.st0{fill:#00C853;}
	.st1{fill:none;stroke:#00C853;stroke-width:2;stroke-miterlimit:10;}
	.st2{opacity:0.7;}
</style>
<g>
	<g>
		<path class="st0" d="M169.8,68.7c-1.5,4.6-3.7,8.7-6.3,12.2c1.3,3.5,3,5.6,4.8,5.6c1,0,1.4-1.9,1.7-6.7c0.6,0.6,1.6,1.2,2.3,1.4
			c-0.5,6.1-1.5,7.9-4.2,7.9c-2.8,0-4.9-2.2-6.6-5.9c-2.2,2.3-4.6,4.4-7.4,6c-0.4-0.5-1.3-1.6-1.9-2.1c3.2-1.7,6-4,8.3-6.7
			c-1.3-4.1-2.2-9.4-2.6-15.2h-12.4v4.7h9.2v1.2c-0.2,8.1-0.4,11.1-1.2,12c-0.5,0.7-1.2,0.9-2.2,1c-0.9,0.1-2.5,0.1-4.3,0
			c0-0.8-0.3-1.8-0.8-2.5c1.7,0.1,3.2,0.2,3.8,0.2c0.5,0,0.9-0.1,1.1-0.4c0.5-0.5,0.7-2.8,0.8-9h-6.6v0.3c0,5-0.5,12.3-3.8,17
			c-0.5-0.5-1.6-1.5-2.2-1.8c3-4.4,3.3-10.5,3.3-15.2v-10h15c-0.1-2-0.2-4-0.2-6h2.8c0,2.1,0,4.1,0.1,6H172v2.6h-11.4
			c0.4,4.8,1,9.1,2,12.5c1.9-2.8,3.5-6.1,4.6-9.7L169.8,68.7z M163.6,56.7c2.2,1.1,5,2.8,6.4,4.1l-1.7,1.8c-1.4-1.3-4.1-3.1-6.4-4.3
			L163.6,56.7z"/>
		<path class="st0" d="M207.3,76.9c-0.6,7.4-1.3,10.3-2.4,11.5c-0.6,0.6-1.3,0.9-2.3,0.9c-0.9,0.1-2.6,0.1-4.4,0
			c0-0.7-0.3-1.7-0.7-2.4c1.7,0.2,3.3,0.2,4,0.2c0.6,0,0.9,0,1.3-0.4c0.8-0.7,1.3-3,1.9-8.6h-21.6c-1.9,1.6-4,3-6.3,4.2
			c-0.3-0.6-1-1.7-1.4-2.2c6.7-3.5,11.7-8.9,15.2-15h-12.8v-2.4h7.1c-0.5-1.4-1.7-3.6-2.8-5.2l2.3-0.9c1.2,1.6,2.5,3.8,3,5.3l-2,0.9
			h6.4c1-2.1,1.9-4.2,2.6-6.3l2.6,0.8c-0.7,1.9-1.4,3.7-2.3,5.5h7.4c-0.4,2.1-0.8,4.6-1.2,6.5h4.1c-0.4,2.1-0.8,4.6-1.2,6.5h3.6
			L207.3,76.9z M177,87.6c2.2-1.7,3.5-4.6,4.2-7.4l2.3,0.7c-0.8,3-1.9,6.2-4.4,8.1L177,87.6z M189.3,71.6c-1.2,1.5-2.3,2.9-3.7,4.2
			h15.7c0.3-1.2,0.5-2.7,0.8-4.2H189.3z M188,81c0.7,2.1,1,4.8,1,6.6l-2.4,0.3c0.1-1.8-0.3-4.5-0.9-6.6L188,81z M193.4,65.2
			c-0.8,1.4-1.6,2.8-2.5,4.1h7.3c0.3-1.2,0.6-2.7,0.9-4.1H193.4z M193.4,80.4c0.9,1.8,1.7,4.2,2,5.8l-2.2,0.6c-0.3-1.5-1-4-1.9-5.9
			L193.4,80.4z M199.2,85.1c-0.5-1.4-1.5-3.4-2.7-4.9l1.9-0.7c1.2,1.4,2.3,3.5,2.7,4.7L199.2,85.1z"/>
		<path class="st0" d="M243.8,60.9v2.6h-26.5v6.7c0,5.5-0.5,13.8-3.7,19.2c-0.5-0.4-1.7-1.2-2.3-1.5c3.1-5.2,3.4-12.5,3.4-17.7v-9.3
			h14c-0.5-1.2-1.2-2.6-1.9-3.6l2.6-0.6c0.9,1.3,1.8,3,2.3,4.3H243.8z M231,68.9h11.6v2.4H231v4.8h9.9v12.7h-2.7v-1.4h-15.2v1.4
			h-2.6V76.2h7.8V64.7h2.7V68.9z M238.2,78.7h-15.2v6.4h15.2V78.7z"/>
		<path class="st0" d="M278.3,77.9c-2.3,1.7-5.2,3.4-7.8,4.7c2.7,2,6.2,3.3,10.2,4.1c-0.5,0.6-1.3,1.7-1.7,2.4
			c-8.2-1.8-13.8-6.2-16.9-13h-5.8v9.6l9.7-2.3c0,0.7-0.1,1.8-0.1,2.3c-10.1,2.6-11.8,3.1-12.7,3.5l-0.1,0.1
			c-0.2-0.6-0.8-1.9-1.2-2.6c0.7-0.4,1.8-1.1,1.8-2.6v-8.1H248v-2.4h6.3V57.9h22.1v2.3H257v3.1h18.4v2.2H257v3h18.4v2.2H257v3.1
			h22.9v2.4h-15c1,1.9,2.3,3.6,3.9,5c2.6-1.4,5.5-3.3,7.4-4.8L278.3,77.9z"/>
	</g>
	<g>
		<path class="st1" d="M345.9,59c-5.2,0-32.4,5.2-32.4,5.2c-1.1,0.2-2-0.5-2-1.6v-11c0-1.1-0.9-2-2-2h-97.6c-1.1,0-2.9,0-4,0H190
			c-1.1,0-2.9,0-4,0h-75.7c-1.1,0-2,0.9-2,2v11c0,1.1-0.9,1.8-2,1.6c0,0-27.3-5.2-32.4-5.2c-8.6,0-15.6,7-15.6,15.6
			s7,15.6,15.6,15.6c5.2,0,32.4-5.2,32.4-5.2c1.1-0.2,2,0.5,2,1.6v11c0,1.1,0.9,2,2,2H186c1.1,0,2.9,0,4,0h17.9c1.1,0,2.9,0,4,0
			h97.6c1.1,0,2-0.9,2-2v-11c0-1.1,0.9-1.8,2-1.6c0,0,27.3,5.2,32.4,5.2c8.6,0,15.6-7,15.6-15.6S354.5,59,345.9,59z"/>
	</g>
	<g class="st2">
		<g>
			<g>
				<rect x="34.4" y="71.8" class="st0" width="20" height="3"/>
			</g>
			<g>
				
					<rect x="48.1" y="53.1" transform="matrix(0.3511 -0.9363 0.9363 0.3511 -25.8543 85.9488)" class="st0" width="2" height="17.1"/>
			</g>
			<g>
				<rect x="58.6" y="47.6" transform="matrix(0.6 -0.8 0.8 0.6 -19.1209 68.6492)" class="st0" width="1" height="11.7"/>
			</g>
			<g>
				
					<rect x="39.2" y="85.9" transform="matrix(0.9362 -0.3514 0.3514 0.9362 -27.5081 22.3394)" class="st0" width="17.1" height="2"/>
			</g>
			<g>
				
					<rect x="52" y="94.6" transform="matrix(0.8001 -0.5998 0.5998 0.8001 -45.5119 53.6763)" class="st0" width="11.7" height="1"/>
			</g>
		</g>
		<g>
			<g>
				<rect x="365.6" y="71.8" class="st0" width="20" height="3"/>
			</g>
			<g>
				
					<rect x="362.4" y="60.6" transform="matrix(0.9362 -0.3514 0.3514 0.9362 2.0023 134.2877)" class="st0" width="17.1" height="2"/>
			</g>
			<g>
				
					<rect x="355.1" y="52.9" transform="matrix(0.8001 -0.5998 0.5998 0.8001 40.0821 227.175)" class="st0" width="11.7" height="1"/>
			</g>
			<g>
				
					<rect x="371.2" y="78.4" transform="matrix(0.3511 -0.9363 0.9363 0.3511 160.1145 404.9347)" class="st0" width="2" height="17.1"/>
			</g>
			<g>
				<rect x="361.7" y="89.3" transform="matrix(0.6 -0.8 0.8 0.6 68.78 327.8195)" class="st0" width="1" height="11.7"/>
			</g>
		</g>
	</g>
</g>
</svg>
