<?xml version="1.0" encoding="utf-8"?>
<!-- Generator: Adobe Illustrator 21.1.0, SVG Export Plug-In . SVG Version: 6.00 Build 0)  -->
<svg version="1.1" id="圖層_1" xmlns="http://www.w3.org/2000/svg" xmlns:xlink="http://www.w3.org/1999/xlink" x="0px" y="0px"
	 viewBox="0 0 50 30" style="enable-background:new 0 0 50 30;" xml:space="preserve">
<style type="text/css">
	.st0{fill:#BBBBBB;}
</style>
<g>
	<rect x="22" y="14.2" class="st0" width="8.4" height="1.6"/>
	<path class="st0" d="M26.2,5.1c-5.4,0-9.9,4.4-9.9,9.9v0.8H18l0-0.4c0-0.1,0-0.3,0-0.4c0-4.6,3.7-8.3,8.3-8.3s8.3,3.7,8.3,8.3
		s-3.7,8.3-8.3,8.3c-3.9,0-7.4-2.8-8.1-6.6l0-0.2h-1.6l0,0.2c0.8,4.7,4.9,8.1,9.7,8.1c5.4,0,9.9-4.4,9.9-9.9S31.7,5.1,26.2,5.1z"/>
</g>
</svg>
