<?xml version="1.0" encoding="utf-8"?>
<!-- Generator: Adobe Illustrator 21.1.0, SVG Export Plug-In . SVG Version: 6.00 Build 0)  -->
<svg version="1.1" id="圖層_1" xmlns="http://www.w3.org/2000/svg" xmlns:xlink="http://www.w3.org/1999/xlink" x="0px" y="0px"
	 viewBox="0 0 50 30" style="enable-background:new 0 0 50 30;" xml:space="preserve">
<style type="text/css">
	.st0{fill:#F6921E;}
</style>
<path class="st0" d="M31.4,8h-2.5V7.6c0-0.9-0.8-1.7-1.7-1.7h-4.2c-0.9,0-1.7,0.8-1.7,1.7V8h-2.5c-0.9,0-1.7,0.8-1.7,1.7v1.7h13.7
	l-0.9,11.4h-9.4l-0.9-10.5l0-0.1h-1.3l1,11.8l0,0.1h11.8L32,11.4h1.1V9.7C33.1,8.8,32.3,8,31.4,8z M22.5,8V7.6
	c0-0.2,0.2-0.4,0.4-0.4h4.2c0.2,0,0.4,0.2,0.4,0.4V8H22.5z M31.8,9.7v0.4H18.2V9.7c0-0.2,0.2-0.4,0.4-0.4h12.7
	C31.6,9.3,31.8,9.5,31.8,9.7z"/>
</svg>
