<?xml version="1.0" encoding="utf-8"?>
<!-- Generator: Adobe Illustrator 21.1.0, SVG Export Plug-In . SVG Version: 6.00 Build 0)  -->
<svg version="1.1" id="圖層_1" xmlns="http://www.w3.org/2000/svg" xmlns:xlink="http://www.w3.org/1999/xlink" x="0px" y="0px"
	 viewBox="0 0 50 30" style="enable-background:new 0 0 50 30;" xml:space="preserve">
<style type="text/css">
	.st0{fill:#BBBBBB;}
</style>
<path class="st0" d="M32.8,8.5c0.3-0.3,0.5-0.8,0.5-1.2c0-0.5-0.2-0.9-0.5-1.2c-0.7-0.7-1.8-0.7-2.5,0l-1.2,1.2
	c-1.6-1.1-3.4-1.7-5.3-1.7c-5.2,0-9.5,4.3-9.5,9.5v0.7h1.4l0-0.2c0-0.1,0-0.3,0-0.4c0-4.5,3.7-8.2,8.2-8.2c1.6,0,3.1,0.4,4.4,1.3
	l-6,6c-0.4,0.4-0.8,0.9-1,1.4c-0.2,0.6-0.3,1.1-0.3,1.1c0,0.2,0,0.4,0,0.6v0.7h0.7c1.6,0,2.4-0.6,3-1.1l6.1-6.1
	c0.9,1.3,1.3,2.8,1.3,4.4c0,4.5-3.7,8.2-8.2,8.2c-3.9,0-7.2-2.8-8-6.5l0-0.1h-1.3l0,0.1c0.8,4.5,4.7,7.8,9.3,7.8
	c5.2,0,9.5-4.3,9.5-9.5c0-1.9-0.6-3.8-1.7-5.3L32.8,8.5z M22.3,16.5c0.1-0.6,0.4-1,0.8-1.5l8.1-8.1c0.1-0.1,0.2-0.1,0.3-0.1
	c0.1,0,0.2,0,0.3,0.1C31.9,7,32,7.1,32,7.2s0,0.2-0.1,0.3l-8.1,8.1C23.3,16.1,22.9,16.4,22.3,16.5z"/>
</svg>
