<?xml version="1.0" encoding="utf-8"?>
<!-- Generator: Adobe Illustrator 21.1.0, SVG Export Plug-In . SVG Version: 6.00 Build 0)  -->
<svg version="1.1" id="圖層_1" xmlns="http://www.w3.org/2000/svg" xmlns:xlink="http://www.w3.org/1999/xlink" x="0px" y="0px"
	 viewBox="0 0 200 50" style="enable-background:new 0 0 200 50;" xml:space="preserve">
<style type="text/css">
	.st0{fill:#00C853;}
</style>
<g>
	<g>
		<g>
			<path class="st0" d="M64.9,27.1v5.1c0,0.8-0.2,1.1-0.6,1.3c-0.5,0.2-1.2,0.3-2.4,0.3c-0.1-0.3-0.2-0.9-0.4-1.2c0.9,0,1.6,0,1.9,0
				c0.3,0,0.4-0.1,0.4-0.3v-4.7c-0.9,0.3-1.7,0.5-2.4,0.7l-0.4-1.3c0.8-0.2,1.7-0.5,2.8-0.7v-3.9H61V21h2.6v-3.6h1.3V21h2.2v1.3
				h-2.2v3.5c0.7-0.2,1.5-0.4,2.2-0.6l0.2,1.2L64.9,27.1z M76.1,24.8c-0.8,1.6-1.9,3.3-3.2,4.7c0.7,1.7,1.5,2.7,2.5,2.8
				c0.5,0,0.8-0.9,1-2.9c0.3,0.3,0.8,0.6,1.1,0.7c-0.4,2.9-1.1,3.8-2,3.7c-1.6-0.1-2.8-1.3-3.7-3.3c-1.2,1.1-2.6,2.1-4.1,2.7
				c-0.3-0.3-0.7-0.8-1-1c1.7-0.6,3.2-1.7,4.6-3c-0.5-1.6-0.9-3.5-1.2-5.7l-2.8,0.3l-0.1-1.3l2.8-0.3c-0.1-1.5-0.3-3.1-0.3-4.7H71
				c0.1,1.6,0.2,3.1,0.3,4.6l5.5-0.6l0.1,1.2l-5.5,0.6c0.2,1.8,0.6,3.4,0.9,4.7c1.1-1.2,2-2.6,2.6-3.9L76.1,24.8z M74.7,21.2
				c-0.5-0.8-1.5-1.9-2.4-2.7l1-0.7c0.9,0.8,2,1.8,2.5,2.6L74.7,21.2z"/>
			<path class="st0" d="M89.1,20c-0.4,0.7-0.8,1.3-1.3,2v11.8h-1.4v-10c-1.8,2.1-4,3.9-6.5,5.2c-0.2-0.3-0.6-0.9-0.9-1.2
				c3.5-1.8,6.6-4.8,8.4-7.9h-8v-1.3h15.4V20H89.1z M89.2,23c2.1,1.4,4.8,3.4,6.1,4.7l-1.1,1c-1.3-1.4-3.9-3.5-6.1-4.9L89.2,23z"/>
			<path class="st0" d="M102.7,30.8c1.2-0.2,2.5-0.5,3.7-0.7l0.1,1.2c-3.2,0.6-6.6,1.3-8.9,1.7l-0.3-1.3c1.1-0.2,2.6-0.5,4.1-0.7v-3
				h-3.5v-1.2h3.5v-1.9h1.3v1.9h3.6V28h-3.6V30.8z M97.4,18.6h9.2v1.2h-4.9c-0.6,1.2-1.4,2.4-2.1,3.3l4.6-0.4
				c-0.4-0.6-0.9-1.2-1.3-1.8l1-0.6c1,1.2,2.2,2.8,2.7,3.9l-1,0.7c-0.1-0.3-0.4-0.7-0.6-1.1c-5.6,0.5-6.2,0.6-6.7,0.8
				c-0.1-0.3-0.3-0.9-0.5-1.3c0.3-0.1,0.6-0.4,0.9-0.8c0.3-0.4,1-1.5,1.6-2.8h-2.8V18.6z M108.9,29.8h-1.3V19h1.3V29.8z M112.5,17.7
				v14c0,0.8-0.2,1.3-0.7,1.5c-0.6,0.2-1.5,0.3-2.8,0.3c-0.1-0.3-0.3-1-0.5-1.3c1,0,2,0,2.3,0c0.3,0,0.4-0.1,0.4-0.4V17.7H112.5z"/>
			<path class="st0" d="M116.7,28.1c1.4-0.6,2.2-1.4,2.3-2.6c-0.1,0-0.2,0-0.3,0c-0.7,0-1.4-0.4-1.4-1.3s0.6-1.3,1.4-1.3
				c1,0,1.5,0.8,1.5,2.1c0,1.9-1.2,3.4-3.1,4.1L116.7,28.1z"/>
			<path class="st0" d="M139.2,25.3c-0.8,1.5-1.9,3-3.1,4.2c0.7,1.9,1.5,3,2.4,3c0.5,0,0.7-0.9,0.8-3.2c0.3,0.3,0.8,0.6,1.1,0.7
				c-0.3,3-0.7,3.8-2.1,3.8c-1.4,0-2.5-1.3-3.3-3.4c-1.2,1-2.4,1.9-3.8,2.6c-0.2-0.3-0.6-0.8-0.9-1.1c1.5-0.7,3-1.7,4.3-2.9
				c-0.4-1.5-0.8-3.3-1-5.2h-4.2v2.9c1.1-0.2,2.2-0.5,3.2-0.7l0.1,1.2c-1.1,0.3-2.2,0.5-3.3,0.8v4c0,0.9-0.2,1.3-0.8,1.5
				c-0.6,0.2-1.5,0.3-3,0.3c-0.1-0.4-0.3-1-0.5-1.4c1.2,0.1,2.2,0,2.5,0c0.3,0,0.4-0.1,0.4-0.4v-3.7c-1.4,0.3-2.6,0.6-3.7,0.8
				l-0.4-1.3c1.1-0.2,2.5-0.5,4.1-0.8V24h-3.9v-1.3h3.9v-2.9c-1.1,0.2-2.3,0.4-3.3,0.5c-0.1-0.3-0.3-0.8-0.4-1.1
				c2.5-0.4,5.4-1,7.1-1.6l1,1.1c-0.9,0.3-1.9,0.6-3,0.8v3.1h4.1c-0.2-1.6-0.2-3.4-0.3-5.1h1.4c0,1.8,0.1,3.5,0.2,5.1h5.3V24h-5.1
				c0.2,1.5,0.4,2.9,0.7,4.1c1-1,1.7-2.1,2.4-3.3L139.2,25.3z M138.6,21.7c-0.6-0.8-1.8-2.1-2.8-3.1l1-0.7c1,0.9,2.3,2.1,2.9,3
				L138.6,21.7z"/>
			<path class="st0" d="M154.4,28.8c-0.6,1-1.4,1.8-2.3,2.5c2.2,0.5,4.2,1,5.7,1.6l-1.2,1c-1.5-0.6-3.5-1.2-5.9-1.7
				c-2,1-4.6,1.5-8,1.7c-0.1-0.4-0.3-0.9-0.5-1.2c2.6-0.2,4.8-0.5,6.5-1c-1.3-0.3-2.8-0.5-4.2-0.8c0.5-0.6,1.1-1.3,1.6-2.1h-3.9
				v-1.2h4.6c0.4-0.6,0.8-1.3,1.1-1.9l1.3,0.3c-0.2,0.5-0.5,1.1-0.9,1.6h5.2c0.2-0.3,0.3-0.7,0.5-1l1.3,0.4
				c-0.1,0.2-0.1,0.5-0.3,0.7h3.1v1.2H154.4z M147.3,19.4h-4.9v-1.2h15.4v1.2h-5.1v1.5h4.3v4.6h-13.7v-4.6h4V19.4z M144.6,24.4h2.7
				V22h-2.7V24.4z M147.5,28.8c-0.3,0.5-0.7,1-1,1.4c1.3,0.2,2.6,0.5,3.8,0.7c1-0.5,1.8-1.2,2.5-2.1H147.5z M151.5,19.4h-2.9v1.5
				h2.9V19.4z M148.6,24.4h2.9V22h-2.9V24.4z M152.7,22v2.4h3V22H152.7z"/>
			<path class="st0" d="M162.8,28.8c-0.4,1.3-1.2,2.7-1.9,3.6c-0.2-0.2-0.7-0.5-0.9-0.6c0.7-0.8,1.3-2.1,1.7-3.2L162.8,28.8z
				 M165,27.6v6.2h-1.3v-6.2h-3.6v-1.2h3.6v-1.9H160v-1.1h5c0.3-0.8,0.8-2,1-2.8l1.2,0.3c-0.3,0.9-0.7,1.8-1,2.6h2.3v1.1H165v1.9
				h3.3v1.2H165z M168.2,20.4h-7.9v-1.1h3.5c-0.2-0.5-0.5-1.2-0.8-1.6l1.3-0.3c0.4,0.6,0.8,1.4,1,2h2.8V20.4z M162.1,23.3
				c-0.1-0.7-0.4-1.7-0.7-2.5l1.1-0.3c0.4,0.8,0.7,1.8,0.7,2.4L162.1,23.3z M166.7,28.4c0.6,0.9,1.2,2.1,1.5,2.8l-1,0.5
				c-0.3-0.8-0.9-2-1.5-2.9L166.7,28.4z M176.3,24.7h-2v9.1H173v-9.1h-2.5v0.6c0,2.6-0.2,6.1-1.9,8.4c-0.2-0.3-0.7-0.7-1-0.8
				c1.5-2.2,1.7-5.2,1.7-7.6v-6.2c2-0.3,4.3-0.9,5.6-1.4l1.1,1c-1.5,0.6-3.5,1-5.4,1.3v3.4h5.7V24.7z"/>
			<path class="st0" d="M183.1,28.3l0.2,1.2c-1.7,0.7-3.5,1.4-5,2l-0.4-1.3c0.6-0.2,1.3-0.4,2.1-0.7V23h-1.9v-1.2h1.9v-4.2h1.2v4.2
				h1.8V23h-1.8v5.9L183.1,28.3z M193.4,20V26h-9.6V20h5.7c0.5-0.7,1.2-1.9,1.5-2.6l1.4,0.5c-0.5,0.7-1,1.5-1.5,2.2H193.4z
				 M184.8,27.1h7.8v6.8h-1.3V33H186v0.8h-1.2V27.1z M184.9,25h3.2v-4h-3.2V25z M186.2,17.5c0.5,0.6,1.1,1.4,1.3,2l-1.2,0.6
				c-0.3-0.6-0.8-1.4-1.3-2.1L186.2,17.5z M186.3,21.5c0.5,0.8,1.1,1.8,1.3,2.5l-0.8,0.4c-0.2-0.7-0.7-1.8-1.2-2.6L186.3,21.5z
				 M186,28.1v1.5h5.3v-1.5H186z M191.3,31.9v-1.3H186v1.3H191.3z M192.2,21h-3.1v4h3.1V21z M189.5,24.1c0.5-0.7,1.1-1.8,1.4-2.6
				l0.9,0.3c-0.5,0.9-1.1,1.9-1.6,2.6L189.5,24.1z"/>
		</g>
	</g>
	<path class="st0" d="M51.6,25c0,12.4-10.1,22.5-22.5,22.5c-11,0-20.2-8-22.1-18.5h2.7c1.8,9.1,9.8,15.9,19.5,15.9
		C40.1,44.9,49,36,49,25S40.1,5.1,29.1,5.1S9.3,14,9.3,25c0,0.4,0,0.9,0.1,1.3H6.6V25c0-12.4,10.1-22.5,22.5-22.5S51.6,12.6,51.6,25
		z M27.8,15.7v7.9h-7.9v2.6h7.9v7.9h2.6v-7.9h7.9v-2.6h-7.9v-7.9H27.8z"/>
</g>
</svg>
