<?xml version="1.0" encoding="utf-8"?>
<!-- Generator: Adobe Illustrator 21.1.0, SVG Export Plug-In . SVG Version: 6.00 Build 0)  -->
<svg version="1.1" id="圖層_1" xmlns="http://www.w3.org/2000/svg" xmlns:xlink="http://www.w3.org/1999/xlink" x="0px" y="0px"
	 viewBox="0 0 120 120" style="enable-background:new 0 0 120 120;" xml:space="preserve">
<style type="text/css">
	.st0{fill:#00C853;}
	.st1{fill:#FFFFFF;}
</style>
<g>
	<path class="st0" d="M62.8,107.1c0.2-0.2,0.3-0.4,0.5-0.6c2.1-2.5,3.5-5.5,4.2-8.7c0.4-2.2-0.1-2.1-2.3-1.9c-0.3,0-0.8,0.1-1.1,0.1
		c-3.5,0-7.1,0.1-10.6,0c-2.1-0.1-4.3-0.5-6.4-1.1c-2.9-0.7-5.7-1.8-8.4-3.2c-2.6-1.4-5.1-3-7.3-5c-1.8-1.7-3.7-3.4-5.3-5.2
		c-2.8-3.1-5.1-6.6-6.8-10.5c-1.1-2.6-1.9-5.2-2.5-7.9c-0.4-1.9-0.6-3.9-0.6-5.9c-0.1-2.8-0.1-5.6,0-8.3c0.1-2,0.5-3.9,0.8-5.9
		c0.6-3.7,2-7.2,3.8-10.5c1.3-2.2,2.8-4.4,4.4-6.4c1.1-1.5,2.5-2.9,3.8-4.2c2.7-2.7,5.7-5,9.1-6.8c3.4-1.8,7-3.1,10.8-3.9
		c2.5-0.5,5.1-0.9,7.7-0.9c3.4,0.1,6.9-0.1,10.3,0.5c3.1,0.5,6.1,1.3,9,2.4c3.3,1.3,6.4,3,9.1,5.3c2,1.7,4,3.4,5.8,5.3
		c2.9,2.9,5.5,6.2,7.3,9.9c1.4,2.9,2.4,6,3.3,9.1c0.7,2.3,1.2,4.7,1.6,7.1c0.2,1.3,0.4,2.6,0.4,4c0.1,1.8,0.3,3.6,0.2,5.3
		c-0.2,3-0.6,6-1,9c-0.5,4.2-1.9,8.1-3.5,11.9c-1.3,3.1-2.9,6.1-4.8,8.9c-2,3-4.3,5.9-6.9,8.4c-1.6,1.5-3.4,3-5.2,4.2
		c-2.1,1.5-4.3,2.9-6.6,4.1c-3.6,1.8-7.4,3.2-11.4,3.8c0,0,0,0,0,0C62.8,109.8,61.9,108.2,62.8,107.1z"/>
	<path class="st1" d="M70.3,35.3c-5.5,0-9.2,3-11.4,5.2l-1.2,1.2c0.4,0.3,0.8,0.7,1.2,1.1l1.1,1.1l1.1-1.1c3-3,5.7-4.3,9.1-4.3
		c6.2,0,10.5,4.7,10.5,11.3c0,9.6-7.7,16.2-19.2,26.1L60,77.2l-1.5-1.3C46.9,66,39.2,59.4,39.2,49.8c0-6.7,4.3-11.3,10.5-11.3
		c1.9,0,3.6,0.4,5.3,1.3l1.6-1.6c0.2-0.2,0.5-0.5,0.8-0.8c-2.4-1.5-4.9-2.2-7.7-2.2c-8,0-13.7,6.1-13.7,14.5
		c0,11.1,8.5,18.4,20.4,28.6l3.6,3.1l3.6-3.1C75.4,68.2,84,60.9,84,49.8C84,41.4,78.2,35.3,70.3,35.3z"/>
</g>
</svg>
