<?xml version="1.0" encoding="utf-8"?>
<!-- Generator: Adobe Illustrator 21.1.0, SVG Export Plug-In . SVG Version: 6.00 Build 0)  -->
<svg version="1.1" id="圖層_1" xmlns="http://www.w3.org/2000/svg" xmlns:xlink="http://www.w3.org/1999/xlink" x="0px" y="0px"
	 viewBox="0 0 420 130" style="enable-background:new 0 0 420 130;" xml:space="preserve">
<style type="text/css">
	.st0{fill:#00C853;}
	.st1{fill:none;stroke:#00C853;stroke-width:2;stroke-miterlimit:10;}
	.st2{opacity:0.7;}
</style>
<g>
	<g>
		<path class="st0" d="M158,57.3c-0.2,0.2-0.4,0.5-0.5,0.7c3.3,3.3,9.6,6.2,15.2,7.5c-0.5,0.5-1.3,1.4-1.7,2.1
			c-2.9-0.8-6-2.1-8.8-3.6V65h-12.5v-1c-2.8,1.5-5.8,2.7-8.8,3.7c-0.3-0.5-1-1.5-1.5-2.1c6.5-1.7,12.9-4.9,16.3-9.3L158,57.3z
			 M143.9,66.8h24v9.1h-24V66.8z M146,77.5h20.2v11.7h-2.7v-1.1h-14.9v1.2H146V77.5z M146.2,74h8.5v-5.4h-8.5V74z M150.3,69
			c0.9,1.3,1.8,2.9,2.2,4.1l-2.1,0.8c-0.3-1.2-1.1-2.9-2-4.2L150.3,69z M148.6,79.4v2.4h14.9v-2.4H148.6z M163.5,86.2v-2.4h-14.9
			v2.4H163.5z M160.8,63.1c-1.7-1.1-3.4-2.3-4.8-3.6c-1.4,1.3-3,2.6-4.6,3.6H160.8z M165.5,68.6H157V74h8.6V68.6z M159.3,73.2
			c0.6-1.2,1.6-3.1,2-4.3l2.3,0.7c-0.8,1.5-1.7,3.2-2.4,4.2L159.3,73.2z"/>
		<path class="st0" d="M186.2,83.4l2.4,1.5c-2.9,1.8-7.5,3.5-11.2,4.4c-0.5-0.5-1.3-1.4-2-2c3.7-0.9,8.3-2.5,10.6-4h-6.7V68h25.4
			v15.4H186.2z M203.3,66h-22.5v-8.1h22.5V66z M182,72.5h20V70h-20V72.5z M182,77h20v-2.5h-20V77z M182,81.5h20v-2.6h-20V81.5z
			 M200.5,60.1h-17v3.7h17V60.1z M197.1,83.5c3.7,1.1,8.5,2.8,11.3,4l-2.3,1.9c-2.7-1.3-7.5-3.1-11.3-4.2L197.1,83.5z"/>
		<path class="st0" d="M244.1,81.4h-8.6v5.1c0,1.4-0.3,2.1-1.4,2.4c-1.1,0.4-2.9,0.4-5.8,0.4c-0.1-0.7-0.5-1.7-0.9-2.3
			c2.2,0.1,4.2,0.1,4.8,0c0.5,0,0.7-0.2,0.7-0.6v-5.1h-13.6c2.1,1.2,4.6,3.1,5.9,4.4l-1.9,1.8c-1.3-1.4-3.8-3.3-5.9-4.7l1.8-1.5
			h-7.5v-2.2H233V77c-7.4,0.2-14.6,0.4-19.8,0.4l-0.1-2.1c3.6,0,8.3,0,13.4-0.1v-2h-11v-9.8h11v-2h-13.8v-2.2h13.8v-2.7h2.6v2.7
			h13.6v2.2h-13.6v2h11.4v9.8h-4.2c2.4,1,5,2.4,6.4,3.5l-1.6,1.5c-0.5-0.4-1.3-0.9-2.1-1.4l-3.6,0.1v2.3h8.6V81.4z M218.1,67.4h8.5
			v-2.2h-8.5V67.4z M226.5,71.4v-2.2h-8.5v2.2H226.5z M229.1,65.3v2.2h8.7v-2.2H229.1z M237.9,69.2h-8.7v2.2h8.7V69.2z M229.1,75.2
			l6.8-0.1c-0.9-0.4-1.9-0.8-2.7-1.1l0.9-0.8h-4.9V75.2z"/>
		<path class="st0" d="M273.7,85.2c1.9,0,4.7-0.1,6-0.4c0.1,0.8,0.3,2,0.4,2.6c-0.9,0.3-3.7,0.3-6.4,0.3h-15.8c-5.5,0-8.2-1.7-8.2-7
			V60.6h-1.5v-2.4h30.2v2.4h-26.1v20.3c0,3.1,1.4,4.3,5.3,4.3H273.7z M255.1,73.3h9.4v9.2h-9.4V73.3z M257.3,80.6h4.8v-5.3h-4.8
			V80.6z M272.3,70.9H259v-8h13.4V70.9z M269.7,64.8h-8.2v4.1h8.2V64.8z M276.5,82.5h-9.7v-9.2h9.7V82.5z M274.2,75.3h-5v5.3h5V75.3
			z"/>
	</g>
	<g>
		<path class="st1" d="M345.9,59c-5.2,0-32.4,5.2-32.4,5.2c-1.1,0.2-2-0.5-2-1.6v-11c0-1.1-0.9-2-2-2h-97.6c-1.1,0-2.9,0-4,0H190
			c-1.1,0-2.9,0-4,0h-75.7c-1.1,0-2,0.9-2,2v11c0,1.1-0.9,1.8-2,1.6c0,0-27.3-5.2-32.4-5.2c-8.6,0-15.6,7-15.6,15.6
			s7,15.6,15.6,15.6c5.2,0,32.4-5.2,32.4-5.2c1.1-0.2,2,0.5,2,1.6v11c0,1.1,0.9,2,2,2H186c1.1,0,2.9,0,4,0h17.9c1.1,0,2.9,0,4,0
			h97.6c1.1,0,2-0.9,2-2v-11c0-1.1,0.9-1.8,2-1.6c0,0,27.3,5.2,32.4,5.2c8.6,0,15.6-7,15.6-15.6S354.5,59,345.9,59z"/>
	</g>
	<g class="st2">
		<g>
			<g>
				<rect x="34.4" y="71.8" class="st0" width="20" height="3"/>
			</g>
			<g>
				
					<rect x="48.1" y="53.1" transform="matrix(0.3511 -0.9363 0.9363 0.3511 -25.8543 85.9488)" class="st0" width="2" height="17.1"/>
			</g>
			<g>
				<rect x="58.6" y="47.6" transform="matrix(0.6 -0.8 0.8 0.6 -19.1209 68.6492)" class="st0" width="1" height="11.7"/>
			</g>
			<g>
				
					<rect x="39.2" y="85.9" transform="matrix(0.9362 -0.3514 0.3514 0.9362 -27.5081 22.3394)" class="st0" width="17.1" height="2"/>
			</g>
			<g>
				
					<rect x="52" y="94.6" transform="matrix(0.8001 -0.5998 0.5998 0.8001 -45.5119 53.6763)" class="st0" width="11.7" height="1"/>
			</g>
		</g>
		<g>
			<g>
				<rect x="365.6" y="71.8" class="st0" width="20" height="3"/>
			</g>
			<g>
				
					<rect x="362.4" y="60.6" transform="matrix(0.9362 -0.3514 0.3514 0.9362 2.0023 134.2877)" class="st0" width="17.1" height="2"/>
			</g>
			<g>
				
					<rect x="355.1" y="52.9" transform="matrix(0.8001 -0.5998 0.5998 0.8001 40.0821 227.175)" class="st0" width="11.7" height="1"/>
			</g>
			<g>
				
					<rect x="371.2" y="78.4" transform="matrix(0.3511 -0.9363 0.9363 0.3511 160.1145 404.9347)" class="st0" width="2" height="17.1"/>
			</g>
			<g>
				<rect x="361.7" y="89.3" transform="matrix(0.6 -0.8 0.8 0.6 68.78 327.8195)" class="st0" width="1" height="11.7"/>
			</g>
		</g>
	</g>
</g>
</svg>
