<?xml version="1.0" encoding="utf-8"?>
<!-- Generator: Adobe Illustrator 21.1.0, SVG Export Plug-In . SVG Version: 6.00 Build 0)  -->
<svg version="1.1" id="圖層_1" xmlns="http://www.w3.org/2000/svg" xmlns:xlink="http://www.w3.org/1999/xlink" x="0px" y="0px"
	 viewBox="0 0 120 120" style="enable-background:new 0 0 120 120;" xml:space="preserve">
<style type="text/css">
	.st0{fill:#00C853;}
	.st1{fill:#FFFFFF;}
</style>
<path class="st0" d="M62.8,107.1c0.2-0.2,0.3-0.4,0.5-0.6c2.1-2.5,3.5-5.5,4.2-8.7c0.4-2.2-0.1-2.1-2.3-1.9c-0.3,0-0.8,0.1-1.1,0.1
	c-3.5,0-7.1,0.1-10.6,0c-2.1-0.1-4.3-0.5-6.4-1.1c-2.9-0.7-5.7-1.8-8.4-3.2c-2.6-1.4-5.1-3-7.3-5c-1.8-1.7-3.7-3.4-5.3-5.2
	c-2.8-3.1-5.1-6.6-6.8-10.5c-1.1-2.6-1.9-5.2-2.5-7.9c-0.4-1.9-0.6-3.9-0.6-5.9c-0.1-2.8-0.1-5.6,0-8.3c0.1-2,0.5-3.9,0.8-5.9
	c0.6-3.7,2-7.2,3.8-10.5c1.3-2.2,2.8-4.4,4.4-6.4c1.1-1.5,2.5-2.9,3.8-4.2c2.7-2.7,5.7-5,9.1-6.8c3.4-1.8,7-3.1,10.8-3.9
	c2.5-0.5,5.1-0.9,7.7-0.9c3.4,0.1,6.9-0.1,10.3,0.5c3.1,0.5,6.1,1.3,9,2.4c3.3,1.3,6.4,3,9.1,5.3c2,1.7,4,3.4,5.8,5.3
	c2.9,2.9,5.5,6.2,7.3,9.9c1.4,2.9,2.4,6,3.3,9.1c0.7,2.3,1.2,4.7,1.6,7.1c0.2,1.3,0.4,2.6,0.4,4c0.1,1.8,0.3,3.6,0.2,5.3
	c-0.2,3-0.6,6-1,9c-0.5,4.2-1.9,8.1-3.5,11.9c-1.3,3.1-2.9,6.1-4.8,8.9c-2,3-4.3,5.9-6.9,8.4c-1.6,1.5-3.4,3-5.2,4.2
	c-2.1,1.5-4.3,2.9-6.6,4.1c-3.6,1.8-7.4,3.2-11.4,3.8c0,0,0,0,0,0C62.8,109.8,61.9,108.2,62.8,107.1z"/>
<path class="st1" d="M75.3,44.9c-0.8,0.6-1.8,0.5-3.1,0c0.1,0.6,0.1,1.2,0.1,1.5c0,0.2,0,0.7,0,1.4c1.6,0.5,3.2,0.4,4.7-0.8l6.2-4.9
	l0,13.4c-2.4,1.9-2.9,2.3-5.7,5l-2-1.6l-2.2,1.7l3.6,2.8c0.5,0.4,0.9,0.8,0.9,2.1c0,0.4-0.1,0.9-0.7,1.5l-6-4.7l-2.2,1.7l6.1,4.8
	l-2.2,1.7l-6-4.8l-2.2,1.7l6,4.8l-2.2,1.7l-6.1-4.8L60,71.1l6,4.7c-2,1.3-2.8,1-4.2,0.1c-0.3-0.2-2.1-1.6-4-3.1l2.2-1.7l-2.2-1.7
	l-6.1,4.7l-2.2-1.7l6.1-4.8l-2.2-1.7l-6.1,4.8L45,68.9l6.1-4.8l-2.2-1.7l-6,4.7c-0.6-0.6-0.7-1.1-0.7-1.5c0-1.3,0.3-1.7,0.9-2.1
	c1.1-0.8,13.7-10.9,16.1-12.8h2.2v2.7c0,2.3,1.8,4.1,4.1,4.1c2.1,0,3.6-1.6,3.8-1.8l0.3-0.4l0-0.5c0,0,0-7.5,0-8.4
	c0-1.1,0-2.9-1.7-4.2c-2.2-1.8-6.2-2.5-7.9-2.5c-3.3,0-6.3,1.8-8.9,3.3c-3.1,1.8-5,2.9-6.4,1.8L34,36.5l0,19.7l0.1,0.7l0.5,0.4
	c2.7,2.1,3,2.3,5.8,5.1c-0.6,0.9-0.9,1.9-0.9,3.2c0,1.7,0.8,3.1,2.5,4.4l12.1,9.4l2.2-1.7l-2.4-1.9l1.7-1.3c1.7,1.3,4.4,3.4,4.7,3.7
	c1.3,0.8,2.4,1.2,3.5,1.2c1.7,0,3.3-0.9,5.3-2.5L78,70c1.7-1.3,2.5-2.8,2.5-4.4c0-1.3-0.3-2.4-0.9-3.2c2.8-2.7,3.1-2.9,5.9-5.1
	l0.5-0.4l0-20.3L75.3,44.9z M36.7,55.5l0-13.4L43,47c2.9,2.3,6.3,0.3,9.5-1.6c2.4-1.4,5-2.9,7.5-2.9c1.3,0,4.6,0.7,6.2,1.9
	c0.5,0.4,0.6,1,0.6,2.1c0,0.7,0,6,0,7.8c-0.3,0.3-0.9,0.6-1.4,0.6c-0.8,0-1.4-0.6-1.4-1.4V48h-5.9l-0.4,0.3c0,0-11.7,9.3-15.4,12.3
	C39.6,57.8,39.2,57.4,36.7,55.5z"/>
</svg>
