<?xml version="1.0" encoding="utf-8"?>
<!-- Generator: Adobe Illustrator 21.1.0, SVG Export Plug-In . SVG Version: 6.00 Build 0)  -->
<svg version="1.1" id="Layer_1" xmlns="http://www.w3.org/2000/svg" xmlns:xlink="http://www.w3.org/1999/xlink" x="0px" y="0px"
	 viewBox="0 0 38 38" style="enable-background:new 0 0 38 38;" xml:space="preserve">
<style type="text/css">
	.st0{fill:#fbf8f1;}
</style>
<path class="st0" d="M15.2,14.2l4.2,4.2l4.2-4.2l1.4,1.4l-4.2,4.2l4.2,4.2l-1.4,1.4l-4.2-4.2l-4.2,4.2l-1.4-1.4l4.2-4.2l-4.2-4.2
	L15.2,14.2z M19.4,2.9c-9.4,0-17,7.6-17,17c0,5.1,2.2,9.6,5.7,12.7l1.4-1.4c-3.1-2.8-5.1-6.8-5.1-11.3c0-8.3,6.7-15,15-15
	s15,6.7,15,15s-6.7,15-15,15c-3.1,0-5.9-0.9-8.3-2.5l-1.4,1.4c2.8,1.9,6.1,3.1,9.7,3.1c9.4,0,17-7.6,17-17S28.8,2.9,19.4,2.9z"/>
</svg>
