<?xml version="1.0" encoding="utf-8"?>
<!-- Generator: Adobe Illustrator 21.1.0, SVG Export Plug-In . SVG Version: 6.00 Build 0)  -->
<svg version="1.1" id="圖層_1" xmlns="http://www.w3.org/2000/svg" xmlns:xlink="http://www.w3.org/1999/xlink" x="0px" y="0px"
	 viewBox="0 0 60 60" style="enable-background:new 0 0 60 60;" xml:space="preserve">
<style type="text/css">
	.st0{fill:#BBBBBB;}
	.st1{fill:#FF00FF;}
	.st2{fill:#999999;}
</style>
<g>
	<rect x="25.8" y="1170.4" class="st0" width="8.3" height="1.3"/>
	<rect x="25.8" y="1177.4" class="st0" width="8.3" height="1.3"/>
	<path class="st0" d="M36.3,1180.9H23.6v-17.3h8.7c0.1,0,0.5,0,0.5,0.5v2.8h-7v1.3h11.9l-0.1-0.1c0,0-3.6-4.8-3.9-5.2
		c-0.3-0.4-0.9-0.7-1.4-0.7h-10v20h15.3v-13h-1.3V1180.9z M34.1,1165.7l0.9,1.2h-0.9V1165.7z"/>
	<rect x="25.8" y="1173.9" class="st0" width="8.3" height="1.3"/>
</g>
<g>
	<path class="st1" d="M55,1157.3h-3v0.3h3V1157.3L55,1157.3z M50,1157.3h-3v0.3h3V1157.3L50,1157.3z M45,1157.3h-3v0.3h3V1157.3
		L45,1157.3z M40,1157.3h-3v0.3h3V1157.3L40,1157.3z M35,1157.3h-3v0.3h3V1157.3L35,1157.3z M30,1157.3h-3v0.3h3V1157.3L30,1157.3z
		 M25,1157.3h-3v0.3h3V1157.3L25,1157.3z M20,1157.3h-3v0.3h3V1157.3L20,1157.3z M15,1157.3h-3v0.3h3V1157.3L15,1157.3z M10,1157.3
		H7v0.3h3V1157.3L10,1157.3z M5.3,1157.3H5v3h0.3V1157.3L5.3,1157.3z M5.3,1162.3H5v3h0.3V1162.3L5.3,1162.3z M5.3,1167.3H5v3h0.3
		V1167.3L5.3,1167.3z M5.3,1172.3H5v3h0.3V1172.3L5.3,1172.3z M5.3,1177.3H5v3h0.3V1177.3L5.3,1177.3z M5.3,1182.3H5v3h0.3V1182.3
		L5.3,1182.3z M8,1187H5v0.3h3V1187L8,1187z M13,1187h-3v0.3h3V1187L13,1187z M18,1187h-3v0.3h3V1187L18,1187z M23,1187h-3v0.3h3
		V1187L23,1187z M28,1187h-3v0.3h3V1187L28,1187z M33,1187h-3v0.3h3V1187L33,1187z M38,1187h-3v0.3h3V1187L38,1187z M43,1187h-3v0.3
		h3V1187L43,1187z M48,1187h-3v0.3h3V1187L48,1187z M53,1187h-3v0.3h3V1187L53,1187z M55,1184.3h-0.3v3H55V1184.3L55,1184.3z
		 M55,1179.3h-0.3v3H55V1179.3L55,1179.3z M55,1174.3h-0.3v3H55V1174.3L55,1174.3z M55,1169.3h-0.3v3H55V1169.3L55,1169.3z
		 M55,1164.3h-0.3v3H55V1164.3L55,1164.3z M55,1159.3h-0.3v3H55V1159.3L55,1159.3z"/>
</g>
<g>
	<g>
		<path class="st0" d="M30,1c16,0,29,13,29,29S46,59,30,59S1,46,1,30S14,1,30,1 M30,0C13.4,0,0,13.4,0,30s13.4,30,30,30
			s30-13.4,30-30S46.6,0,30,0L30,0z"/>
	</g>
	<g>
		<path class="st2" d="M24.1,34.8c0.3-0.1,0.7-0.3,1.1-0.5c0.3-0.1,0.5-0.3,0.8-0.4c0.7-0.4,1.3-0.8,1.7-1.5c1,0.3,2.1,0.3,3.2,0
			c0.3,0.7,1,1.1,1.7,1.5c0.2,0.1,0.5,0.2,0.8,0.4c0.4,0.2,0.8,0.3,1.1,0.5c0.4,0.2,0.8,0.3,1.1,0.5l0.2,0.1l1.3-1.3l-0.4-0.2
			c-0.5-0.3-1-0.5-1.5-0.7c-0.3-0.1-0.7-0.3-1-0.4c-0.1-0.1-0.2-0.1-0.3-0.2l-0.1-0.1c-0.9-0.4-1.1-0.6-1.2-0.9
			c1.3-1,2.2-2.6,2.2-4.3v-6.8l-1,0.2c-0.4,0.1-0.6,0.1-0.9,0.1c-0.7,0-1.2-0.1-1.8-0.3c-0.5-0.1-1.2-0.3-2-0.3
			c-1,0-1.8,0.4-2.4,1.2l-0.2,0.3l1.4,1l0.2-0.3c0.2-0.3,0.6-0.5,1-0.5c0.6,0,1.1,0.1,1.6,0.2c0.6,0.1,1.2,0.3,2.2,0.3
			c0.1,0,0.1,0,0.2,0v4.7c0,1.7-1.3,3.5-3.5,3.5c-2.2,0-3.5-1.8-3.5-3.5v-5.9c0.2-0.6,0.9-2.1,3.1-2.1c0.8,0,1.5,0.1,2.1,0.3
			c0.5,0.1,1.1,0.3,1.7,0.3c0.7,0,1.3-0.2,1.7-0.3l0.2-0.1v-1.9l-0.4,0.2c-0.3,0.1-0.9,0.3-1.5,0.3c-0.4,0-0.8-0.1-1.3-0.2
			c-0.7-0.2-1.4-0.3-2.5-0.3c-3.1,0-4.5,2.3-4.8,3.5l0,6.2c0,1.7,0.8,3.3,2.2,4.3c-0.1,0.2-0.3,0.4-1.2,0.9l-0.1,0.1
			c-0.1,0.1-0.2,0.1-0.3,0.2c-0.4,0.2-0.7,0.3-1.1,0.5c-1.9,0.8-3.3,1.4-3.9,5.1l-0.1,1h12.4l1.8-1.8H21.5
			C21.9,35.7,22.6,35.4,24.1,34.8z"/>
		<path class="st2" d="M14.6,32.1h-2c1.3,7.5,7.6,13.3,15.2,13.9c0.1-0.8,0.2-1.5,0.3-2C21.4,43.5,15.9,38.6,14.6,32.1z"/>
		<path class="st2" d="M14.3,29.1c0-8.3,6.7-15,15-15c7.4,0,13.6,5.4,14.8,12.5l1.2-1.2c0.2-0.2,0.3-0.3,0.5-0.4
			c-1.8-7.4-8.5-12.9-16.5-12.9c-9.4,0-17,7.6-17,17v1h2C14.3,29.7,14.3,29.4,14.3,29.1z"/>
		<path class="st2" d="M50.9,26.8c-1.1-1.1-3.1-1.1-4.2,0L32,41.4c-0.7,0.7-1.3,1.4-1.7,2.5c0,0-0.5,0.9-0.5,3v1h1
			c2.7,0,4.1-0.9,5.2-2l2-2L50.9,31c0.6-0.6,0.9-1.3,0.9-2.1C51.7,28.1,51.4,27.4,50.9,26.8z M49.4,29.6L34.8,44.3
			c-0.8,0.8-1.7,1.4-3,1.6c0.2-1.3,0.8-2.2,1.6-3L48,28.2c0.4-0.4,1-0.4,1.4,0c0.2,0.2,0.3,0.4,0.3,0.7
			C49.7,29.2,49.6,29.4,49.4,29.6z"/>
	</g>
</g>
</svg>
