<?xml version="1.0" encoding="utf-8"?>
<!-- Generator: Adobe Illustrator 21.1.0, SVG Export Plug-In . SVG Version: 6.00 Build 0)  -->
<svg version="1.1" id="圖層_1" xmlns="http://www.w3.org/2000/svg" xmlns:xlink="http://www.w3.org/1999/xlink" x="0px" y="0px"
	 viewBox="0 0 60 60" style="enable-background:new 0 0 60 60;" xml:space="preserve">
<style type="text/css">
	.st0{fill:#BBBBBB;}
	.st1{fill:#FF00FF;}
	.st2{fill:#999999;}
</style>
<g>
	<rect x="25.8" y="1170.4" class="st0" width="8.3" height="1.3"/>
	<rect x="25.8" y="1177.4" class="st0" width="8.3" height="1.3"/>
	<path class="st0" d="M36.3,1180.9H23.6v-17.3h8.7c0.1,0,0.5,0,0.5,0.5v2.8h-7v1.3h11.9l-0.1-0.1c0,0-3.6-4.8-3.9-5.2
		c-0.3-0.4-0.9-0.7-1.4-0.7h-10v20h15.3v-13h-1.3V1180.9z M34.1,1165.7l0.9,1.2h-0.9V1165.7z"/>
	<rect x="25.8" y="1173.9" class="st0" width="8.3" height="1.3"/>
</g>
<g>
	<path class="st1" d="M55,1157.3h-3v0.3h3V1157.3L55,1157.3z M50,1157.3h-3v0.3h3V1157.3L50,1157.3z M45,1157.3h-3v0.3h3V1157.3
		L45,1157.3z M40,1157.3h-3v0.3h3V1157.3L40,1157.3z M35,1157.3h-3v0.3h3V1157.3L35,1157.3z M30,1157.3h-3v0.3h3V1157.3L30,1157.3z
		 M25,1157.3h-3v0.3h3V1157.3L25,1157.3z M20,1157.3h-3v0.3h3V1157.3L20,1157.3z M15,1157.3h-3v0.3h3V1157.3L15,1157.3z M10,1157.3
		H7v0.3h3V1157.3L10,1157.3z M5.3,1157.3H5v3h0.3V1157.3L5.3,1157.3z M5.3,1162.3H5v3h0.3V1162.3L5.3,1162.3z M5.3,1167.3H5v3h0.3
		V1167.3L5.3,1167.3z M5.3,1172.3H5v3h0.3V1172.3L5.3,1172.3z M5.3,1177.3H5v3h0.3V1177.3L5.3,1177.3z M5.3,1182.3H5v3h0.3V1182.3
		L5.3,1182.3z M8,1187H5v0.3h3V1187L8,1187z M13,1187h-3v0.3h3V1187L13,1187z M18,1187h-3v0.3h3V1187L18,1187z M23,1187h-3v0.3h3
		V1187L23,1187z M28,1187h-3v0.3h3V1187L28,1187z M33,1187h-3v0.3h3V1187L33,1187z M38,1187h-3v0.3h3V1187L38,1187z M43,1187h-3v0.3
		h3V1187L43,1187z M48,1187h-3v0.3h3V1187L48,1187z M53,1187h-3v0.3h3V1187L53,1187z M55,1184.3h-0.3v3H55V1184.3L55,1184.3z
		 M55,1179.3h-0.3v3H55V1179.3L55,1179.3z M55,1174.3h-0.3v3H55V1174.3L55,1174.3z M55,1169.3h-0.3v3H55V1169.3L55,1169.3z
		 M55,1164.3h-0.3v3H55V1164.3L55,1164.3z M55,1159.3h-0.3v3H55V1159.3L55,1159.3z"/>
</g>
<g>
	<path class="st0" d="M30,1c16,0,29,13,29,29S46,59,30,59S1,46,1,30S14,1,30,1 M30,0C13.4,0,0,13.4,0,30s13.4,30,30,30
		s30-13.4,30-30S46.6,0,30,0L30,0z"/>
</g>
<g>
	<g>
		<circle class="st2" cx="30.9" cy="17.3" r="1.8"/>
		<circle class="st2" cx="37.7" cy="14.1" r="1.8"/>
		<circle class="st2" cx="44.1" cy="20.8" r="1.8"/>
	</g>
	<path class="st2" d="M35.9,9.7c-8.1,0-14.9,6.1-15.9,14c0.4,0.3,0.8,0.6,1.2,0.9c0.1,0.1,0.4,0.4,0.7,0.6c0.3-7.5,6.4-13.5,14-13.5
		c7.7,0,14,6.3,14,14c0,0.6-0.1,1.2-0.1,1.8c-2.7,1.5-5.2,1.3-7.7-0.8c0.1-0.3,0.1-0.7,0.1-1c0-3.5-2.8-6.3-6.3-6.3
		c-1.5,0-2.9,0.6-4,1.5c-2,0.3-3.8,1.4-5.3,3.1c-1.1,1.2-2.4,2-3.8,2.2c0.1,0.1,0.2,0.2,0.3,0.3c0.4,0.4,0.7,0.9,1.1,1.4
		c1.4-0.4,2.8-1.3,3.9-2.6c0.6-0.6,1.2-1.2,1.8-1.6c-0.2,0.6-0.3,1.3-0.3,2c0,3.5,2.8,6.3,6.3,6.3c2.4,0,4.5-1.3,5.5-3.3
		c1.6,1.2,3.3,1.8,5,1.8c0.9,0,1.9-0.2,2.8-0.5c-1.4,4.4-4.9,7.8-9.4,9.2l2.2,1.4c5.8-2.4,9.9-8.1,9.9-14.8
		C51.9,16.9,44.7,9.7,35.9,9.7z M35.9,30c-2.4,0-4.3-1.9-4.3-4.3s1.9-4.3,4.3-4.3s4.3,1.9,4.3,4.3S38.3,30,35.9,30z"/>
	<path class="st2" d="M41.2,42.3l-0.6-0.4l-1.1,1.7l0.6,0.4c1.1,0.7,1.4,2.1,0.7,3.2c-0.7,1.1-2.1,1.4-3.2,0.7l-8.2-5.2l2.5-3.9
		l5.9,3.7l1.1-1.7l-7.6-4.8l-1.7,2.7l-3.3-2.1c-1.4-3.3-3.4-6.8-5-8.7c-0.2-0.2-0.3-0.4-0.4-0.5c-0.1-0.2-0.8-0.8-1.2-1.1
		c-1-0.8-2.4-1.6-3.6-1.9c-0.7-0.2-1.1-0.2-1.7-0.2c-1.3,0-2.4,0.4-3.4,1.3c-1.1,0.9-2.1,2.5-2.5,3.8c-0.3,1-0.3,2.1,0,3.1
		c0.4,1.2,1.2,2.4,2.5,3.4c1.5,1.1,3,1.8,5.2,2.2c2.3,0.4,5.9,0.6,9.1,0.4c0,0,1.9,1.2,3.3,2.1l-1.8,2.9l9.9,6.2
		c2,1.3,4.7,0.7,5.9-1.4C43.8,46.3,43.2,43.6,41.2,42.3z M12.8,26.3c0.5-0.2,0.7-0.3,1.2-0.3c0.4,0,1,0,1.6,0.2
		c0.9,0.3,2,0.8,2.8,1.5c1.3,1,2.9,3.1,4.1,5.4c0.1,0.1,0.1,0.2,0.1,0.2c0,0-0.2-0.2-0.4-0.4c-1.3-1.3-2.7-2.5-3.9-3.3
		c-1.4-1-3.1-2.1-4.5-2.6c-0.4-0.2-0.6-0.2-1.2-0.4l-0.1,0L12.8,26.3z M19.9,36.8c-0.3,0-0.6,0-0.7,0c-2.4-0.2-3.9-0.5-5.3-1
		c-1.1-0.4-2.2-1.1-3-2c-0.4-0.5-0.7-0.8-0.9-1.3c-0.2-0.5-0.3-0.8-0.3-1.3l0-0.4l0.3,0.3c0.7,0.7,1.8,1.7,3.3,2.6
		c1.6,1,3.4,1.9,6.1,2.9l1,0.4L19.9,36.8z M22.8,35.9c-0.1,0-2.5-0.8-3.6-1.3c-2.8-1.1-4.7-2.1-6.4-3.4c-1.9-1.5-2.7-2.7-1.9-3.1
		C11,28,11.1,28,11.5,28c0.3,0,0.5,0,0.7,0.1c1.5,0.4,3.9,1.7,5.8,3.2c0.9,0.7,2.1,1.8,3.1,2.7c0.5,0.5,1.5,1.5,1.7,1.7
		C22.8,35.8,22.8,35.9,22.8,35.9z"/>
</g>
</svg>
