<?xml version="1.0" encoding="utf-8"?>
<!-- Generator: Adobe Illustrator 21.1.0, SVG Export Plug-In . SVG Version: 6.00 Build 0)  -->
<svg version="1.1" id="圖層_1" xmlns="http://www.w3.org/2000/svg" xmlns:xlink="http://www.w3.org/1999/xlink" x="0px" y="0px"
	 viewBox="0 0 420 130" style="enable-background:new 0 0 420 130;" xml:space="preserve">
<style type="text/css">
	.st0{fill:#00C853;}
	.st1{fill:none;stroke:#00C853;stroke-width:2;stroke-miterlimit:10;}
	.st2{opacity:0.7;}
</style>
<g>
	<g>
		<path class="st0" d="M170.1,72.3c-1.6,3.1-3.7,5.9-6.3,8.5c1.4,3.8,3,6.1,4.8,6.1c1,0,1.4-1.8,1.6-6.4c0.6,0.6,1.5,1.2,2.3,1.4
			c-0.5,5.9-1.4,7.7-4.1,7.7c-2.8,0-5-2.5-6.7-6.7c-2.3,2.1-4.9,3.9-7.6,5.3c-0.4-0.6-1.2-1.5-1.8-2.1c3-1.5,6-3.5,8.5-5.8
			c-0.9-3-1.5-6.6-2-10.4h-8.5v5.8c2.1-0.5,4.3-0.9,6.4-1.4l0.2,2.4c-2.2,0.5-4.4,1-6.6,1.5v8c0,1.7-0.4,2.5-1.5,3s-3.1,0.5-6,0.5
			c-0.1-0.7-0.6-1.9-1-2.7c2.3,0.1,4.4,0.1,5,0c0.6,0,0.9-0.2,0.9-0.8v-7.3c-2.7,0.6-5.3,1.2-7.5,1.7l-0.8-2.7
			c2.2-0.4,5.1-1,8.2-1.6v-6.3H140v-2.6h7.7v-5.7c-2.2,0.4-4.5,0.8-6.6,1.1c-0.1-0.6-0.5-1.6-0.9-2.2c5-0.8,10.8-2,14.2-3.2l1.9,2.2
			c-1.7,0.6-3.8,1.2-6,1.7v6.3h8.2c-0.3-3.3-0.5-6.7-0.5-10.3h2.7c0,3.6,0.1,7.1,0.4,10.3h10.6v2.6h-10.3c0.4,3.1,0.9,5.8,1.5,8.2
			c1.9-2.1,3.5-4.2,4.7-6.6L170.1,72.3z M168.8,65c-1.1-1.7-3.5-4.3-5.7-6.1l2.1-1.4c2.1,1.8,4.6,4.3,5.8,6L168.8,65z"/>
		<path class="st0" d="M185.5,57c-0.6,1.8-1.3,3.7-1.9,5.3h6v23.4h-10v2.8h-2.4V62.3h4c0.5-1.7,1.2-4.1,1.4-5.8L185.5,57z
			 M187.2,64.7h-7.6v7.5h7.6V64.7z M187.2,83.2v-8.6h-7.6v8.6H187.2z M207.2,63.5c-0.6,16.4-1,22-2.5,23.7c-0.8,1-1.6,1.3-2.8,1.4
			c-1.3,0.1-3.3,0.1-5.3,0c-0.1-0.8-0.4-1.9-0.9-2.6c2.3,0.2,4.5,0.2,5.3,0.2c0.7,0,1.1-0.1,1.5-0.5c1.2-1.3,1.7-6.7,2.2-21.1h-9.1
			c-1,2.4-2.1,4.6-3.4,6.3c-0.5-0.4-1.6-1.2-2.2-1.5c2.4-3.2,4.4-8.1,5.5-13.1L198,57c-0.4,1.8-0.9,3.5-1.5,5.2h10.8V63.5z
			 M199.3,79.8c-1.1-2.2-3.5-5.7-5.5-8.3l2.1-1.2c2,2.6,4.5,6,5.7,8.1L199.3,79.8z"/>
		<path class="st0" d="M220.9,79.8h6.4v2.3h-6.4v7.2h-2.5v-7.2h-6.7v-2.3h6.7v-3.9h-5.9v-2.3h3.3c-0.2-1.2-1-3-1.7-4.4l2-0.5
			c0.8,1.3,1.6,3.1,1.8,4.3l-1.8,0.6h4.5c0.9-1.5,1.9-3.6,2.5-5.1l2.3,0.6c-0.8,1.5-1.6,3.1-2.4,4.5h3.6v2.3h-5.7V79.8z M227.3,68.5
			h-15.5v-2.3h6.7v-3.6h-5.7v-2.3h5.7v-3.6h2.5v3.6h5.4v2.3h-5.4v3.6h6.3V68.5z M243.4,70.8c-0.8,4.2-2.2,8.2-4.4,11.7
			c1.7,1.9,3.6,3.5,5.7,4.5c-0.6,0.5-1.4,1.5-1.8,2.2c-2-1.1-3.8-2.7-5.4-4.6c-1.5,1.9-3.2,3.6-5.3,4.9c-0.3-0.4-0.7-0.9-1.2-1.3
			v1.2h-2.4V58.2h13.9v6.9c0,1.4-0.3,2.1-1.4,2.4c-1.1,0.4-2.9,0.4-5.7,0.4c-0.1-0.8-0.5-1.7-0.8-2.4c2.2,0.1,4.1,0.1,4.6,0
			c0.6,0,0.7-0.1,0.7-0.6v-4.4h-9v9.7h10.2l0.4-0.1L243.4,70.8z M231.1,87.2c1.9-1.3,3.5-2.9,4.9-4.8c-2-2.9-3.5-6.3-4.6-10h-0.3
			V87.2z M233.7,72.5c0.9,2.8,2.1,5.4,3.7,7.8c1.4-2.4,2.4-5.1,3.1-7.8H233.7z"/>
		<path class="st0" d="M276.4,89.4h-2.7v-1.9h-16v1.9h-2.6V77.5c-2,0.7-4,1.3-6,1.7c-0.2-0.7-0.8-1.9-1.4-2.4
			c4.6-0.9,9.3-2.6,13.6-4.9c-1.7-1.7-4.5-3.9-6.8-5.7c-1.3,0.9-2.6,1.7-4,2.4c-0.4-0.6-1.3-1.6-1.8-2c5.8-2.8,9.9-6.8,12-10.2
			l3,0.6c-0.7,1-1.4,2.1-2.3,3.1H274l0.4-0.1l1.8,1.1c-3,5.7-8.1,10.2-14.1,13.3h14.3V89.4z M258.9,62.6c-0.8,0.8-1.6,1.4-2.4,2.2
			c2.4,1.7,5.5,4,7.2,5.7c3.5-2.2,6.4-4.8,8.5-7.8H258.9z M273.7,85.1v-8.2h-16v8.2H273.7z"/>
	</g>
	<g>
		<path class="st1" d="M345.9,59c-5.2,0-32.4,5.2-32.4,5.2c-1.1,0.2-2-0.5-2-1.6v-11c0-1.1-0.9-2-2-2h-97.6c-1.1,0-2.9,0-4,0H190
			c-1.1,0-2.9,0-4,0h-75.7c-1.1,0-2,0.9-2,2v11c0,1.1-0.9,1.8-2,1.6c0,0-27.3-5.2-32.4-5.2c-8.6,0-15.6,7-15.6,15.6
			s7,15.6,15.6,15.6c5.2,0,32.4-5.2,32.4-5.2c1.1-0.2,2,0.5,2,1.6v11c0,1.1,0.9,2,2,2H186c1.1,0,2.9,0,4,0h17.9c1.1,0,2.9,0,4,0
			h97.6c1.1,0,2-0.9,2-2v-11c0-1.1,0.9-1.8,2-1.6c0,0,27.3,5.2,32.4,5.2c8.6,0,15.6-7,15.6-15.6S354.5,59,345.9,59z"/>
	</g>
	<g class="st2">
		<g>
			<g>
				<rect x="34.4" y="71.8" class="st0" width="20" height="3"/>
			</g>
			<g>
				
					<rect x="48.1" y="53.1" transform="matrix(0.3511 -0.9363 0.9363 0.3511 -25.8543 85.9488)" class="st0" width="2" height="17.1"/>
			</g>
			<g>
				<rect x="58.6" y="47.6" transform="matrix(0.6 -0.8 0.8 0.6 -19.1209 68.6492)" class="st0" width="1" height="11.7"/>
			</g>
			<g>
				
					<rect x="39.2" y="85.9" transform="matrix(0.9362 -0.3514 0.3514 0.9362 -27.5081 22.3394)" class="st0" width="17.1" height="2"/>
			</g>
			<g>
				
					<rect x="52" y="94.6" transform="matrix(0.8001 -0.5998 0.5998 0.8001 -45.5119 53.6763)" class="st0" width="11.7" height="1"/>
			</g>
		</g>
		<g>
			<g>
				<rect x="365.6" y="71.8" class="st0" width="20" height="3"/>
			</g>
			<g>
				
					<rect x="362.4" y="60.6" transform="matrix(0.9362 -0.3514 0.3514 0.9362 2.0023 134.2877)" class="st0" width="17.1" height="2"/>
			</g>
			<g>
				
					<rect x="355.1" y="52.9" transform="matrix(0.8001 -0.5998 0.5998 0.8001 40.0821 227.175)" class="st0" width="11.7" height="1"/>
			</g>
			<g>
				
					<rect x="371.2" y="78.4" transform="matrix(0.3511 -0.9363 0.9363 0.3511 160.1145 404.9347)" class="st0" width="2" height="17.1"/>
			</g>
			<g>
				<rect x="361.7" y="89.3" transform="matrix(0.6 -0.8 0.8 0.6 68.78 327.8195)" class="st0" width="1" height="11.7"/>
			</g>
		</g>
	</g>
</g>
</svg>
