<?xml version="1.0" encoding="utf-8"?>
<!-- Generator: Adobe Illustrator 21.1.0, SVG Export Plug-In . SVG Version: 6.00 Build 0)  -->
<svg version="1.1" id="圖層_1" xmlns="http://www.w3.org/2000/svg" xmlns:xlink="http://www.w3.org/1999/xlink" x="0px" y="0px"
	 viewBox="0 0 420 130" style="enable-background:new 0 0 420 130;" xml:space="preserve">
<style type="text/css">
	.st0{fill:#00C853;}
	.st1{fill:none;stroke:#00C853;stroke-width:2;stroke-miterlimit:10;}
	.st2{opacity:0.7;}
</style>
<g>
	<g>
		<path class="st0" d="M170.1,72.3c-1.6,3.1-3.7,5.9-6.3,8.5c1.4,3.8,3,6.1,4.8,6.1c1,0,1.4-1.8,1.6-6.4c0.6,0.6,1.5,1.2,2.3,1.4
			c-0.5,5.9-1.4,7.7-4.1,7.7c-2.8,0-5-2.5-6.7-6.7c-2.3,2.1-4.9,3.9-7.6,5.3c-0.4-0.6-1.2-1.5-1.8-2.1c3-1.5,6-3.5,8.5-5.8
			c-0.9-3-1.5-6.6-2-10.4h-8.5v5.8c2.1-0.5,4.3-0.9,6.4-1.4l0.2,2.4c-2.2,0.5-4.4,1-6.6,1.5v8c0,1.7-0.4,2.5-1.5,3s-3.1,0.5-6,0.5
			c-0.1-0.7-0.6-1.9-1-2.7c2.3,0.1,4.4,0.1,5,0c0.6,0,0.9-0.2,0.9-0.8v-7.3c-2.7,0.6-5.3,1.2-7.5,1.7l-0.8-2.7
			c2.2-0.4,5.1-1,8.2-1.6v-6.3H140v-2.6h7.7v-5.7c-2.2,0.4-4.5,0.8-6.6,1.1c-0.1-0.6-0.5-1.6-0.9-2.2c5-0.8,10.8-2,14.2-3.2l1.9,2.2
			c-1.7,0.6-3.8,1.2-6,1.7v6.3h8.2c-0.3-3.3-0.5-6.7-0.5-10.3h2.7c0,3.6,0.1,7.1,0.4,10.3h10.6v2.6h-10.3c0.4,3.1,0.9,5.8,1.5,8.2
			c1.9-2.1,3.5-4.2,4.7-6.6L170.1,72.3z M168.8,65c-1.1-1.7-3.5-4.3-5.7-6.1l2.1-1.4c2.1,1.8,4.6,4.3,5.8,6L168.8,65z"/>
		<path class="st0" d="M185.5,57c-0.6,1.8-1.3,3.7-1.9,5.3h6v23.4h-10v2.8h-2.4V62.3h4c0.5-1.7,1.2-4.1,1.4-5.8L185.5,57z
			 M187.2,64.7h-7.6v7.5h7.6V64.7z M187.2,83.2v-8.6h-7.6v8.6H187.2z M207.2,63.5c-0.6,16.4-1,22-2.5,23.7c-0.8,1-1.6,1.3-2.8,1.4
			c-1.3,0.1-3.3,0.1-5.3,0c-0.1-0.8-0.4-1.9-0.9-2.6c2.3,0.2,4.5,0.2,5.3,0.2c0.7,0,1.1-0.1,1.5-0.5c1.2-1.3,1.7-6.7,2.2-21.1h-9.1
			c-1,2.4-2.1,4.6-3.4,6.3c-0.5-0.4-1.6-1.2-2.2-1.5c2.4-3.2,4.4-8.1,5.5-13.1L198,57c-0.4,1.8-0.9,3.5-1.5,5.2h10.8V63.5z
			 M199.3,79.8c-1.1-2.2-3.5-5.7-5.5-8.3l2.1-1.2c2,2.6,4.5,6,5.7,8.1L199.3,79.8z"/>
		<path class="st0" d="M221.3,73.6c-0.9,3.3-2.1,6.8-3.6,9.5c0.6,0.4,1.4,1,2.5,1.7c2.5,1.5,5.7,1.8,10,1.8c4.6,0,10.4-0.3,14.4-0.8
			c-0.3,0.7-0.8,2-0.8,2.8c-2.7,0.2-9.4,0.4-13.6,0.4c-4.7,0-7.8-0.4-10.4-2c-1.5-0.9-2.8-2.1-3.6-2.1c-0.8,0-2.1,2.2-3.1,4.5
			l-1.8-2.4c1.5-2.1,3-3.7,4.2-4.3c1.1-2.1,2.2-4.8,2.8-7.3h-5c1-2.1,2.2-5.1,3.2-7.9h-4.8v-2.4h8.1c-0.9,2.6-2.1,5.5-3.1,8h3.1
			l0.4-0.1L221.3,73.6z M215.8,63.5c-0.4-1.5-1.3-4-1.8-5.8l2.4-0.6c0.6,1.8,1.5,4.2,1.9,5.7L215.8,63.5z M224.1,60.3h5.9
			c0.4-1.2,0.9-2.7,1.1-3.9l3,0.5c-0.4,1.2-0.9,2.3-1.4,3.3h8v9.4h-14V73H242v10.4h-17.9V60.3z M226.7,62.5v4.9h11.4v-4.9H226.7z
			 M226.7,75.3v5.9h12.7v-5.9H226.7z"/>
		<path class="st0" d="M265.5,65.3c-0.5,1.5-1.2,3.1-1.9,4.7v19.4h-2.2V74.1c-0.7,1.1-1.4,2.2-2.2,3.1c-0.2-0.3-0.5-0.7-0.8-1.1v0.5
			H255V83l4-1l0.3,2.2c-4,1.2-8.2,2.3-11.4,3.2l-0.5-2.4l1.4-0.4V72.4h2v11.7l2-0.5V69.1h-3.9v-11h9.2v11H255v5.2h3.4v0.5
			c2.2-2.9,4-6.9,5-10.1L265.5,65.3z M251,66.7h4.9v-6.3H251V66.7z M265.3,57.3c-1.3,3.2-3.5,6.8-5.7,9.2c-0.3-0.5-1-1.3-1.5-1.7
			c2.1-2.2,4-5.5,4.9-8.2L265.3,57.3z M274.5,86.4c0.7,0.1,1.4,0.2,2.2,0.2c0.6,0,3.2,0,4,0c-0.3,0.6-0.6,1.7-0.7,2.3h-3.5
			c-3.5,0-6.2-1-8-5.7c-0.6,2.4-1.4,4.5-2.7,6.2c-0.4-0.4-1.2-1.1-1.7-1.4c2.8-3.6,3.2-10.4,3.2-14.8l2.3,0.1c0,1.7-0.1,3.6-0.4,5.5
			c0.6,3.2,1.7,5.1,3,6.3V70.3h2.3v6.2h5.1v2.3h-5.1V86.4z M271.4,67.5c-0.3-0.7-1-1.8-1.7-2.8c-0.8,2.4-1.8,4.5-3.1,6.1
			c-0.3-0.4-1.2-1.2-1.7-1.5c2.4-3,3.6-7.5,4.2-12.6l2.3,0.3c-0.3,1.9-0.6,3.8-1,5.5c0.8,0.9,2.1,2.4,2.4,2.8L271.4,67.5z
			 M279.1,70.3c-0.6-1.4-1.9-3.3-3.1-5.1c-0.8,1.9-1.7,3.6-3,5c-0.3-0.4-1.2-1.2-1.6-1.6c2.6-2.7,3.8-6.9,4.2-11.9l2.2,0.2
			c-0.2,2.1-0.6,4-1,5.8c1.5,2.1,3.2,4.4,4,6L279.1,70.3z"/>
	</g>
	<g>
		<path class="st1" d="M345.9,59c-5.2,0-32.4,5.2-32.4,5.2c-1.1,0.2-2-0.5-2-1.6v-11c0-1.1-0.9-2-2-2h-97.6c-1.1,0-2.9,0-4,0H190
			c-1.1,0-2.9,0-4,0h-75.7c-1.1,0-2,0.9-2,2v11c0,1.1-0.9,1.8-2,1.6c0,0-27.3-5.2-32.4-5.2c-8.6,0-15.6,7-15.6,15.6
			s7,15.6,15.6,15.6c5.2,0,32.4-5.2,32.4-5.2c1.1-0.2,2,0.5,2,1.6v11c0,1.1,0.9,2,2,2H186c1.1,0,2.9,0,4,0h17.9c1.1,0,2.9,0,4,0
			h97.6c1.1,0,2-0.9,2-2v-11c0-1.1,0.9-1.8,2-1.6c0,0,27.3,5.2,32.4,5.2c8.6,0,15.6-7,15.6-15.6S354.5,59,345.9,59z"/>
	</g>
	<g class="st2">
		<g>
			<g>
				<rect x="34.4" y="71.8" class="st0" width="20" height="3"/>
			</g>
			<g>
				
					<rect x="48.1" y="53.1" transform="matrix(0.3511 -0.9363 0.9363 0.3511 -25.8543 85.9488)" class="st0" width="2" height="17.1"/>
			</g>
			<g>
				<rect x="58.6" y="47.6" transform="matrix(0.6 -0.8 0.8 0.6 -19.1209 68.6492)" class="st0" width="1" height="11.7"/>
			</g>
			<g>
				
					<rect x="39.2" y="85.9" transform="matrix(0.9362 -0.3514 0.3514 0.9362 -27.5081 22.3394)" class="st0" width="17.1" height="2"/>
			</g>
			<g>
				
					<rect x="52" y="94.6" transform="matrix(0.8001 -0.5998 0.5998 0.8001 -45.5119 53.6763)" class="st0" width="11.7" height="1"/>
			</g>
		</g>
		<g>
			<g>
				<rect x="365.6" y="71.8" class="st0" width="20" height="3"/>
			</g>
			<g>
				
					<rect x="362.4" y="60.6" transform="matrix(0.9362 -0.3514 0.3514 0.9362 2.0023 134.2877)" class="st0" width="17.1" height="2"/>
			</g>
			<g>
				
					<rect x="355.1" y="52.9" transform="matrix(0.8001 -0.5998 0.5998 0.8001 40.0821 227.175)" class="st0" width="11.7" height="1"/>
			</g>
			<g>
				
					<rect x="371.2" y="78.4" transform="matrix(0.3511 -0.9363 0.9363 0.3511 160.1145 404.9347)" class="st0" width="2" height="17.1"/>
			</g>
			<g>
				<rect x="361.7" y="89.3" transform="matrix(0.6 -0.8 0.8 0.6 68.78 327.8195)" class="st0" width="1" height="11.7"/>
			</g>
		</g>
	</g>
</g>
</svg>
