<?xml version="1.0" encoding="utf-8"?>
<!-- Generator: Adobe Illustrator 21.1.0, SVG Export Plug-In . SVG Version: 6.00 Build 0)  -->
<svg version="1.1" id="圖層_1" xmlns="http://www.w3.org/2000/svg" xmlns:xlink="http://www.w3.org/1999/xlink" x="0px" y="0px"
	 viewBox="0 0 60 60" style="enable-background:new 0 0 60 60;" xml:space="preserve">
<style type="text/css">
	.st0{fill:#BBBBBB;}
	.st1{fill:#FF00FF;}
	.st2{fill:#999999;}
</style>
<g>
	<rect x="25.8" y="1170.4" class="st0" width="8.3" height="1.3"/>
	<rect x="25.8" y="1177.4" class="st0" width="8.3" height="1.3"/>
	<path class="st0" d="M36.3,1180.9H23.6v-17.3h8.7c0.1,0,0.5,0,0.5,0.5v2.8h-7v1.3h11.9l-0.1-0.1c0,0-3.6-4.8-3.9-5.2
		c-0.3-0.4-0.9-0.7-1.4-0.7h-10v20h15.3v-13h-1.3V1180.9z M34.1,1165.7l0.9,1.2h-0.9V1165.7z"/>
	<rect x="25.8" y="1173.9" class="st0" width="8.3" height="1.3"/>
</g>
<g>
	<path class="st1" d="M55,1157.3h-3v0.3h3V1157.3L55,1157.3z M50,1157.3h-3v0.3h3V1157.3L50,1157.3z M45,1157.3h-3v0.3h3V1157.3
		L45,1157.3z M40,1157.3h-3v0.3h3V1157.3L40,1157.3z M35,1157.3h-3v0.3h3V1157.3L35,1157.3z M30,1157.3h-3v0.3h3V1157.3L30,1157.3z
		 M25,1157.3h-3v0.3h3V1157.3L25,1157.3z M20,1157.3h-3v0.3h3V1157.3L20,1157.3z M15,1157.3h-3v0.3h3V1157.3L15,1157.3z M10,1157.3
		H7v0.3h3V1157.3L10,1157.3z M5.3,1157.3H5v3h0.3V1157.3L5.3,1157.3z M5.3,1162.3H5v3h0.3V1162.3L5.3,1162.3z M5.3,1167.3H5v3h0.3
		V1167.3L5.3,1167.3z M5.3,1172.3H5v3h0.3V1172.3L5.3,1172.3z M5.3,1177.3H5v3h0.3V1177.3L5.3,1177.3z M5.3,1182.3H5v3h0.3V1182.3
		L5.3,1182.3z M8,1187H5v0.3h3V1187L8,1187z M13,1187h-3v0.3h3V1187L13,1187z M18,1187h-3v0.3h3V1187L18,1187z M23,1187h-3v0.3h3
		V1187L23,1187z M28,1187h-3v0.3h3V1187L28,1187z M33,1187h-3v0.3h3V1187L33,1187z M38,1187h-3v0.3h3V1187L38,1187z M43,1187h-3v0.3
		h3V1187L43,1187z M48,1187h-3v0.3h3V1187L48,1187z M53,1187h-3v0.3h3V1187L53,1187z M55,1184.3h-0.3v3H55V1184.3L55,1184.3z
		 M55,1179.3h-0.3v3H55V1179.3L55,1179.3z M55,1174.3h-0.3v3H55V1174.3L55,1174.3z M55,1169.3h-0.3v3H55V1169.3L55,1169.3z
		 M55,1164.3h-0.3v3H55V1164.3L55,1164.3z M55,1159.3h-0.3v3H55V1159.3L55,1159.3z"/>
</g>
<g>
	<g>
		<path class="st0" d="M30,1c16,0,29,13,29,29S46,59,30,59S1,46,1,30S14,1,30,1 M30,0C13.4,0,0,13.4,0,30s13.4,30,30,30
			s30-13.4,30-30S46.6,0,30,0L30,0z"/>
	</g>
	<path class="st2" d="M36.4,17.6c-3.5,0-5.7,1.9-7.1,3.3l-0.7,0.7c0.2,0.2,0.5,0.4,0.7,0.7l0.7,0.7l0.7-0.7c1.9-1.9,3.6-2.7,5.7-2.7
		c3.9,0,6.6,2.9,6.6,7.1c0,6-4.8,10.1-12,16.3l-1,0.8L29,43c-7.2-6.2-12-10.3-12-16.3c0-4.2,2.7-7.1,6.6-7.1c1.2,0,2.3,0.3,3.3,0.8
		l1-1c0.2-0.2,0.3-0.3,0.5-0.5c-1.5-0.9-3-1.4-4.8-1.4c-5,0-8.6,3.8-8.6,9.1c0,6.9,5.3,11.5,12.7,17.9l2.3,1.9l2.3-2
		C39.7,38.2,45,33.6,45,26.6C45,21.4,41.4,17.6,36.4,17.6z"/>
</g>
</svg>
