<?xml version="1.0" encoding="utf-8"?>
<!-- Generator: Adobe Illustrator 21.1.0, SVG Export Plug-In . SVG Version: 6.00 Build 0)  -->
<svg version="1.1" id="圖層_1" xmlns="http://www.w3.org/2000/svg" xmlns:xlink="http://www.w3.org/1999/xlink" x="0px" y="0px"
	 viewBox="0 0 420 130" style="enable-background:new 0 0 420 130;" xml:space="preserve">
<style type="text/css">
	.st0{fill:#00C853;}
	.st1{font-family:'NotoSansCJKtc-Regular-B5pc-H';}
	.st2{font-size:36px;}
	.st3{fill:none;stroke:#00C853;stroke-width:2;stroke-miterlimit:10;}
	.st4{opacity:0.7;}
</style>
<g>
	<text transform="matrix(1 0 0 1 101.916 86.6346)" class="st0 st1 st2">編輯個人資料</text>
	<g>
		<path class="st3" d="M375.9,59c-5.2,0-32.4,5.2-32.4,5.2c-1.1,0.2-2-0.5-2-1.6v-11c0-1.1-0.9-2-2-2H80.4c-1.1,0-2,0.9-2,2v11
			c0,1.1-0.9,1.8-2,1.6c0,0-27.3-5.2-32.4-5.2c-8.6,0-15.6,7-15.6,15.6s7,15.6,15.6,15.6c5.2,0,32.4-5.2,32.4-5.2
			c1.1-0.2,2,0.5,2,1.6v11c0,1.1,0.9,2,2,2h259.1c1.1,0,2-0.9,2-2v-11c0-1.1,0.9-1.8,2-1.6c0,0,27.3,5.2,32.4,5.2
			c8.6,0,15.6-7,15.6-15.6S384.5,59,375.9,59z"/>
	</g>
	<g class="st4">
		<g>
			<g>
				<rect x="4.4" y="71.8" class="st0" width="20" height="3"/>
			</g>
			<g>
				
					<rect x="18.1" y="53.1" transform="matrix(0.3511 -0.9363 0.9363 0.3511 -45.3217 57.8584)" class="st0" width="2" height="17.1"/>
			</g>
			<g>
				<rect x="28.6" y="47.6" transform="matrix(0.6 -0.8 0.8 0.6 -31.1218 44.6454)" class="st0" width="1" height="11.7"/>
			</g>
			<g>
				
					<rect x="9.2" y="85.9" transform="matrix(0.9362 -0.3514 0.3514 0.9362 -29.422 11.7961)" class="st0" width="17.1" height="2"/>
			</g>
			<g>
				<rect x="22" y="94.6" transform="matrix(0.8005 -0.5994 0.5994 0.8005 -51.474 35.6343)" class="st0" width="11.7" height="1"/>
			</g>
		</g>
		<g>
			<g>
				<rect x="395.6" y="71.8" class="st0" width="20" height="3"/>
			</g>
			<g>
				
					<rect x="392.4" y="60.6" transform="matrix(0.9362 -0.3514 0.3514 0.9362 3.9158 144.8307)" class="st0" width="17.1" height="2"/>
			</g>
			<g>
				
					<rect x="385.1" y="52.9" transform="matrix(0.8005 -0.5994 0.5994 0.8005 45.9661 244.9684)" class="st0" width="11.7" height="1"/>
			</g>
			<g>
				
					<rect x="401.2" y="78.4" transform="matrix(0.3511 -0.9363 0.9363 0.3511 179.5797 433.024)" class="st0" width="2" height="17.1"/>
			</g>
			<g>
				<rect x="391.7" y="89.3" transform="matrix(0.6 -0.8 0.8 0.6 80.7919 351.8346)" class="st0" width="1" height="11.7"/>
			</g>
		</g>
	</g>
</g>
</svg>
