<?xml version="1.0" encoding="utf-8"?>
<!-- Generator: Adobe Illustrator 21.1.0, SVG Export Plug-In . SVG Version: 6.00 Build 0)  -->
<svg version="1.1" id="圖層_1" xmlns="http://www.w3.org/2000/svg" xmlns:xlink="http://www.w3.org/1999/xlink" x="0px" y="0px"
	 viewBox="0 0 420 130" style="enable-background:new 0 0 420 130;" xml:space="preserve">
<style type="text/css">
	.st0{fill:#00C853;}
	.st1{fill:none;stroke:#00C853;stroke-width:2;stroke-miterlimit:10;}
	.st2{opacity:0.7;}
</style>
<g>
	<g>
		<path class="st0" d="M106.9,79.9c-0.4,3.1-1,6.4-1.8,8.7c-0.4-0.3-1.4-0.6-2-0.8c0.8-2.2,1.4-5.4,1.7-8.3L106.9,79.9z M103.2,67.6
			c0.6-0.1,1.2-0.9,1.9-2c0.8-1.1,3.2-5.2,4.6-9.1l2.3,1c-1.5,3.4-3.5,6.9-5.3,9.6l3.7-0.4c0.9-1.5,1.9-3.3,2.6-4.9l2.1,1.2
			c-2.3,4.3-5.1,8.6-7.9,12l6.2-0.9c-0.4-1.2-0.9-2.5-1.4-3.6l1.9-0.7c1,2.2,2.1,5.1,2.4,6.9l-2,0.8c-0.1-0.4-0.2-0.9-0.4-1.5
			c-8,1.2-9.1,1.5-9.7,1.9c-0.1-0.5-0.5-1.7-0.8-2.3c0.8-0.1,1.5-1,2.6-2.4c0.6-0.7,1.7-2.2,3-4.2c-3.7,0.4-4.5,0.6-5,0.9
			C103.9,69.4,103.5,68.2,103.2,67.6z M110.5,79.4c0.4,2.3,0.8,5.4,0.9,7.4l-2,0.5c-0.1-2.1-0.4-5.1-0.8-7.5L110.5,79.4z M119.6,71
			c-0.1,5.7-0.6,13.1-2.7,18.4c-0.5-0.4-1.6-1-2.2-1.3c0.5-1.3,0.9-2.6,1.2-4l-1.9,0.7c-0.3-1.6-1-4-1.6-5.7l1.8-0.6
			c0.6,1.8,1.4,4.1,1.7,5.6c1.1-5.1,1.2-11.1,1.2-15.4v-9.6c5.3-0.5,11.6-1.4,14.9-2.5l2.1,1.8c-3.9,1.2-9.5,2-14.5,2.5v2.2h14.6V71
			H119.6z M119.6,65.3v3.4v0.2h12.2v-3.6H119.6z M135,86.9c0,1-0.1,1.5-0.8,1.9c-0.6,0.3-1.5,0.3-2.7,0.3c0-0.5-0.3-1.3-0.6-1.9
			c0.7,0,1.3,0,1.6,0c0.3,0,0.3-0.1,0.3-0.3v-5h-2.6v6.8h-1.7v-6.8h-2.5v7h-1.7v-7H122v7.5h-2.1V73.5H135V86.9z M124.4,79.8v-4.1
			H122v4.1H124.4z M128.6,79.8v-4.1h-2.5v4.1H128.6z M132.8,79.8v-4.1h-2.6v4.1H132.8z"/>
		<path class="st0" d="M170.4,69.6V83h1.9v2.4h-1.9v4h-2.5v-4h-13.8v-2.3h-5.6v6.3h-2.4v-6.3h-6.6v-2.4h6.6v-2.9h-5.3V65.4h5.3v-2.6
			h-6.2v-2.4h6.2v-3.9h2.4v3.9h6.1v2.4h-6.1v2.6h5.5v12.4h-5.5v2.9h6.6V83h2V69.6h-2.3v-2.2h17.7v2.2H170.4z M142.8,70.7h3.4v-3.2
			h-3.4V70.7z M142.8,75.8h3.4v-3.3h-3.4V75.8z M151.8,67.4h-3.6v3.2h3.6V67.4z M151.8,72.6h-3.6v3.3h3.6V72.6z M170.5,65.3h-13.6
			v-7.6h13.6V65.3z M167.9,59.7h-8.5v3.6h8.5V59.7z M167.9,69.6h-8.4v3.1h8.4V69.6z M167.9,74.8h-8.4v3.2h8.4V74.8z M167.9,83v-3.1
			h-8.4V83H167.9z"/>
		<path class="st0" d="M185,57.4c-0.8,2.4-1.8,4.8-2.9,7v25.1h-2.6V69c-1.1,1.8-2.3,3.4-3.5,4.8c-0.2-0.6-0.9-2.1-1.4-2.7
			c3.2-3.5,6.1-8.9,7.9-14.3L185,57.4z M207.1,58.7V89h-2.6v-1.8h-15.8v2.1h-2.5V58.7H207.1z M204.6,84.8V61h-15.8v23.8H204.6z
			 M197.8,68.3v4h4.1v9.6h-10.3v-9.6h3.9v-4h-5.4v-2.1h5.4v-4.1h2.2v4.1h5.5v2.1H197.8z M199.8,74.3h-6.1v5.6h6.1V74.3z"/>
		<path class="st0" d="M229.4,56.7c0,1.3-0.1,3.1-0.3,5.2c0.5,4.3,2.7,19.3,15.4,25c-0.8,0.6-1.5,1.5-1.9,2.3
			c-9-4.2-12.9-13.1-14.6-19.8c-1.7,7.2-5.5,15.3-14.3,19.9c-0.5-0.7-1.3-1.5-2.2-2.1c14.9-7.6,14.7-25.1,14.8-30.5H229.4z"/>
		<path class="st0" d="M258.1,66.4h-10.3v-2.2h10.3V66.4z M260.9,85c-2.9,1.7-7.4,3.4-11,4.4c-0.5-0.5-1.4-1.5-2-2
			c3.7-0.8,8-2.1,10.5-3.5L260.9,85z M257.2,60.8h-8.6v-2.1h8.6V60.8z M252.5,69.2h23.3v14.4h-23.3V69.2z M255.1,73.5h18V71h-18
			V73.5z M255.1,77.6h18v-2.4h-18V77.6z M255.1,81.9h18v-2.5h-18V81.9z M263.7,61c-0.8,1.4-1.7,2.6-2.7,3.6c-0.4-0.4-1.4-1.1-2-1.4
			c1.9-1.7,3.3-4.2,4.1-6.8l2.4,0.5c-0.2,0.7-0.5,1.3-0.8,2h12.1l0.4-0.1l1.8,0.6c-0.9,1.8-2.1,3.9-3,5.2l-2.1-0.8
			c0.5-0.8,1.2-1.8,1.7-2.8h-5.7v0.5c0,0.4,0,0.8-0.1,1.2c1.9,2.2,5.8,3.6,10.5,4c-0.5,0.5-1.2,1.5-1.5,2.1c-4.1-0.6-7.6-2-9.8-4.2
			c-1.2,1.8-4,3.4-10.4,4.4c-0.3-0.6-1-1.5-1.4-2c9.3-1.3,10.2-3.7,10.2-5.6V61H263.7z M269.1,83.9c3.9,1.2,8.1,2.7,10.6,3.9
			l-2.3,1.5c-2.3-1.2-6.2-2.7-10.1-4L269.1,83.9z"/>
		<path class="st0" d="M288.8,73.7c-0.8,4-2.3,9-4.1,11.6c-0.3-0.9-0.9-2.2-1.4-3c1.5-2.1,3-6.1,3.6-9.3L288.8,73.7z M292,71v18.4
			h-2.5V71h-5.8v-2.5h5.8v-12h2.5v12h5.9V71H292z M286,67.3c-0.2-2.1-1-5.4-2-8l1.9-0.5c1,2.5,1.9,5.7,2.1,7.9L286,67.3z
			 M293.7,73.2c0.7,1,3.3,5.9,3.8,7.2l-1.9,2c-0.6-1.9-2.6-6.6-3.4-8.1L293.7,73.2z M297.9,59.3c-0.9,2.7-2,6-3,8.1l-1.8-0.6
			c0.9-2.1,1.9-5.7,2.4-8.1L297.9,59.3z M311.9,79.3v10.1h-2.5v-9.6l-11.2,2.1l-0.4-2.5l11.6-2.1V56.5h2.5v20.2l4.2-0.8l0.4,2.4
			L311.9,79.3z M304.6,74.2c-1.2-1.3-3.8-3.1-5.9-4.3l1.3-1.9c2.1,1.1,4.8,2.8,6,4L304.6,74.2z M306.1,65.5
			c-1.2-1.4-3.6-3.3-5.7-4.6l1.4-1.8c2,1.2,4.5,3.1,5.7,4.4L306.1,65.5z"/>
	</g>
	<g>
		<path class="st1" d="M375.9,59c-5.2,0-32.4,5.2-32.4,5.2c-1.1,0.2-2-0.5-2-1.6v-11c0-1.1-0.9-2-2-2H80.4c-1.1,0-2,0.9-2,2v11
			c0,1.1-0.9,1.8-2,1.6c0,0-27.3-5.2-32.4-5.2c-8.6,0-15.6,7-15.6,15.6s7,15.6,15.6,15.6c5.2,0,32.4-5.2,32.4-5.2
			c1.1-0.2,2,0.5,2,1.6v11c0,1.1,0.9,2,2,2h259.1c1.1,0,2-0.9,2-2v-11c0-1.1,0.9-1.8,2-1.6c0,0,27.3,5.2,32.4,5.2
			c8.6,0,15.6-7,15.6-15.6S384.5,59,375.9,59z"/>
	</g>
	<g class="st2">
		<g>
			<g>
				<rect x="4.4" y="71.8" class="st0" width="20" height="3"/>
			</g>
			<g>
				
					<rect x="18.1" y="53.1" transform="matrix(0.3511 -0.9363 0.9363 0.3511 -45.3217 57.8584)" class="st0" width="2" height="17.1"/>
			</g>
			<g>
				<rect x="28.6" y="47.6" transform="matrix(0.6 -0.8 0.8 0.6 -31.1218 44.6454)" class="st0" width="1" height="11.7"/>
			</g>
			<g>
				
					<rect x="9.2" y="85.9" transform="matrix(0.9362 -0.3514 0.3514 0.9362 -29.422 11.7961)" class="st0" width="17.1" height="2"/>
			</g>
			<g>
				<rect x="22" y="94.6" transform="matrix(0.8005 -0.5994 0.5994 0.8005 -51.474 35.6343)" class="st0" width="11.7" height="1"/>
			</g>
		</g>
		<g>
			<g>
				<rect x="395.6" y="71.8" class="st0" width="20" height="3"/>
			</g>
			<g>
				
					<rect x="392.4" y="60.6" transform="matrix(0.9362 -0.3514 0.3514 0.9362 3.9158 144.8307)" class="st0" width="17.1" height="2"/>
			</g>
			<g>
				
					<rect x="385.1" y="52.9" transform="matrix(0.8005 -0.5994 0.5994 0.8005 45.9661 244.9684)" class="st0" width="11.7" height="1"/>
			</g>
			<g>
				
					<rect x="401.2" y="78.4" transform="matrix(0.3511 -0.9363 0.9363 0.3511 179.5797 433.024)" class="st0" width="2" height="17.1"/>
			</g>
			<g>
				<rect x="391.7" y="89.3" transform="matrix(0.6 -0.8 0.8 0.6 80.7919 351.8346)" class="st0" width="1" height="11.7"/>
			</g>
		</g>
	</g>
</g>
</svg>
