<?xml version="1.0" encoding="utf-8"?>
<!-- Generator: Adobe Illustrator 21.1.0, SVG Export Plug-In . SVG Version: 6.00 Build 0)  -->
<svg version="1.1" id="圖層_1" xmlns="http://www.w3.org/2000/svg" xmlns:xlink="http://www.w3.org/1999/xlink" x="0px" y="0px"
	 viewBox="0 0 50 30" style="enable-background:new 0 0 50 30;" xml:space="preserve">
<style type="text/css">
	.st0{fill:#BBBBBB;}
</style>
<path class="st0" d="M32.6,14L32.6,14c-2.5-2.2-6-3.4-9.5-3.3V7.2c0-0.3-0.2-0.6-0.4-0.7c-0.3-0.1-0.6-0.1-0.8,0.1l-7.9,7.5
	c-0.1,0.1-0.2,0.3-0.2,0.5c0,0.2,0.1,0.4,0.2,0.5l7.9,7.5c0.2,0.2,0.5,0.3,0.8,0.1c0.3-0.1,0.4-0.4,0.4-0.7v-3.7
	c3-0.2,5.5,0.1,7.6,0.9l0.1,0V18l-0.1,0c-2.3-0.8-5.2-1-8.5-0.8c-0.4,0-0.7,0.3-0.7,0.7v2.7l-6.1-5.8L21.5,9v2.6
	c0,0.2,0.1,0.4,0.2,0.5c0.2,0.1,0.4,0.2,0.6,0.2c3.5-0.4,6.8,0.7,9.2,2.8c1.6,1.4,2.6,3.1,3,5.1c-0.6-0.6-1.4-1.1-2.2-1.5l-0.1-0.1
	v1.7l0,0c2,1.2,2.6,2.6,2.6,2.7c0.1,0.3,0.4,0.5,0.7,0.5c0,0,0.1,0,0.1,0c0.3-0.1,0.6-0.4,0.6-0.7C36.4,19.3,35,16.2,32.6,14z"/>
</svg>
