<?xml version="1.0" encoding="utf-8"?>
<!-- Generator: Adobe Illustrator 21.1.0, SVG Export Plug-In . SVG Version: 6.00 Build 0)  -->
<svg version="1.1" id="圖層_1" xmlns="http://www.w3.org/2000/svg" xmlns:xlink="http://www.w3.org/1999/xlink" x="0px" y="0px"
	 viewBox="0 0 50 30" style="enable-background:new 0 0 50 30;" xml:space="preserve">
<style type="text/css">
	.st0{fill:#BBBBBB;}
	.st1{fill:#FF00FF;}
</style>
<g>
	<rect x="20.8" y="1155.4" class="st0" width="8.3" height="1.3"/>
	<rect x="20.8" y="1162.4" class="st0" width="8.3" height="1.3"/>
	<path class="st0" d="M31.3,1165.9H18.6v-17.3h8.7c0.1,0,0.5,0,0.5,0.5v2.8h-7v1.3h11.9l-0.1-0.1c0,0-3.6-4.8-3.9-5.2
		c-0.3-0.4-0.9-0.7-1.4-0.7h-10v20h15.3v-13h-1.3V1165.9z M29.1,1150.7l0.9,1.2h-0.9V1150.7z"/>
	<rect x="20.8" y="1158.9" class="st0" width="8.3" height="1.3"/>
</g>
<g>
	<path class="st1" d="M50,1142.3h-3v0.3h3V1142.3L50,1142.3z M45,1142.3h-3v0.3h3V1142.3L45,1142.3z M40,1142.3h-3v0.3h3V1142.3
		L40,1142.3z M35,1142.3h-3v0.3h3V1142.3L35,1142.3z M30,1142.3h-3v0.3h3V1142.3L30,1142.3z M25,1142.3h-3v0.3h3V1142.3L25,1142.3z
		 M20,1142.3h-3v0.3h3V1142.3L20,1142.3z M15,1142.3h-3v0.3h3V1142.3L15,1142.3z M10,1142.3H7v0.3h3V1142.3L10,1142.3z M5,1142.3H2
		v0.3h3V1142.3L5,1142.3z M0.3,1142.3H0v3h0.3V1142.3L0.3,1142.3z M0.3,1147.3H0v3h0.3V1147.3L0.3,1147.3z M0.3,1152.3H0v3h0.3
		V1152.3L0.3,1152.3z M0.3,1157.3H0v3h0.3V1157.3L0.3,1157.3z M0.3,1162.3H0v3h0.3V1162.3L0.3,1162.3z M0.3,1167.3H0v3h0.3V1167.3
		L0.3,1167.3z M3,1172H0v0.3h3V1172L3,1172z M8,1172H5v0.3h3V1172L8,1172z M13,1172h-3v0.3h3V1172L13,1172z M18,1172h-3v0.3h3V1172
		L18,1172z M23,1172h-3v0.3h3V1172L23,1172z M28,1172h-3v0.3h3V1172L28,1172z M33,1172h-3v0.3h3V1172L33,1172z M38,1172h-3v0.3h3
		V1172L38,1172z M43,1172h-3v0.3h3V1172L43,1172z M48,1172h-3v0.3h3V1172L48,1172z M50,1169.3h-0.3v3H50V1169.3L50,1169.3z
		 M50,1164.3h-0.3v3H50V1164.3L50,1164.3z M50,1159.3h-0.3v3H50V1159.3L50,1159.3z M50,1154.3h-0.3v3H50V1154.3L50,1154.3z
		 M50,1149.3h-0.3v3H50V1149.3L50,1149.3z M50,1144.3h-0.3v3H50V1144.3L50,1144.3z"/>
</g>
<polygon class="st0" points="33.8,10.1 32.2,8.9 25,17.9 17.8,8.9 16.2,10.1 25,21.1 "/>
</svg>
