<?xml version="1.0" encoding="utf-8"?>
<!-- Generator: Adobe Illustrator 21.1.0, SVG Export Plug-In . SVG Version: 6.00 Build 0)  -->
<svg version="1.1" id="Layer_1" xmlns="http://www.w3.org/2000/svg" xmlns:xlink="http://www.w3.org/1999/xlink" x="0px" y="0px"
	 viewBox="0 0 150 150" style="enable-background:new 0 0 150 150;" xml:space="preserve">
<style type="text/css">
	.st0{fill:#BBBBBB;}
	.st1{fill:#FBF8F1;}
</style>
<circle class="st0" cx="75.4" cy="75.4" r="74"/>
<g>
	<path class="st1" d="M102.6,102.1c-1.5-10.6-5.3-12.1-10.9-14.4c-0.9-0.3-2.1-0.9-3.2-1.5c-0.6-0.3-0.9-0.6-1.5-0.6
		c-3.2-1.5-4.1-2.4-4.1-3.8c4.1-2.9,6.5-7.6,6.5-12.1V50.9l-1.8,0.6c-1.2,0.3-2.1,0.3-2.9,0.3c-2.4,0-3.8-0.3-5.6-0.9
		c-1.5-0.3-3.2-0.9-5.6-0.9c-2.6,0-4.7,1.2-6.2,3.2l2.6,2.1c0.9-1.2,2.1-1.8,3.5-1.8c2.1,0,3.2,0.3,5,0.6s3.5,0.9,6.2,0.9
		c0.6,0,0.9,0,1.5,0v15c0,5.6-4.1,11.5-11.5,11.5c-7.1,0-11.5-5.9-11.5-11.5V52.6c0.9-1.2,2.9-7.1,10.6-7.1c2.6,0,4.4,0.6,6.2,0.9
		c1.5,0.3,2.9,0.6,4.7,0.6s3.5-0.3,4.7-0.9v-3.2c-1.2,0.3-2.9,1.2-4.7,1.2c-1.5,0-2.6-0.3-4.1-0.6c-2.1-0.6-4.1-0.9-7.1-0.9
		c-8.5,0-12.4,6.2-13.2,9.7v17.9c0,4.4,2.4,9.4,6.5,12.1c-0.3,1.5-0.9,2.4-4.1,3.8c-0.3,0.3-0.9,0.3-1.5,0.6
		c-1.2,0.6-2.1,0.9-3.2,1.5c-5.3,2.4-9.4,3.8-10.9,14.4l-0.3,1.8h55.9L102.6,102.1z M50.9,100.9c1.2-7.1,3.8-7.9,8.5-10
		c0.9-0.3,2.1-0.9,3.2-1.5c0.9-0.3,1.5-0.6,2.4-1.2c2.4-1.2,4.1-2.6,4.7-4.7c1.5,0.6,3.2,0.9,5.3,0.9c1.8,0,3.5-0.3,5.3-0.9
		c0.6,2.1,2.4,3.5,4.7,4.7c0.6,0.3,1.5,0.6,2.4,1.2c1.2,0.6,2.4,0.9,3.2,1.5c4.7,2.1,7.1,2.9,8.5,10H50.9z"/>
	<path class="st1" d="M125,75c0,27.6-22.4,50-50,50c-24.4,0-45-17.6-49.1-41.2h5.9c4.1,20,21.8,35.3,43.2,35.3
		c24.4,0,44.1-19.7,44.1-44.1S99.4,30.9,75,30.9S30.9,50.6,30.9,75c0,0.9,0,2.1,0.3,2.9H25V75c0-27.6,22.4-50,50-50S125,47.4,125,75
		z"/>
</g>
</svg>
