<?xml version="1.0" encoding="UTF-8"?>
<svg width="40px" height="40px" viewBox="0 0 40 40" version="1.1" xmlns="http://www.w3.org/2000/svg" xmlns:xlink="http://www.w3.org/1999/xlink">
    <!-- Generator: Sketch 46.2 (44496) - http://www.bohemiancoding.com/sketch -->
    <title>addshop</title>
    <desc>Created with Sketch.</desc>
    <defs>
        <linearGradient x1="282.33817%" y1="218.173731%" x2="-267.952596%" y2="-247.143796%" id="linearGradient-1">
            <stop stop-color="#FFD950" offset="0%"></stop>
            <stop stop-color="#FF8A48" offset="100%"></stop>
        </linearGradient>
    </defs>
    <g id="Page-1" stroke="none" stroke-width="1" fill="none" fill-rule="evenodd">
        <g id="header" transform="translate(-633.000000, -17.000000)" fill-rule="nonzero" fill="url(#linearGradient-1)">
            <g id="addshop" transform="translate(633.000000, 17.000000)">
                <g id="Group" transform="translate(7.272727, 10.000000)">
                    <polygon id="Shape" points="22.5454545 6.18181818 22.5454545 0.909090909 18.1818182 0.909090909 18.1818182 2.63636364 20.8181818 2.63636364 20.8181818 5.27272727 12.7272727 0.818181818 0.636363636 7.45454545 1.45454545 9 12.7272727 2.72727273 20.8181818 7.27272727 20.8181818 17.4545455 4.72727273 17.4545455 4.72727273 8.18181818 3 9.09090909 3 19.1818182 22.5454545 19.1818182 22.5454545 8.18181818 24 9 24.8181818 7.45454545"></polygon>
                    <polygon id="Shape" points="11.8181818 6 11.8181818 9.81818182 8 9.81818182 8 11.5454545 11.8181818 11.5454545 11.8181818 15.2727273 13.5454545 15.2727273 13.5454545 11.5454545 17.4545455 11.5454545 17.4545455 9.81818182 13.5454545 9.81818182 13.5454545 6"></polygon>
                </g>
                <path d="M20,1.81818182 C30,1.81818182 38.1818182,10 38.1818182,20 C38.1818182,30 30,38.1818182 20,38.1818182 C10,38.1818182 1.81818182,30 1.81818182,20 C1.81818182,10 10,1.81818182 20,1.81818182 L20,1.81818182 Z M20,0 C8.90909091,0 0,8.90909091 0,20 C0,31.0909091 8.90909091,40 20,40 C31.0909091,40 40,31.0909091 40,20 C40,8.90909091 31.0909091,0 20,0 L20,0 Z" id="Shape"></path>
            </g>
        </g>
    </g>
</svg>