<?xml version="1.0" encoding="UTF-8"?>
<svg width="40px" height="40px" viewBox="0 0 40 40" version="1.1" xmlns="http://www.w3.org/2000/svg" xmlns:xlink="http://www.w3.org/1999/xlink">
    <!-- Generator: Sketch 46.2 (44496) - http://www.bohemiancoding.com/sketch -->
    <title>hot</title>
    <desc>Created with Sketch.</desc>
    <defs></defs>
    <g id="Page-1" stroke="none" stroke-width="1" fill="none" fill-rule="evenodd">
        <g id="header" transform="translate(-167.000000, -5.000000)" fill-rule="nonzero" fill="#FBF8F1">
            <g id="hot" transform="translate(167.000000, 5.000000)">
                <path d="M13.0434783,40 L10.8074534,39.0062112 L13.0434783,33.5403727 L15.2795031,34.5341615 L13.0434783,40 Z M26.9565217,40 L24.7204969,34.5341615 L26.9565217,33.5403727 L29.1925466,39.0062112 L26.9565217,40 Z M0.99378882,29.1925466 L8.8817842e-16,26.9565217 L5.46583851,24.7204969 L6.45962733,26.9565217 L0.99378882,29.1925466 Z M39.0062112,29.1925466 L33.5403727,26.9565217 L34.5341615,24.7204969 L40,26.9565217 L39.0062112,29.1925466 Z M34.5341615,15.4037267 L33.5403727,13.1677019 L39.0062112,10.931677 L40,13.1677019 L34.5341615,15.4037267 Z M5.46583851,15.4037267 L0,13.1677019 L0.99378882,10.931677 L6.45962733,13.1677019 L5.46583851,15.4037267 Z M13.0434783,6.45962733 L10.8074534,0.99378882 L13.0434783,0 L15.2795031,5.46583851 L13.0434783,6.45962733 Z M26.9565217,6.45962733 L24.7204969,5.46583851 L26.9565217,0 L29.1925466,0.99378882 L26.9565217,6.45962733 Z M33.1677019,19.378882 C31.3043478,16.3975155 27.2049689,11.3043478 20,11.3043478 C12.0496894,11.3043478 7.82608696,17.515528 6.70807453,19.378882 L6.33540373,20 L6.70807453,20.621118 C6.95652174,20.9937888 7.32919255,21.6149068 7.82608696,22.3602484 L8.81987578,20.621118 C8.94409938,20.4968944 9.06832298,20.2484472 9.19254658,20 C10.0621118,18.757764 11.552795,16.6459627 14.1614907,15.2795031 C13.9130435,16.0248447 13.7888199,16.7701863 13.7888199,17.515528 C13.7888199,20.9937888 16.5217391,23.7267081 20,23.7267081 C23.4782609,23.7267081 26.2111801,20.9937888 26.2111801,17.515528 C26.2111801,16.7701863 26.0869565,16.0248447 25.8385093,15.4037267 C28.0745342,16.6459627 29.689441,18.5093168 30.6832298,20 C28.9440994,22.6086957 25.4658385,26.2111801 20,26.2111801 C15.7763975,26.2111801 12.7950311,24.0993789 10.931677,22.1118012 L9.68944099,24.3478261 C11.9254658,26.5838509 15.2795031,28.6956522 20,28.6956522 C27.2049689,28.6956522 31.3043478,23.6024845 33.1677019,20.621118 L33.6645963,20 L33.1677019,19.378882 Z M20,21.242236 C17.8881988,21.242236 16.2732919,19.6273292 16.2732919,17.515528 C16.2732919,15.4037267 17.8881988,13.7888199 20,13.7888199 C22.1118012,13.7888199 23.7267081,15.4037267 23.7267081,17.515528 C23.7267081,19.6273292 22.1118012,21.242236 20,21.242236 Z" id="Shape"></path>
            </g>
        </g>
    </g>
</svg>