<?xml version="1.0" encoding="UTF-8"?>
<svg width="21px" height="34px" viewBox="0 0 21 34" version="1.1" xmlns="http://www.w3.org/2000/svg" xmlns:xlink="http://www.w3.org/1999/xlink">
    <!-- Generator: Sketch 46.2 (44496) - http://www.bohemiancoding.com/sketch -->
    <title>mappointer</title>
    <desc>Created with Sketch.</desc>
    <defs></defs>
    <g id="Page-1" stroke="none" stroke-width="1" fill="none" fill-rule="evenodd">
        <g id="header" transform="translate(-258.000000, -10.000000)" fill-rule="nonzero" fill="#FBF8F1">
            <g id="mappointer" transform="translate(258.000000, 10.000000)">
                <path d="M20.0421053,10.2894737 C20.0421053,15.3894737 11.3631579,31.4947368 11.0052632,32.2105263 L10.2,33.6421053 L9.39473684,32.2105263 C9.03684211,31.5842105 1.25263158,17.0894737 0.447368421,11.1842105 L2.23684211,11.1842105 C2.95263158,15.3894737 7.60526316,24.8736842 10.2,29.8842105 C12.9736842,24.5157895 18.2526316,13.7789474 18.2526316,10.2894737 C18.2526316,5.81578947 14.6736842,2.23684211 10.2,2.23684211 C6.08421053,2.23684211 2.68421053,5.36842105 2.23684211,9.39473684 L0.447368421,9.39473684 C0.894736842,4.38421053 5.1,0.447368421 10.2,0.447368421 C15.6578947,0.447368421 20.0421053,4.92105263 20.0421053,10.2894737 Z M14.6736842,10.2894737 C14.6736842,12.7947368 12.7052632,14.7631579 10.2,14.7631579 C7.69473684,14.7631579 5.72631579,12.7947368 5.72631579,10.2894737 C5.72631579,7.78421053 7.69473684,5.81578947 10.2,5.81578947 C12.7052632,5.81578947 14.6736842,7.87368421 14.6736842,10.2894737 Z M12.8842105,10.2894737 C12.8842105,8.85789474 11.6315789,7.60526316 10.2,7.60526316 C8.76842105,7.60526316 7.51578947,8.85789474 7.51578947,10.2894737 C7.51578947,11.7210526 8.76842105,12.9736842 10.2,12.9736842 C11.6315789,12.9736842 12.8842105,11.8105263 12.8842105,10.2894737 Z" id="Shape"></path>
            </g>
        </g>
    </g>
</svg>