<?xml version="1.0" encoding="utf-8"?>
<!-- Generator: Adobe Illustrator 21.1.0, SVG Export Plug-In . SVG Version: 6.00 Build 0)  -->
<svg version="1.1" id="Layer_1" xmlns="http://www.w3.org/2000/svg" xmlns:xlink="http://www.w3.org/1999/xlink" x="0px" y="0px"
	 viewBox="0 0 38 38" style="enable-background:new 0 0 38 38;" xml:space="preserve">
<style type="text/css">
	.st0{fill:#231F20;}
</style>
<path class="st0" d="M36.4,16.3c-0.1-0.4-0.5-0.7-1-0.7H23.9L20.4,4.7c-0.1-0.4-0.5-0.7-1-0.7s-0.8,0.3-1,0.7l-3.6,10.9H3.4
	c-0.4,0-0.8,0.3-1,0.7c-0.1,0.4,0,0.9,0.4,1.1l9.3,6.8L8.6,35.1c-0.1,0.4,0,0.9,0.4,1.1c0.2,0.1,0.4,0.2,0.6,0.2s0.4-0.1,0.6-0.2
	l9.3-6.8l9.3,6.8c0.4,0.3,0.8,0.3,1.2,0c0.4-0.3,0.5-0.7,0.4-1.1l-3.6-10.9l9.3-6.8C36.3,17.2,36.5,16.7,36.4,16.3z M24.3,23.4
	l3,9.4l-8-5.8l-8,5.8l3.1-9.4l-8-5.8h9.9l3.1-9.4l3.1,9.4h9.9L24.3,23.4z"/>
</svg>
